<svg width="250" height="247" viewBox="0 0 250 247" fill="none" xmlns="http://www.w3.org/2000/svg">
<path d="M121.865 2.66803C122.091 2.74081 122.323 2.79433 122.558 2.82801C127.005 3.14078 131.355 4.28015 135.384 6.18768C140.278 8.42865 144.769 11.4616 148.676 15.1644C151.659 18.008 153.56 21.4767 154.627 25.4303C154.669 25.5851 154.706 25.741 154.748 25.8955C155.009 26.8608 155.011 26.8704 156.046 26.7015C161.074 25.8811 165.767 26.9453 170.212 29.276C174.46 31.5036 177.911 34.6127 180.281 38.819C181.005 40.104 181.536 41.4975 182.21 42.9597C182.475 42.9892 182.742 42.999 183.01 42.9892C187.457 42.6091 191.812 43.1712 196.089 44.3542C204.884 46.8332 212.57 52.2386 217.878 59.6772C223.186 67.1158 225.797 76.1425 225.281 85.266C225.194 87.0671 224.988 88.8604 224.663 90.6341C224.094 93.547 223.187 96.3836 221.96 99.0864C216.982 110.089 208.767 117.521 197.314 121.381C194.493 122.3 191.576 122.891 188.62 123.141C188.345 123.146 188.078 123.233 187.852 123.39C187.626 123.547 187.452 123.768 187.351 124.024C185.088 128.567 181.513 131.684 176.85 133.613C175.205 134.351 173.496 134.936 171.743 135.361C171.414 135.422 171.106 135.566 170.847 135.779C170.589 135.992 170.389 136.267 170.266 136.579C168.953 139.242 167.99 142.063 167.4 144.973C166.577 149.148 166.381 153.422 166.817 157.655C167.602 165.804 170.187 173.372 174.21 180.464C178.263 187.692 183.764 194.007 190.368 199.013C190.976 199.472 191.6 199.909 192.221 200.349C194.308 201.84 196.615 202.998 199.058 203.78C205.733 205.913 212.377 208.145 218.917 210.675C223.737 212.541 228.516 214.498 233.159 216.78C235.439 217.867 237.627 219.137 239.701 220.579C242.335 222.422 244.622 224.717 246.456 227.358C247.475 228.8 248.243 230.405 248.728 232.103C248.862 232.596 248.984 233.092 249.112 233.587V238.157C249.039 238.249 248.983 238.353 248.946 238.464C248.693 240.537 247.709 242.257 246.326 243.761C245.569 244.584 244.734 245.336 243.926 246.111C243.816 246.231 243.665 246.306 243.502 246.321C243.34 246.336 243.177 246.29 243.046 246.193C242.867 246.099 242.728 245.942 242.656 245.753C242.585 245.563 242.586 245.354 242.659 245.165C242.788 244.917 242.953 244.69 243.149 244.49C244.727 242.808 245.087 240.766 244.877 238.571C244.724 237.212 244.314 235.895 243.667 234.691C242.121 231.678 239.918 229.212 237.302 227.1C235.098 225.36 232.727 223.844 230.224 222.573C224.99 219.84 219.499 217.723 213.924 215.816C205.852 213.057 197.654 210.697 189.522 208.127C177.229 204.242 164.948 200.316 152.681 196.349C147.111 194.561 141.65 192.453 136.323 190.036C128.664 186.54 121.465 182.299 115.068 176.792C109.868 172.374 105.259 167.304 101.355 161.706C100.651 160.684 100.027 159.607 99.363 158.558C99.0043 157.99 98.9471 157.978 98.2915 158.198C96.9639 158.646 95.652 159.149 94.303 159.517C91.3228 160.323 88.2529 160.752 85.1657 160.792C73.6376 160.976 63.4373 157.329 54.4951 150.126C49.8277 146.418 46.1019 141.66 43.621 136.24C43.5221 136.024 43.4079 135.815 43.2786 135.559C43.0848 135.533 42.8893 135.521 42.6937 135.523C41.7361 135.601 40.7813 135.715 39.823 135.775C25.6596 136.666 11.7528 129.479 4.86642 116.675C3.04747 113.278 1.77965 109.613 1.11031 105.818C0.8329 104.282 0.531806 102.746 0.331825 101.2C-0.372562 95.5784 0.047041 89.8727 1.56626 84.4145C4.41398 74.5953 10.1357 66.9443 18.9265 61.6625C23.1053 59.1795 27.7147 57.5063 32.5133 56.7305C34.8853 56.3342 37.2865 56.1383 39.6915 56.145C42.2974 56.1497 44.8974 56.3955 47.4581 56.8793C47.5745 56.9011 47.6942 56.9072 47.8683 56.9267C47.9839 56.7268 48.085 56.519 48.171 56.3047C50.4235 49.4042 54.5322 43.768 59.9816 39.0683C65.8581 33.9761 72.9475 30.4838 80.5662 28.9282C83.6693 28.2818 86.8404 28.0205 90.0075 28.1503C90.3674 28.1644 90.7284 28.1666 91.089 28.1634C91.178 28.146 91.2642 28.116 91.3449 28.0745C91.5795 27.6448 91.4572 27.1555 91.4755 26.6865C91.6591 21.9685 92.9499 17.6093 95.7084 13.7399C97.6195 11.0994 100.063 8.88897 102.881 7.25126C106.518 5.028 110.587 3.60498 114.816 3.07695C115.571 2.98768 116.33 2.93168 117.085 2.84401C117.398 2.80754 117.706 2.72786 118.017 2.66803H121.865ZM155.597 28.4213C155.786 29.7585 155.998 30.9785 156.124 32.2072C156.591 36.7699 156.245 41.2623 154.721 45.6094C152.398 52.2356 148.573 57.805 142.987 62.1367C137.828 66.1059 131.955 69.0473 125.687 70.8008C121.131 72.0569 116.495 73.0017 111.811 73.6287C107.254 74.2919 102.694 74.9305 98.1308 75.5444C93.5631 76.1311 89.0288 76.9534 84.5459 78.0081C78.8415 79.3885 73.3249 81.284 68.1175 84.0235C60.2254 88.1777 53.7454 93.8955 48.8762 101.395C46.3391 105.207 44.4975 109.438 43.4367 113.893C42.8147 116.546 42.393 119.241 42.1751 121.956C41.9358 124.758 42.2028 127.58 42.9631 130.286C44.0403 133.9 45.6388 137.338 47.7083 140.49C49.7395 143.634 52.4613 146.274 55.6665 148.207C61.6695 151.908 68.248 153.734 75.2387 154.146C78.2814 154.336 81.3357 154.199 84.3495 153.74C88.2399 153.172 92.0191 152.006 95.5535 150.284C95.7988 150.148 96.0525 150.028 96.3131 149.925C96.4142 149.878 96.5245 149.855 96.6357 149.857C96.747 149.858 96.8565 149.885 96.9562 149.934C97.0559 149.984 97.1434 150.055 97.2122 150.142C97.281 150.229 97.3294 150.331 97.354 150.44C97.4906 150.816 97.585 151.208 97.7177 151.585C98.8152 154.708 100.451 157.554 102.245 160.315C104.182 163.217 106.356 165.954 108.745 168.498C111.242 171.267 113.927 173.862 116.781 176.263C122.714 181.18 129.273 185.083 136.243 188.327C142.108 191.013 148.131 193.34 154.279 195.294C165.324 198.88 176.385 202.415 187.463 205.9C195.442 208.425 203.451 210.853 211.429 213.384C216.745 215.043 221.954 217.027 227.028 219.323C230.145 220.7 233.139 222.341 235.975 224.23C238.456 225.868 240.668 227.879 242.535 230.193C243.102 230.918 243.641 231.669 244.135 232.445C245.788 235.046 246.79 237.827 246.305 241.106C246.701 240.653 246.988 240.116 247.146 239.535C247.813 237.589 247.936 235.499 247.503 233.488C247.028 231.116 245.906 229.056 244.44 227.163C242.4 224.574 239.912 222.373 237.094 220.663C234.484 219.093 231.772 217.698 228.977 216.488C221.924 213.305 214.683 210.604 207.356 208.129C203.602 206.861 199.82 205.673 196.061 204.417C194.315 203.834 192.594 203.177 190.86 202.556C186.166 200.927 181.558 199.06 177.055 196.962C169.473 193.292 162.305 188.822 155.674 183.628C150.234 179.42 145.222 174.76 140.9 169.389C132.765 159.281 127.642 147.898 126.321 134.903C125.861 130.637 125.869 126.332 126.345 122.067C127.017 116.198 128.844 110.52 131.72 105.359C137.587 94.8033 148.021 88.7562 157.68 87.7227C161.269 87.2972 164.906 87.528 168.412 88.4039C173.712 89.7746 178.185 92.5635 181.972 96.4818C186.982 101.665 189.715 107.802 189.701 115.078C189.724 115.372 189.767 115.664 189.829 115.952C190.613 115.907 191.333 115.913 192.04 115.819C194.739 115.416 197.361 114.599 199.812 113.399C206.223 110.406 211.997 106.204 216.818 101.025C218.619 99.1387 220.195 97.049 221.513 94.7981C222.203 93.6661 222.68 92.4177 222.921 91.1143C223.127 89.8514 223.392 88.5965 223.547 87.3279C224.023 83.5013 223.882 79.6231 223.131 75.841C220.909 64.6693 214.989 56.0141 205.316 50.0003C199.947 46.6586 193.805 44.7614 187.486 44.4927C186.047 44.3951 184.603 44.3993 183.164 44.5055C182.805 44.5375 182.443 44.5263 182.084 44.5599C181.802 44.5969 181.517 44.5385 181.273 44.3939C181.028 44.2493 180.84 44.027 180.737 43.7625C180.606 43.4706 180.497 43.1693 180.411 42.8612C179.85 41.0578 178.994 39.3602 177.876 37.8377C174.442 33.07 169.377 29.7287 163.642 28.4476C161.806 28.0172 159.916 27.8602 158.033 27.9814C157.204 28.0105 156.384 28.1587 155.597 28.4213ZM40.9016 129.023L41.043 128.97C40.9899 128.58 40.9429 128.189 40.883 127.8C40.5707 125.9 40.4848 123.969 40.6271 122.048C40.7269 120.851 40.8395 119.652 41.0081 118.464C41.4593 114.964 42.3294 111.53 43.5999 108.237C45.9529 102.349 49.4947 97.2299 53.8869 92.6937C58.0458 88.4442 62.8862 84.9203 68.2077 82.2679C74.361 79.1411 80.8957 77.1551 87.6298 75.7597C91.6313 74.9304 95.6706 74.333 99.7191 73.7849C104.044 73.1993 108.361 72.5517 112.682 71.9425C116.133 71.4638 119.557 70.8061 122.94 69.9721C128.329 68.6889 133.479 66.5566 138.197 63.6553C144.513 59.7021 149.381 54.5016 152.34 47.5775C154.365 42.8382 155.153 37.6622 154.631 32.5348C154.424 30.8264 154.105 29.1335 153.674 27.4672C152.58 22.4478 149.836 17.94 145.878 14.664C142.689 11.9723 139.173 9.69164 135.415 7.87552C130.542 5.47886 125.187 4.22625 119.756 4.21316C118.155 4.24881 116.557 4.37819 114.97 4.60064C110.575 5.13192 106.368 6.69959 102.697 9.17459C98.621 11.8658 95.6639 15.4568 94.1677 20.1601C93.122 23.4484 92.6014 26.7994 93.29 30.2292C93.6589 32.0661 94.1331 33.8467 95.5154 35.308C97.2465 37.1803 99.6223 38.3278 102.165 38.5199C105.26 38.793 108.367 38.1616 111.11 36.7024C114.156 35.2114 116.703 32.8681 118.443 29.9572C119.804 27.6499 120.473 25.1749 120.12 22.4763C120.084 22.2796 120.071 22.0793 120.082 21.8796C120.087 21.7183 120.138 21.5617 120.227 21.4276C120.317 21.2936 120.443 21.1873 120.59 21.121C120.737 21.0546 120.9 21.0308 121.06 21.0523C121.22 21.0737 121.37 21.1395 121.495 21.2422C121.655 21.3626 121.798 21.5047 121.919 21.6642C122.962 22.9376 123.822 24.3501 124.474 25.8609C125.141 27.456 125.44 29.1805 125.35 30.9068C125.187 33.3273 124.275 35.637 122.74 37.5155C119.263 41.9157 114.66 44.2028 109.083 44.5705C108.769 44.5909 108.456 44.6095 108.123 44.63C107.412 46.2129 106.25 47.3727 104.929 48.365C103.662 49.3465 102.343 50.2578 100.976 51.0946C98.5973 52.5006 96.1973 53.8854 93.7242 55.1147C89.5646 57.183 85.3593 59.1642 81.138 61.1055C75.8962 63.5161 70.665 65.9437 65.5494 68.6161C61.0319 70.966 56.7187 73.6892 52.6547 76.7574C48.7199 79.7465 45.3076 83.3669 42.5565 87.4715C38.5492 93.398 36.344 99.908 36.2918 107.103C36.2491 110.511 36.4738 113.916 36.9637 117.288C37.556 121.218 38.7791 125.026 40.5858 128.565C40.6805 128.725 40.786 128.878 40.9016 129.023ZM168.811 135.97C168.357 136.033 168.125 136.052 167.898 136.098C165.927 136.492 163.898 136.498 161.925 136.115C157.987 135.38 154.418 133.321 151.809 130.281C149.146 127.278 147.487 123.754 146.473 119.902C146.411 119.67 146.377 119.432 146.372 119.193C146.366 119.03 146.411 118.871 146.502 118.736C146.592 118.601 146.722 118.498 146.874 118.441C147.02 118.37 147.186 118.348 147.346 118.38C147.505 118.412 147.65 118.495 147.758 118.617C147.973 118.853 148.171 119.105 148.349 119.371C149.336 120.787 150.485 122.082 151.775 123.229C158.31 128.904 165.852 130.992 174.347 129.366C178.639 128.564 182.577 126.454 185.621 123.325C186.217 122.729 186.671 122.006 186.947 121.21C187.966 118.414 188.342 115.425 188.049 112.465C187.646 108.458 186.24 104.618 183.962 101.298C182.422 99.0428 180.571 97.0175 178.463 95.2823C174.075 91.6477 169.056 89.5251 163.363 89.1033C159.111 88.7803 154.84 89.3908 150.848 90.892C142.249 94.1022 136.024 99.9215 131.985 108.129C128.937 114.32 127.58 120.902 127.494 127.765C127.473 130.852 127.678 133.937 128.105 136.994C128.945 143.077 130.709 148.997 133.336 154.547C136.604 161.56 141.048 167.751 146.393 173.313C150.91 178.012 155.939 182.105 161.248 185.871C169.655 191.845 178.844 196.633 188.556 200.102C188.788 200.185 189.034 200.227 189.55 200.36C188.423 199.436 187.509 198.722 186.634 197.964C177.943 190.503 171.454 180.812 167.866 169.934C165.505 162.893 164.549 155.67 165.351 148.253C165.734 144.499 166.702 140.828 168.22 137.374C168.397 136.976 168.558 136.572 168.811 135.97ZM106.431 44.6975C106.332 44.6121 106.281 44.5327 106.215 44.5161C105.905 44.4393 105.593 44.3737 105.28 44.3148C101.315 43.5693 97.9651 41.7826 95.4684 38.5394C93.6235 36.2014 92.3621 33.4576 91.7887 30.535C91.6662 29.8909 91.4368 29.7806 90.9427 29.723C90.5853 29.6814 90.2231 29.6775 89.8628 29.6638C86.8565 29.5448 83.847 29.8004 80.9037 30.4247C70.6554 32.6027 62.1459 37.6934 55.5552 45.858C51.7594 50.5615 49.2582 55.8775 48.4944 61.9371C48.4275 62.2906 48.3172 62.6344 48.1662 62.961C48.0921 63.1723 47.9416 63.3483 47.7443 63.4542C47.5469 63.5601 47.3171 63.5882 47.1 63.5331C46.9023 63.5056 46.709 63.4435 46.5113 63.4179C45.082 63.2336 43.6568 62.9718 42.2218 62.8909C39.019 62.6921 35.8039 62.9036 32.6547 63.5203C23.7161 65.3121 16.2487 69.6425 10.4905 76.7014C3.61502 85.1297 0.788747 94.8081 2.66216 105.576C4.54998 116.423 10.5398 124.526 20.1353 129.899C26.6969 133.574 33.8012 134.788 41.2532 134.173C41.4244 134.13 41.5878 134.061 41.737 133.967C41.7193 133.862 41.6909 133.759 41.6522 133.66C41.4532 133.312 41.2478 132.968 41.0408 132.625C37.6466 127.106 35.5948 120.867 35.0503 114.41C34.7604 110.894 34.6097 107.373 34.9623 103.845C35.1903 101.209 35.7273 98.6089 36.5622 96.0982C38.8797 89.4108 42.7488 83.7221 47.8443 78.8647C51.3105 75.5607 55.2429 72.8557 59.3247 70.3714C62.934 68.2099 66.6504 66.2324 70.4596 64.4466C75.2662 62.1518 80.1108 59.935 84.9478 57.7052C90.2033 55.3245 95.3305 52.6701 100.308 49.753C102.05 48.7593 103.684 47.5875 105.184 46.2564C105.713 45.8383 106.139 45.3052 106.431 44.6975ZM47.4997 58.5521C47.3121 58.4615 47.1167 58.3878 46.916 58.332C45.6474 58.1538 44.3819 57.9125 43.1084 57.8335C40.2302 57.6171 37.3382 57.6671 34.4693 57.9829C30.6818 58.4103 26.9846 59.4284 23.5123 61.0002C12.1534 66.2592 5.24623 75.1274 2.41803 87.2555C2.37729 87.4869 2.34994 87.7205 2.33611 87.955C2.52603 87.7663 2.66544 87.533 2.74151 87.2763C5.59919 79.1901 11.0845 72.295 18.3211 67.6923C24.6944 63.5072 32.1572 61.2876 39.7817 61.3096C41.7449 61.2866 43.7063 61.4345 45.6438 61.7518C46.0304 61.8184 46.4271 61.8228 46.8936 61.8622C47.1019 60.7279 47.2942 59.6803 47.4997 58.5521ZM121.751 24.3724C121.685 24.9241 121.646 25.4805 121.548 26.0267C121.147 28.1597 120.27 30.1748 118.982 31.9221C116.479 35.4454 112.878 38.0391 108.743 39.2974C105.461 40.3386 102.15 40.5033 98.845 39.3329C98.6394 39.3074 98.4315 39.3057 98.2255 39.3278C98.7314 39.7373 99.0575 40.0256 99.4062 40.2797C101.665 41.9002 104.337 42.8487 107.112 43.0154C111.498 43.3456 115.408 42.02 118.855 39.3313C120.756 37.9039 122.235 35.9886 123.135 33.7885C124.477 30.4141 123.815 27.3005 121.751 24.3724ZM96.1592 151.908C96.0849 151.884 96.008 151.87 95.9301 151.864C95.8129 151.886 95.6983 151.92 95.588 151.965C91.3609 153.916 86.8281 155.119 82.1903 155.523C78.7575 155.853 75.2988 155.804 71.8768 155.376C68.2969 154.928 64.7839 154.051 61.4138 152.763C61.2218 152.69 61.018 152.65 60.8196 152.595C60.9346 152.775 61.095 152.923 61.2849 153.022C67.1781 156.484 73.7714 158.584 80.5815 159.168C83.3393 159.404 86.1139 159.355 88.8617 159.022C91.8073 158.678 94.6969 157.96 97.4605 156.884C97.7089 156.769 97.9501 156.639 98.1827 156.494C97.7958 155.669 97.4263 154.914 97.0877 154.146C96.7524 153.385 96.4494 152.611 96.1592 151.908ZM219.639 100.203C219.443 100.395 219.328 100.491 219.232 100.605C216.561 103.705 213.546 106.491 210.245 108.91C206.402 111.769 202.31 114.192 197.804 115.866C195.276 116.805 192.694 117.502 189.965 117.459C189.826 117.473 189.689 117.5 189.556 117.54C189.228 118.795 188.897 120.063 188.569 121.332C188.562 121.372 188.57 121.413 188.591 121.448C188.616 121.478 188.646 121.504 188.68 121.524C201.65 120.69 214.375 111.801 219.639 100.203ZM149.134 122.779C149.162 122.952 149.2 123.123 149.249 123.291C150.159 125.519 151.444 127.575 153.047 129.37C155.119 131.733 157.83 133.446 160.854 134.304C163.182 134.954 165.544 134.863 167.886 134.586C171.106 134.162 174.236 133.225 177.16 131.812C179.025 130.972 180.739 129.829 182.23 128.429C182.378 128.271 182.516 128.104 182.644 127.929C177.342 130.946 171.171 132.072 165.145 131.123C158.94 130.197 153.622 127.454 149.134 122.779Z" fill="white" fill-opacity="0.75"/>
<path d="M36.7167 48.5547C36.4944 48.5464 36.2825 48.4583 36.1199 48.3066C35.9572 48.1549 35.8545 47.9497 35.8307 47.7285C35.7277 47.1369 35.6688 46.5376 35.5859 45.9422C34.9899 41.3673 33.7585 36.8979 31.9271 32.6635C31.2918 31.1903 30.5187 29.7804 29.6182 28.4527C28.9555 27.4469 28.1515 26.5417 27.2309 25.7649C26.431 25.1183 25.5671 24.6607 24.4897 24.7298C24.2108 24.7414 23.9327 24.6911 23.6754 24.5827C23.566 24.5327 23.4718 24.4546 23.4025 24.3563C23.3331 24.258 23.2911 24.1431 23.2808 24.0232C23.2705 23.9034 23.2922 23.7829 23.3437 23.6742C23.3952 23.5655 23.4747 23.4724 23.574 23.4045C23.845 23.2368 24.1549 23.1425 24.4734 23.131C27.3851 23.1508 29.4649 21.6306 31.2033 19.5006C32.3465 18.0495 33.2622 16.4328 33.9189 14.7062C34.9683 12.0586 35.6832 9.29039 36.047 6.46573C36.2755 4.75998 36.3903 3.03918 36.5551 1.32479C36.5666 1.20513 36.5615 1.08386 36.5769 0.964829C36.6565 0.356889 36.9119 0.0199624 37.3026 0.000124388C37.5834 -0.0038769 37.8572 0.0887633 38.0779 0.262526C38.2986 0.436289 38.4529 0.68062 38.5149 0.95459C38.5421 1.19354 38.5509 1.43422 38.5415 1.67452C38.5362 4.24107 38.7795 6.80209 39.2678 9.32177C39.7999 12.3246 40.7732 15.2323 42.1562 17.9504C42.7215 19.0581 43.4074 20.1001 44.2014 21.0572C45.3642 22.4309 46.7045 23.5389 48.5251 23.9238C48.6818 23.9584 48.834 24.0107 48.9788 24.0797C49.1099 24.1325 49.2221 24.2237 49.3007 24.3412C49.3793 24.4587 49.4206 24.5971 49.4194 24.7385C49.4268 24.8801 49.3941 25.0209 49.3251 25.1447C49.256 25.2686 49.1534 25.3704 49.0291 25.4386C48.851 25.5286 48.6603 25.5909 48.4634 25.6232C47.1292 25.9412 45.9141 26.6348 44.962 27.622C44.0098 28.5429 43.1724 29.5754 42.4681 30.6973C39.9968 34.607 38.4074 39.0083 37.8103 43.5949C37.6465 44.7813 37.635 45.9889 37.547 47.1865C37.5377 47.465 37.5013 47.7419 37.4382 48.0133C37.3885 48.167 37.2925 48.3015 37.1633 48.3984C37.0341 48.4953 36.8781 48.5499 36.7167 48.5547ZM37.4206 8.03389C37.0571 9.50575 36.7506 10.9136 36.3574 12.2994C35.6415 15.0192 34.4429 17.5883 32.8185 19.8842C31.6438 21.5704 30.0636 22.9338 28.2235 23.8487C28.0749 23.9351 27.9348 24.0353 27.8049 24.1478C28.4977 24.8614 29.1658 25.4962 29.7718 26.1854C30.8592 27.473 31.7835 28.89 32.5235 30.4042C34.1366 33.6337 35.3513 37.0473 36.1407 40.5699C36.2223 40.9126 36.3327 41.2482 36.4962 41.8178C36.6332 41.2607 36.7132 40.9538 36.7842 40.6438C37.7153 36.5837 39.208 32.7601 41.5744 29.3086C42.6708 27.6226 44.0956 26.1747 45.7638 25.0514C45.8975 24.9653 46.0425 24.8962 46.2626 24.7746C43.6069 23.1428 41.961 20.903 40.6571 18.3724C39.718 16.5551 38.9872 14.6375 38.4784 12.6562C38.0926 11.1433 37.7803 9.61294 37.4206 8.03389Z" fill="white" fill-opacity="0.75"/>
<path d="M212.397 183.484C212.175 183.475 211.963 183.387 211.8 183.236C211.637 183.084 211.535 182.879 211.511 182.657C211.408 182.066 211.349 181.466 211.266 180.871C210.67 176.296 209.439 171.827 207.607 167.592C206.972 166.119 206.199 164.709 205.299 163.382C204.636 162.376 203.832 161.471 202.911 160.694C202.111 160.047 201.247 159.59 200.17 159.659C199.891 159.67 199.613 159.62 199.356 159.511C199.246 159.461 199.152 159.383 199.083 159.285C199.013 159.187 198.972 159.072 198.961 158.952C198.951 158.832 198.973 158.712 199.024 158.603C199.075 158.494 199.155 158.401 199.254 158.333C199.525 158.166 199.835 158.071 200.154 158.06C203.067 158.08 205.145 156.559 206.883 154.429C208.027 152.978 208.942 151.362 209.599 149.635C210.649 146.987 211.363 144.219 211.727 141.395C211.956 139.689 212.07 137.968 212.235 136.254C212.247 136.134 212.242 136.013 212.257 135.894C212.337 135.286 212.592 134.949 212.983 134.929C213.264 134.925 213.537 135.018 213.758 135.191C213.979 135.365 214.133 135.61 214.195 135.883C214.222 136.122 214.231 136.363 214.222 136.603C214.216 139.17 214.46 141.731 214.948 144.251C215.48 147.254 216.453 150.162 217.836 152.88C218.402 153.988 219.088 155.03 219.881 155.987C221.045 157.361 222.385 158.469 224.205 158.854C224.362 158.889 224.514 158.941 224.659 159.01C224.79 159.063 224.902 159.154 224.981 159.271C225.059 159.389 225.101 159.527 225.1 159.669C225.107 159.81 225.074 159.951 225.005 160.075C224.936 160.199 224.834 160.301 224.709 160.369C224.531 160.459 224.34 160.521 224.143 160.553C222.809 160.871 221.594 161.565 220.642 162.552C219.69 163.473 218.853 164.505 218.149 165.627C215.677 169.537 214.087 173.938 213.49 178.525C213.327 179.711 213.315 180.919 213.227 182.117C213.218 182.395 213.181 182.672 213.118 182.943C213.068 183.097 212.972 183.231 212.843 183.328C212.714 183.424 212.558 183.479 212.397 183.484ZM213.101 142.963C212.737 144.435 212.429 145.842 212.037 147.228C211.322 149.948 210.123 152.517 208.499 154.813C207.324 156.499 205.744 157.863 203.904 158.777C203.755 158.864 203.615 158.964 203.485 159.077C204.178 159.79 204.846 160.425 205.452 161.114C206.539 162.402 207.464 163.819 208.204 165.333C209.816 168.562 211.03 171.976 211.819 175.498C211.901 175.841 212.011 176.176 212.174 176.746C212.311 176.189 212.391 175.882 212.462 175.572C213.393 171.512 214.886 167.688 217.253 164.237C218.349 162.551 219.774 161.103 221.442 159.98C221.576 159.894 221.721 159.824 221.941 159.703C219.285 158.071 217.639 155.831 216.335 153.301C215.396 151.483 214.665 149.566 214.157 147.584C213.772 146.072 213.459 144.542 213.101 142.963Z" fill="white" fill-opacity="0.75"/>
<path d="M90.3202 111.129C90.3535 111.31 90.3197 111.496 90.225 111.654C90.1304 111.811 89.9815 111.929 89.8063 111.984C89.4959 112.06 89.177 112.095 88.8576 112.089C86.5407 112.038 84.7959 113.13 83.3628 114.832C82.1522 116.336 81.2714 118.078 80.7777 119.944C80.129 122.179 79.801 124.495 79.8038 126.822C79.8134 127.221 79.7871 127.621 79.7254 128.015C79.6974 128.155 79.6224 128.282 79.5128 128.373C79.4032 128.465 79.2656 128.516 79.1229 128.518C78.9824 128.546 78.8369 128.523 78.7112 128.455C78.5855 128.386 78.4876 128.276 78.4343 128.144C78.2114 127.545 78.0296 126.932 77.8904 126.309C77.4665 124.226 76.7884 122.203 75.8714 120.286C74.6323 117.351 72.6291 114.801 70.0703 112.903C69.6458 112.563 69.154 112.318 68.6274 112.182C68.1008 112.046 67.5514 112.024 67.0156 112.116C66.7396 112.165 66.4608 112.196 66.1808 112.208C66.0192 112.209 65.8603 112.166 65.7218 112.083C65.5833 111.999 65.4707 111.879 65.3966 111.735C65.3232 111.639 65.2763 111.525 65.2603 111.405C65.2443 111.284 65.2598 111.162 65.3053 111.05C65.3507 110.937 65.4246 110.839 65.5197 110.763C65.6148 110.688 65.7278 110.639 65.8477 110.621C66.358 110.517 66.8766 110.459 67.3973 110.447C69.6051 110.442 71.4289 109.504 73.0403 108.105C75.1412 106.284 76.3775 103.931 77.0578 101.269C77.4662 99.7567 77.6059 98.1843 77.4706 96.6235C77.4066 95.9862 77.389 95.3437 77.3506 94.7037C77.3458 94.6237 77.3378 94.5438 77.3403 94.4638C77.3563 93.9771 77.6081 93.6354 77.9876 93.5826C78.2085 93.5559 78.4315 93.6096 78.616 93.7339C78.8004 93.8583 78.9339 94.0449 78.992 94.2596C79.0372 94.495 79.057 94.7345 79.0509 94.9741C79.0672 95.774 79.0768 96.5772 79.0848 97.3784C79.1077 100.276 79.8457 103.124 81.2334 105.668C81.9144 106.993 82.8751 108.154 84.0491 109.07C85.3015 110.019 86.686 110.579 88.289 110.464C88.8075 110.386 89.3373 110.455 89.8188 110.662C90.0091 110.791 90.1783 110.948 90.3202 111.129ZM84.8897 111.486C82.3939 109.635 81.1694 109.637 78.2218 102.793C77.5973 104.637 76.6449 106.353 75.4103 107.858C74.1082 109.378 72.4797 110.583 70.6463 111.386C74.6104 114.22 76.7897 118.171 78.5425 122.714C78.6608 122.25 78.7284 122.037 78.7684 121.819C79.0857 120 79.6522 118.235 80.4517 116.571C81.4039 114.63 82.686 112.965 84.53 111.779C84.6555 111.689 84.7756 111.591 84.8897 111.486Z" fill="white" fill-opacity="0.75"/>
<path d="M202.617 63.264C202.484 63.4844 202.32 63.6843 202.13 63.8575C201.918 63.9672 201.684 64.029 201.445 64.0386C200.528 64.1852 199.683 64.6268 199.038 65.2967C198.22 66.1293 197.6 67.1354 197.225 68.2404C196.833 69.4209 196.601 70.6484 196.534 71.8903C196.524 72.1297 196.497 72.3681 196.454 72.6039C196.425 72.7432 196.351 72.8693 196.244 72.9628C196.137 73.0564 196.002 73.1122 195.86 73.1219C195.719 73.1476 195.573 73.1224 195.449 73.0507C195.325 72.9791 195.23 72.8656 195.182 72.7306C195.022 72.2378 194.899 71.7334 194.816 71.2219C194.739 70.749 194.781 70.255 194.686 69.7872C194.511 68.7761 194.136 67.8104 193.581 66.9474C193.026 66.0844 192.303 65.3418 191.456 64.7637C190.904 64.4446 190.324 64.1768 189.723 63.9637C189.431 63.8358 189.112 63.7676 188.832 63.622C188.706 63.5569 188.602 63.4549 188.535 63.3294C188.467 63.204 188.44 63.0611 188.456 62.9197C188.459 62.7776 188.507 62.6402 188.593 62.5273C188.68 62.4144 188.8 62.332 188.936 62.2919C189.24 62.194 189.555 62.1297 189.867 62.058C190.97 61.8203 191.993 61.3033 192.838 60.5564C193.517 59.9858 194.049 59.2601 194.388 58.4405C194.727 57.621 194.863 56.7319 194.786 55.8484C194.754 55.4091 194.671 54.973 194.653 54.5333C194.643 54.4326 194.654 54.331 194.685 54.2346C194.715 54.1382 194.765 54.049 194.832 53.9725C194.898 53.8959 194.979 53.8336 195.069 53.7892C195.16 53.7448 195.259 53.7193 195.36 53.7142C195.577 53.6597 195.806 53.6895 196.001 53.7976C196.197 53.9058 196.343 54.0841 196.412 54.2965C196.461 54.5719 196.488 54.8508 196.492 55.1304C196.565 56.6168 196.96 58.0697 197.65 59.3882C197.961 59.9473 198.326 60.4753 198.738 60.9647C199.042 61.3665 199.435 61.6924 199.886 61.9169C200.337 62.1414 200.834 62.2583 201.338 62.2586C201.539 62.2445 201.74 62.2827 201.922 62.3695C202.104 62.4563 202.26 62.5888 202.375 62.7539C202.469 62.9173 202.55 63.0879 202.617 63.264ZM199.093 63.3052C198.631 62.9149 198.285 62.6474 197.97 62.3476C197.679 62.0745 197.409 61.7793 197.162 61.4645C196.896 61.1167 196.674 60.7346 196.434 60.367C196.21 60.023 196.116 59.5879 195.777 59.2685C195.677 59.3778 195.584 59.4939 195.5 59.616C194.757 60.9531 193.643 62.0465 192.293 62.7645C192.139 62.8732 191.998 62.9978 191.872 63.1363C192.32 63.4883 192.71 63.7644 193.067 64.0815C193.429 64.3963 193.767 64.7372 194.078 65.1015C194.41 65.4986 194.686 65.9421 194.993 66.3603C195.264 66.7292 195.352 67.2277 195.814 67.589C196.53 65.8618 197.477 64.4021 199.093 63.3052Z" fill="white" fill-opacity="0.75"/>
<path d="M95.9342 147.587C95.9345 147.744 95.875 147.896 95.7677 148.012C95.6604 148.127 95.5133 148.198 95.356 148.209C95.2583 148.215 95.1605 148.199 95.0694 148.164C94.9783 148.128 94.8961 148.073 94.8284 148.002C94.7607 147.931 94.7092 147.847 94.6774 147.754C94.6457 147.662 94.6344 147.563 94.6444 147.466C94.6577 147.308 94.731 147.161 94.8492 147.056C94.9675 146.951 95.1216 146.895 95.2799 146.9C95.3681 146.902 95.4551 146.921 95.5358 146.956C95.6166 146.992 95.6895 147.043 95.7504 147.107C95.8113 147.17 95.8588 147.246 95.8904 147.328C95.9219 147.411 95.9368 147.498 95.9342 147.587Z" fill="white" fill-opacity="0.75"/>
<path d="M119.479 18.9899C119.578 18.9868 119.676 19.004 119.769 19.0403C119.861 19.0767 119.945 19.1316 120.015 19.2015C120.085 19.2715 120.14 19.355 120.177 19.4471C120.214 19.5391 120.231 19.6377 120.228 19.7368C120.218 19.9147 120.146 20.0835 120.024 20.2139C119.903 20.3443 119.739 20.4281 119.563 20.4509C119.344 20.4479 119.135 20.3584 118.982 20.2021C118.828 20.0457 118.743 19.8351 118.744 19.6161C118.766 19.4389 118.854 19.2762 118.99 19.1603C119.126 19.0444 119.3 18.9836 119.479 18.9899Z" fill="white" fill-opacity="0.75"/>
<path d="M146.228 116.065C146.228 116.163 146.206 116.261 146.166 116.351C146.125 116.441 146.066 116.521 145.993 116.587C145.919 116.653 145.833 116.702 145.739 116.733C145.645 116.763 145.546 116.773 145.447 116.763C145.329 116.763 145.212 116.739 145.104 116.693C144.995 116.646 144.897 116.578 144.816 116.492C144.735 116.406 144.672 116.304 144.632 116.193C144.592 116.082 144.575 115.964 144.582 115.846C144.585 115.747 144.608 115.651 144.649 115.561C144.69 115.472 144.749 115.391 144.821 115.324C144.893 115.258 144.978 115.206 145.071 115.172C145.163 115.138 145.261 115.123 145.36 115.128C145.598 115.14 145.822 115.245 145.984 115.42C146.146 115.595 146.234 115.826 146.228 116.065Z" fill="white" fill-opacity="0.75"/>
</svg>
