<svg width="260" height="186" viewBox="0 0 260 186" fill="none" xmlns="http://www.w3.org/2000/svg">
<path d="M261 138.578L213 91.578C200.408 65.8939 189.975 53.2446 161 36.078C135.372 24.0286 121.39 17.1539 97.4995 4.57798C90.8873 0.278087 88.0489 -0.45396 85.9995 4.07798C84.038 14.3279 87.0544 19.1225 94.9995 27.078C105.376 34.8347 112.455 39.0669 125.499 46.578C127.811 48.215 129.777 49.7445 131.5 51.2826M143 68.078C139.542 60.4232 136.577 55.8155 131.5 51.2826M131.5 51.2826L125.499 62.078L82.4998 60.578M82.4998 60.578C80.741 53.914 79.706 50.4836 77.4998 46.578C75.0473 43.631 73.3975 41.8249 71.2951 41.0344M82.4998 60.578C83.7394 69.0542 84.3641 73.5525 84.4998 78.078M64.9998 61.578L65.9998 84.078C65.9293 88.1157 66.3138 89.7941 67.4998 92.078C73.4167 100.745 77.0405 105.489 84.4998 113.578L89.0552 119.5M64.9998 61.578L54.9998 44C50.7953 37.9819 47.5405 36.0979 41.9998 36.078C39.6622 36.5079 39.4783 37.9701 39.9998 41.5L43.7069 54M64.9998 61.578V56.5M201 140.578C193.937 144.953 188.493 147.172 181.5 147.674M84.4998 78.078L106.5 77.078M84.4998 78.078L94.2998 92.078M119.5 115.078C112.209 110.767 108.091 108.374 102 103.078C98.5167 98.906 96.7573 96.5149 94.2998 92.078M94.2998 92.078L110 94.578M89.0552 119.5L99.4998 133.078C102.807 137.985 105.05 139.451 109.5 140.578C117.263 142.644 122.687 143.385 134 144.078C148.102 144.095 155.678 144.7 168.5 147.078C173.595 147.721 177.768 147.942 181.5 147.674M89.0552 119.5C65.1385 104.77 57.4132 98.6643 54.9998 92.078L54.3835 90M43.7069 54C26.4313 49.6731 15.6888 46.3128 12 54C11.2352 56.0242 11.3212 56.9816 12 58.5M43.7069 54L44.2026 55.6715M12 58.5C7.35542 59.0395 4.91183 59.5638 1.99997 62.5C0.462822 65.046 1.14774 66.1881 2.99997 68C18.9471 77.0224 30.9248 81.963 54.3835 90M12 58.5C15.7918 58.14 16.8671 58.4026 18.4996 59C28.3548 62.0648 35.3878 64.7904 48.452 70M54.3835 90L48.452 70M48.452 70L44.2026 55.6715M181.5 147.674C193.489 163.554 200.743 172.209 214 187.5M117.5 106.5C113.421 92.1132 111.263 83.9881 108.5 69M64.9998 56.5V45.578C65.4 42.0245 66.3421 41.0177 68.9998 40.578C69.8458 40.6208 70.5955 40.7714 71.2951 41.0344M64.9998 56.5C66.8528 56.6479 67.9772 56.6893 70.5 56.5C71.4445 56.2727 71.866 56.0376 72 55C72.1372 49.8013 72.0121 46.7616 71.2951 41.0344M44.2026 55.6715C45.9891 54.8513 47.02 54.3112 49 53C50.3829 52.0534 50.677 51.3654 50.5 50C48.8115 44.7312 47.7675 41.7757 45.5 36.5" stroke="white"/>
<path d="M171 112.5C160.164 102.342 155.544 95.1199 148 81.5" stroke="white"/>
</svg>
