<svg width="24" height="24" viewBox="0 0 24 24" fill="none" xmlns="http://www.w3.org/2000/svg">
<path d="M18.5621 6V15.75C18.5621 15.8992 18.5029 16.0423 18.3974 16.1477C18.2919 16.2532 18.1488 16.3125 17.9996 16.3125C17.8505 16.3125 17.7074 16.2532 17.6019 16.1477C17.4964 16.0423 17.4371 15.8992 17.4371 15.75V7.3575L6.39714 18.3975C6.29051 18.4969 6.14947 18.551 6.00375 18.5484C5.85802 18.5458 5.71898 18.4868 5.61592 18.3837C5.51286 18.2807 5.45383 18.1416 5.45126 17.9959C5.44869 17.8502 5.50278 17.7091 5.60214 17.6025L16.6421 6.5625H8.24964C8.10046 6.5625 7.95738 6.50324 7.85189 6.39775C7.7464 6.29226 7.68714 6.14918 7.68714 6C7.68714 5.85082 7.7464 5.70774 7.85189 5.60225C7.95738 5.49676 8.10046 5.4375 8.24964 5.4375H17.9996C18.1488 5.4375 18.2919 5.49676 18.3974 5.60225C18.5029 5.70774 18.5621 5.85082 18.5621 6Z" fill="#FAFAFA"/>
</svg>
