<svg width="56" height="55" viewBox="0 0 56 55" fill="none" xmlns="http://www.w3.org/2000/svg">
<path d="M50.3438 27.5C50.3438 26.5513 49.5738 25.7812 48.625 25.7812C47.6763 25.7812 46.9062 26.5513 46.9062 27.5C46.9062 28.4488 47.6763 29.2188 48.625 29.2188C49.5738 29.2188 50.3438 28.4488 50.3438 27.5Z" fill="white" fill-opacity="0.75"/>
<path d="M50.3438 6.875C50.3438 5.92625 49.5738 5.15625 48.625 5.15625C47.6763 5.15625 46.9062 5.92625 46.9062 6.875C46.9062 7.82375 47.6763 8.59375 48.625 8.59375C49.5738 8.59375 50.3438 7.82375 50.3438 6.875Z" fill="white" fill-opacity="0.75"/>
<path d="M45.1875 32.6562C45.1875 31.7075 44.4175 30.9375 43.4688 30.9375C42.52 30.9375 41.75 31.7075 41.75 32.6562C41.75 33.605 42.52 34.375 43.4688 34.375C44.4175 34.375 45.1875 33.605 45.1875 32.6562Z" fill="white" fill-opacity="0.75"/>
<path d="M45.1875 12.0312C45.1875 11.0825 44.4175 10.3125 43.4688 10.3125C42.52 10.3125 41.75 11.0825 41.75 12.0312C41.75 12.98 42.52 13.75 43.4688 13.75C44.4175 13.75 45.1875 12.98 45.1875 12.0312Z" fill="white" fill-opacity="0.75"/>
<path d="M40.0312 37.8125C40.0312 36.8638 39.2613 36.0938 38.3125 36.0938C37.3638 36.0938 36.5938 36.8638 36.5938 37.8125C36.5938 38.7613 37.3638 39.5312 38.3125 39.5312C39.2613 39.5312 40.0312 38.7613 40.0312 37.8125Z" fill="white" fill-opacity="0.75"/>
<path d="M40.0312 17.1875C40.0312 16.2388 39.2613 15.4688 38.3125 15.4688C37.3638 15.4688 36.5938 16.2388 36.5938 17.1875C36.5938 18.1363 37.3638 18.9062 38.3125 18.9062C39.2613 18.9062 40.0312 18.1363 40.0312 17.1875Z" fill="white" fill-opacity="0.75"/>
<path d="M34.875 42.9688C34.875 42.02 34.105 41.25 33.1562 41.25C32.2075 41.25 31.4375 42.02 31.4375 42.9688C31.4375 43.9175 32.2075 44.6875 33.1562 44.6875C34.105 44.6875 34.875 43.9175 34.875 42.9688Z" fill="white" fill-opacity="0.75"/>
<path d="M34.875 22.3438C34.875 21.395 34.105 20.625 33.1562 20.625C32.2075 20.625 31.4375 21.395 31.4375 22.3438C31.4375 23.2925 32.2075 24.0625 33.1562 24.0625C34.105 24.0625 34.875 23.2925 34.875 22.3438Z" fill="white" fill-opacity="0.75"/>
<path d="M29.7188 27.5C29.7188 26.5513 28.9488 25.7812 28 25.7812C27.0513 25.7812 26.2812 26.5513 26.2812 27.5C26.2812 28.4488 27.0513 29.2188 28 29.2188C28.9488 29.2188 29.7188 28.4488 29.7188 27.5Z" fill="white" fill-opacity="0.75"/>
<path d="M24.5625 42.9688C24.5625 42.02 23.7925 41.25 22.8438 41.25C21.895 41.25 21.125 42.02 21.125 42.9688C21.125 43.9175 21.895 44.6875 22.8438 44.6875C23.7925 44.6875 24.5625 43.9175 24.5625 42.9688Z" fill="white" fill-opacity="0.75"/>
<path d="M24.5625 22.3438C24.5625 21.395 23.7925 20.625 22.8438 20.625C21.895 20.625 21.125 21.395 21.125 22.3438C21.125 23.2925 21.895 24.0625 22.8438 24.0625C23.7925 24.0625 24.5625 23.2925 24.5625 22.3438Z" fill="white" fill-opacity="0.75"/>
<path d="M19.4062 37.8125C19.4062 36.8638 18.6363 36.0938 17.6875 36.0938C16.7388 36.0938 15.9688 36.8638 15.9688 37.8125C15.9688 38.7613 16.7388 39.5312 17.6875 39.5312C18.6363 39.5312 19.4062 38.7613 19.4062 37.8125Z" fill="white" fill-opacity="0.75"/>
<path d="M19.4062 17.1875C19.4062 16.2388 18.6363 15.4688 17.6875 15.4688C16.7388 15.4688 15.9688 16.2388 15.9688 17.1875C15.9688 18.1363 16.7388 18.9062 17.6875 18.9062C18.6363 18.9062 19.4062 18.1363 19.4062 17.1875Z" fill="white" fill-opacity="0.75"/>
<path d="M29.7188 48.125C29.7188 47.1763 28.9488 46.4062 28 46.4062C27.0513 46.4062 26.2812 47.1763 26.2812 48.125C26.2812 49.0738 27.0513 49.8438 28 49.8438C28.9488 49.8438 29.7188 49.0738 29.7188 48.125Z" fill="white" fill-opacity="0.75"/>
<path d="M14.25 32.6562C14.25 31.7075 13.48 30.9375 12.5312 30.9375C11.5825 30.9375 10.8125 31.7075 10.8125 32.6562C10.8125 33.605 11.5825 34.375 12.5312 34.375C13.48 34.375 14.25 33.605 14.25 32.6562Z" fill="white" fill-opacity="0.75"/>
<path d="M14.25 12.0312C14.25 11.0825 13.48 10.3125 12.5312 10.3125C11.5825 10.3125 10.8125 11.0825 10.8125 12.0312C10.8125 12.98 11.5825 13.75 12.5312 13.75C13.48 13.75 14.25 12.98 14.25 12.0312Z" fill="white" fill-opacity="0.75"/>
<path d="M9.09375 27.5C9.09375 26.5513 8.32375 25.7812 7.375 25.7812C6.42625 25.7812 5.65625 26.5513 5.65625 27.5C5.65625 28.4488 6.42625 29.2188 7.375 29.2188C8.32375 29.2188 9.09375 28.4488 9.09375 27.5Z" fill="white" fill-opacity="0.75"/>
<path d="M9.09375 6.875C9.09375 5.92625 8.32375 5.15625 7.375 5.15625C6.42625 5.15625 5.65625 5.92625 5.65625 6.875C5.65625 7.82375 6.42625 8.59375 7.375 8.59375C8.32375 8.59375 9.09375 7.82375 9.09375 6.875Z" fill="white" fill-opacity="0.75"/>
</svg>
