<svg width="23" height="22" viewBox="0 0 23 22" fill="none" xmlns="http://www.w3.org/2000/svg">
<path fill-rule="evenodd" clip-rule="evenodd" d="M11.1976 8.02925V6.59397C9.08171 6.82276 7.41235 8.54062 7.25886 10.6782H8.70892V11.4811H7.27312C7.49574 13.5445 9.13445 15.1834 11.1977 15.4065V13.971H12.0006V15.4209C14.139 15.2678 15.8575 13.5977 16.0858 11.481H14.6504V10.678H16.1001C15.9427 8.48665 14.192 6.73637 12.0005 6.57952V8.02925H11.1976ZM6.48634 10.6782C6.64288 8.11469 8.65559 6.05275 11.1976 5.81929V3.70449C7.43779 3.9058 4.42468 6.91855 4.22279 10.6782H6.48634ZM4.22268 11.4811H6.49846C6.72659 13.9705 8.70838 15.9526 11.1977 16.1812V18.4569C7.43716 18.2556 4.42356 15.2417 4.22268 11.4811ZM2.93641 11.4811C3.13959 15.9514 6.72747 19.5396 11.1977 19.7432V22.0002H12.0006V19.7431C16.4706 19.5393 20.0583 15.9512 20.2614 11.481H22.6796V10.678H20.2613C20.057 6.20887 16.4698 2.62195 12.0005 2.41823V0H11.1976V2.41822C6.7281 2.62184 3.14071 6.20886 2.93651 10.6782H0.679688L0.679688 11.4811H2.93641ZM12.0006 16.1934C14.5649 16.0373 16.6275 14.0238 16.8605 11.481H18.9751C18.7743 15.2415 15.761 18.2553 12.0006 18.4569V16.1934ZM16.8726 10.678H18.975C18.7731 6.91856 15.7601 3.90592 12.0005 3.70451V5.80701C14.6179 5.96632 16.7127 8.06076 16.8726 10.678Z" fill="white"/>
</svg>
