<svg width="367" height="490" viewBox="0 0 367 490" fill="none" xmlns="http://www.w3.org/2000/svg">
<g clip-path="url(#clip0_34_1626)">
<path d="M234.671 372.794C234.901 371.821 235.114 370.926 235.325 370.03C235.903 367.557 236.832 365.194 237.614 362.783C239.967 355.523 242.837 348.459 245.618 341.36C246.363 339.459 247.25 337.613 248.084 335.747C250.393 330.579 252.706 325.413 255.024 320.249C255.929 318.091 256.588 315.838 256.989 313.533C257.594 310.509 258.103 307.463 258.986 304.501C259.823 301.695 260.544 298.852 261.685 296.148C262.851 293.382 262.873 290.529 262.349 287.631C262.252 287.095 262.157 286.557 262.049 285.951C261.737 286.046 261.475 286.108 261.226 286.205C259.95 286.685 258.81 287.467 257.903 288.484C255.621 291.059 253.299 293.6 251.032 296.19C247.106 300.673 243.221 305.191 239.299 309.678C236.937 312.475 234.313 315.04 231.463 317.338C230.498 318.087 229.412 318.665 228.251 319.045C226.5 319.652 224.649 319.917 222.798 319.828C220.901 319.72 219.243 319.114 217.917 317.675C216.804 316.428 215.801 315.087 214.921 313.666C213.958 312.167 213.825 310.528 214.078 308.839C214.308 307.297 214.854 305.82 215.68 304.498C215.721 304.433 215.749 304.36 215.804 304.251C215.676 304.201 215.546 304.159 215.414 304.125C212.264 303.52 209.358 302.011 207.051 299.782C205.944 298.784 205.21 297.439 204.969 295.968C204.809 294.694 204.941 293.401 205.355 292.185C205.804 290.677 206.394 289.214 207.116 287.816C208.445 285.272 209.82 282.753 211.151 280.211C213.268 276.172 215.397 272.138 217.461 268.071C219.525 264.004 221.829 260.064 223.995 256.051C225.619 253.045 227.218 250.018 228.331 246.768C228.469 246.367 228.575 245.954 228.695 245.546L228.579 245.491C228.464 245.639 228.339 245.784 228.235 245.94C227.018 247.706 225.926 249.554 224.968 251.472C224.457 252.533 223.934 253.588 223.409 254.642C223.313 254.836 223.2 255.021 223.072 255.196C222.984 255.339 222.851 255.449 222.694 255.51C222.538 255.57 222.365 255.578 222.204 255.531C222.053 255.48 221.924 255.379 221.838 255.245C221.752 255.111 221.714 254.951 221.731 254.793C221.71 254.324 221.726 253.853 221.726 253.384L221.607 253.347C221.476 253.577 221.344 253.807 221.214 254.039C220.315 255.7 219.238 257.259 218.002 258.687C216.315 260.551 214.085 261.838 211.628 262.366C206.349 263.641 201.017 259.853 199.908 255.05C199.585 253.486 199.507 251.881 199.676 250.294C199.888 248.103 200.3 245.936 200.909 243.82C201.668 240.993 202.315 238.133 203.183 235.34C203.981 232.774 205.001 230.276 205.942 227.755C206.086 227.367 206.284 227.001 206.529 226.667C207.17 225.798 208.087 225.872 208.608 226.813C209.038 227.576 209.151 228.477 208.921 229.323C208.573 230.614 208.093 231.866 207.488 233.059C206.173 235.763 204.891 238.486 203.542 241.171C202.517 243.298 201.807 245.563 201.435 247.895C201.135 249.501 201.01 251.135 201.062 252.768C201.188 256.048 202.69 258.479 205.549 260.092C208.578 261.803 211.515 261.318 214.417 259.765C214.466 259.731 214.511 259.693 214.552 259.65C214.442 259.373 214.308 259.202 213.974 259.318C213.063 259.593 212.094 259.607 211.176 259.357C208.12 258.718 205.28 257.3 202.932 255.24C202.439 254.789 202.003 254.28 201.631 253.725C201.388 253.39 201.24 252.995 201.204 252.582C201.168 252.169 201.246 251.754 201.428 251.382C202.744 248.126 204.72 245.177 207.233 242.723C208.425 241.544 209.827 240.598 211.368 239.935C212.504 239.418 213.768 239.248 215 239.445C216.832 239.784 217.977 240.963 218.638 242.643C219.232 244.257 219.42 245.992 219.187 247.696C218.801 251.284 217.475 254.538 215.61 257.595C215.215 258.242 215.209 258.239 215.9 258.817C216.451 258.219 217.025 257.634 217.555 257.008C218.499 255.848 219.32 254.592 220.003 253.262C223.182 247.38 226.192 241.414 228.974 235.334C230.408 232.198 231.413 228.911 232.426 225.621C233.304 222.868 233.916 220.037 234.256 217.167C234.547 215.025 234.175 212.846 233.193 210.921C232.069 208.803 230.189 207.63 227.9 207.129C226.734 206.874 225.529 206.792 224.341 206.64C223.717 206.56 223.09 206.508 222.466 206.429C220.382 206.167 218.599 206.857 216.992 208.131C215.883 209.045 214.874 210.074 213.983 211.201C211.216 214.655 208.634 218.254 206.248 221.981C203.631 225.91 201.256 229.994 199.135 234.211C198.83 234.827 198.563 235.462 198.286 236.092C198.196 236.298 198.049 236.474 197.863 236.601C197.677 236.727 197.459 236.799 197.235 236.808C197.045 236.807 196.86 236.746 196.708 236.633C196.555 236.52 196.442 236.362 196.386 236.18C196.168 235.614 196.001 235.029 195.886 234.433C195.827 234.044 195.887 233.646 196.059 233.292C198.012 229.622 199.233 225.675 200.372 221.709C201.314 218.423 202.079 215.089 202.919 211.775C203.748 208.499 204.506 205.203 205.423 201.952C205.952 200.162 206.601 198.41 207.366 196.708C209.141 192.636 210.994 188.599 212.818 184.549C213.447 183.152 214.086 181.758 214.718 180.361C215.815 177.898 216.59 175.304 217.024 172.644C217.274 171.265 217.303 169.856 217.108 168.469C217.106 168.305 217.047 168.146 216.941 168.021C216.835 167.895 216.689 167.81 216.527 167.781C213.741 167.02 210.961 166.238 208.179 165.462C207.687 165.325 207.197 165.179 206.705 165.042C206.397 164.941 206.07 164.911 205.748 164.955C205.427 164.998 205.119 165.114 204.849 165.293C203.456 166.222 202.204 167.346 201.131 168.63C198.606 171.621 196.245 174.747 194.058 177.993C192.094 180.843 190.066 183.648 188.075 186.479C186.955 188.071 185.857 189.679 184.743 191.276C184.349 191.84 183.943 192.395 183.529 192.944C183.483 192.987 183.447 193.04 183.423 193.098C183.399 193.156 183.388 193.219 183.391 193.281C183.393 193.344 183.41 193.406 183.438 193.462C183.467 193.518 183.507 193.567 183.556 193.606C185.607 195.828 186.814 198.502 187.606 201.376C188.508 204.663 188.842 208.08 188.594 211.48C188.429 214.488 187.776 217.45 186.659 220.248C186.256 221.208 185.791 222.141 185.267 223.042C183.919 225.396 182.52 227.721 181.157 230.066C179.862 232.292 178.592 234.533 177.297 236.76C177.032 237.177 176.923 237.673 176.988 238.163C177.138 239.252 177.272 240.344 177.39 241.438C177.434 241.928 177.454 242.419 177.449 242.911C177.459 245.133 177.531 247.358 177.449 249.577C177.364 251.814 177.163 254.05 176.939 256.279C176.741 258.251 176.485 260.218 176.172 262.18C175.908 263.847 175.526 265.495 175.219 267.157C175.162 267.441 175.177 267.735 175.264 268.011C175.666 269.039 176.233 269.994 176.943 270.838C176.977 270.903 177.025 270.961 177.082 271.007C177.14 271.053 177.206 271.087 177.277 271.106C177.348 271.126 177.422 271.131 177.495 271.121C177.568 271.111 177.639 271.087 177.702 271.049C178.013 270.885 178.348 270.762 178.65 270.583C179.992 269.755 181.474 269.182 183.023 268.891C185.231 268.514 187.5 268.833 189.518 269.804C191.633 270.829 193.507 272.288 195.019 274.087C197.967 277.446 199.952 281.361 201.534 285.5C203.1 289.701 204.258 294.043 204.991 298.467C205.531 301.545 205.907 304.651 206.116 307.77C206.372 311.262 206.44 314.766 206.319 318.265C206.198 321.136 206.016 323.999 205.681 326.851C205.185 331.207 204.357 335.518 203.202 339.747C203.018 340.412 202.719 340.629 202.113 340.581C202.014 340.586 201.915 340.57 201.822 340.533C201.73 340.496 201.647 340.44 201.578 340.368C201.509 340.296 201.457 340.21 201.425 340.116C201.392 340.022 201.38 339.922 201.39 339.823C201.408 339.549 201.443 339.277 201.495 339.007C201.846 336.418 202.25 333.833 202.531 331.236C202.78 328.931 202.965 326.614 203.048 324.296C203.156 321.191 203.194 318.085 203.161 314.976C203.103 311.436 202.834 307.903 202.356 304.395C201.803 299.867 200.851 295.397 199.511 291.037C198.389 287.263 196.768 283.657 194.69 280.313C193.241 277.939 191.35 275.865 189.119 274.203C187.419 272.908 185.399 272.099 183.275 271.862C181.15 271.626 179.002 271.971 177.058 272.861C176.482 273.112 175.893 273.331 175.293 273.517C174.101 273.886 173.108 273.169 172.955 271.819C172.904 271.389 172.919 270.954 173 270.529C173.475 268.16 174.004 265.804 174.468 263.431C174.75 261.986 175 260.53 175.169 259.068C175.453 256.649 175.676 254.222 175.893 251.796C175.997 250.621 176.059 249.441 176.085 248.262C176.11 247.142 176.062 246.021 176.048 244.9C176.041 244.29 176.015 243.68 176.038 243.071C176.06 241.596 175.949 240.122 175.708 238.667C175.628 238.242 175.591 237.81 175.598 237.377C175.616 236.987 175.719 236.606 175.9 236.26C177.256 233.888 178.651 231.538 180.02 229.172C181.201 227.13 182.301 225.038 183.557 223.044C184.531 221.544 185.313 219.927 185.883 218.231C187.018 214.66 187.447 210.903 187.145 207.168C186.977 204.496 186.399 201.865 185.431 199.369C184.731 197.481 183.648 195.759 182.249 194.311C181.449 193.464 180.455 192.823 179.352 192.444C179.151 192.38 178.943 192.336 178.68 192.267C178.726 192.83 178.778 193.332 178.806 193.835C178.876 195.091 178.983 196.346 178.984 197.601C178.984 199.041 178.699 200.466 178.146 201.796C177.688 202.974 176.947 204.021 175.989 204.846C173.164 207.228 170.425 209.719 167.362 211.805C167.234 211.895 167.119 212.002 167.021 212.123C165.386 214.114 163.804 216.15 162.111 218.09C159.648 220.928 157.389 223.935 155.349 227.09C154.758 227.995 154.189 228.915 153.663 229.859C152.874 231.274 152.629 232.855 152.342 234.423C151.665 238.115 150.961 241.8 150.268 245.488C149.512 249.505 148.7 253.512 148.024 257.542C147.648 259.786 147.465 262.066 147.257 264.335C147.066 266.41 146.951 268.492 146.819 270.572C146.753 271.612 146.734 272.655 146.674 273.696C146.488 276.895 146.296 280.095 146.098 283.294C145.978 285.217 145.858 287.141 145.711 289.062C145.239 295.186 145.21 301.324 145.134 307.459C145.11 309.421 145.285 311.387 145.411 313.348C145.514 314.957 145.693 316.56 145.817 318.167C146.066 321.205 146.551 324.218 147.269 327.18C148.374 331.824 149.508 336.463 150.707 341.084C151.139 342.752 151.784 344.366 152.348 346C152.846 347.45 153.165 348.955 153.299 350.482C153.455 352.203 153.713 353.915 153.926 355.632C154.184 357.719 154.439 359.806 154.693 361.894C154.947 363.981 155.201 366.069 155.455 368.157C155.712 370.264 155.969 372.371 156.228 374.477C156.488 376.603 156.748 378.73 157.008 380.856C157.261 382.923 157.512 384.991 157.763 387.061C158.063 389.519 158.364 391.977 158.666 394.436C158.954 396.796 159.242 399.157 159.529 401.518C159.791 403.664 160.054 405.81 160.317 407.956C160.57 410.044 160.818 412.133 161.072 414.22C161.331 416.327 161.593 418.433 161.85 420.54C162.105 422.628 162.353 424.716 162.607 426.803C162.864 428.91 163.122 431.017 163.383 433.123C163.635 435.191 163.887 437.259 164.138 439.327C164.398 441.453 164.659 443.579 164.921 445.705C165.173 447.772 165.423 449.841 165.672 451.91C165.931 454.036 166.191 456.163 166.453 458.289C166.707 460.376 166.96 462.464 167.211 464.552C167.462 466.619 167.715 468.687 167.97 470.756C168.229 472.882 168.487 475.009 168.745 477.136C169.038 479.535 169.332 481.935 169.628 484.335C169.798 485.72 169.976 487.103 170.137 488.49C170.208 489.104 169.973 489.484 169.534 489.535C169.094 489.585 168.78 489.268 168.705 488.657C168.419 486.336 168.145 484.013 167.861 481.691C167.566 479.272 167.261 476.855 166.966 474.435C166.671 472.014 166.386 469.595 166.091 467.176C165.799 464.777 165.5 462.377 165.205 459.977C164.947 457.87 164.693 455.763 164.44 453.656C164.189 451.588 163.937 449.521 163.684 447.454C163.426 445.347 163.168 443.24 162.908 441.133C162.649 439.026 162.391 436.919 162.133 434.813C161.878 432.725 161.625 430.637 161.374 428.549C161.079 426.13 160.783 423.711 160.486 421.292C160.229 419.184 159.974 417.077 159.72 414.969C159.468 412.902 159.215 410.834 158.962 408.765C158.706 406.677 158.45 404.589 158.193 402.502C157.894 400.063 157.597 397.624 157.3 395.186C157.044 393.078 156.788 390.971 156.534 388.864C156.279 386.776 156.024 384.689 155.767 382.602C155.508 380.475 155.25 378.348 154.994 376.221C154.704 373.841 154.413 371.461 154.12 369.081C153.862 366.974 153.605 364.867 153.348 362.76C153.091 360.653 152.833 358.546 152.573 356.439C152.369 354.781 152.177 353.122 151.96 351.465C151.751 349.474 151.313 347.513 150.657 345.621C149.605 342.699 148.745 339.712 148.082 336.678C147.291 333.272 146.42 329.886 145.642 326.475C145.008 323.716 144.579 320.913 144.358 318.09C144.146 315.326 143.858 312.567 143.719 309.799C143.619 307.818 143.693 305.827 143.723 303.841C143.762 301.304 143.8 298.766 143.902 296.231C144.013 293.499 144.187 290.773 144.35 288.045C144.461 286.199 144.621 284.358 144.726 282.513C144.943 278.685 145.115 274.854 145.351 271.027C145.548 267.827 145.782 264.631 146.052 261.439C146.345 258.544 146.788 255.667 147.379 252.818C148.189 248.573 149.041 244.335 149.856 240.089C150.322 237.658 150.764 235.221 151.181 232.78C151.501 230.994 152.179 229.291 153.175 227.774C155.757 223.657 158.681 219.764 161.916 216.137C162.958 214.986 163.936 213.777 164.952 212.601C165.533 211.96 165.988 211.216 166.294 210.407C167.259 207.708 168.788 205.288 170.146 202.784C171.448 200.383 172.79 198.001 174.081 195.594C174.898 194.045 175.872 192.584 176.989 191.235C177.114 191.071 177.277 190.941 177.464 190.856C177.651 190.77 177.857 190.733 178.062 190.747C179.226 190.812 180.354 191.175 181.338 191.799C181.607 191.958 181.868 192.131 182.187 192.334C182.512 191.908 182.846 191.502 183.145 191.072C184.155 189.619 185.138 188.148 186.158 186.701C188.366 183.566 190.582 180.435 192.806 177.31C194.451 175.006 196.095 172.699 197.798 170.439C198.694 169.266 199.653 168.144 200.67 167.075C201.403 166.281 202.209 165.556 203.078 164.912C204.957 163.603 207.137 162.792 209.415 162.555C211.354 162.306 213.326 162.551 215.146 163.266C216.552 163.766 217.721 164.77 218.427 166.085C218.58 166.304 218.67 166.562 218.687 166.829C218.703 167.096 218.645 167.362 218.52 167.599C218.469 167.723 218.456 167.86 218.483 167.991C218.757 170.279 218.609 172.597 218.047 174.831C217.311 177.748 216.286 180.584 214.985 183.296C214.055 185.334 213.172 187.394 212.253 189.436C211.382 191.372 210.522 193.312 209.602 195.226C207.998 198.556 206.757 202.05 205.902 205.646C204.632 210.978 203.297 216.294 201.896 221.594C201.069 224.792 199.987 227.919 198.66 230.945C198.309 231.734 197.893 232.495 197.526 233.278C197.304 233.753 197.027 234.233 197.327 234.833C197.383 234.757 197.434 234.677 197.479 234.595C199.545 230.109 201.97 225.798 204.729 221.702C206.962 218.348 209.313 215.071 211.675 211.805C212.848 210.125 214.231 208.601 215.79 207.271C216.998 206.274 218.303 205.438 219.866 205.109C221.012 204.913 222.182 204.9 223.333 205.069C224.642 205.208 225.954 205.349 227.256 205.53C229.06 205.765 230.769 206.474 232.209 207.586C234.156 209.09 235.107 211.139 235.553 213.499C235.938 215.531 235.69 217.526 235.371 219.534C234.781 223.26 233.56 226.811 232.418 230.386C231.177 234.276 229.399 237.937 227.599 241.587C226.164 244.495 224.683 247.38 223.219 250.275C222.982 250.744 222.956 251.118 223.145 252.042C223.371 251.605 223.565 251.256 223.733 250.895C224.69 248.845 225.827 246.883 227.129 245.032C228.483 243.023 230.098 241.203 231.931 239.619C234.195 237.684 237.048 236.575 240.024 236.473C241.621 236.425 243.212 236.699 244.7 237.28C246.232 237.856 247.749 238.482 249.026 239.526C251.181 241.228 252.608 243.687 253.016 246.403C253.289 248.474 253.149 250.579 252.604 252.596C251.665 256.314 250.356 259.929 248.697 263.387C248.384 264.063 248.059 264.733 247.694 265.502C248.103 265.424 248.424 265.372 248.739 265.301C250.759 264.813 252.874 264.894 254.85 265.537C257.299 266.368 259.36 268.064 260.646 270.308C261.921 272.441 262.771 274.801 263.148 277.258C263.534 279.986 263.626 282.748 263.423 285.495C263.414 285.966 263.468 286.436 263.582 286.893C264.055 288.887 264.187 290.947 263.972 292.985C263.843 293.937 263.623 294.875 263.315 295.785C262.794 297.392 262.137 298.954 261.631 300.565C260.343 304.631 259.314 308.774 258.549 312.969C258.137 315.271 257.691 317.573 256.775 319.742C256.132 321.263 255.438 322.761 254.766 324.269C252.806 328.667 250.865 333.074 248.879 337.46C246.121 343.551 243.795 349.818 241.479 356.083C239.934 360.265 238.544 364.506 237.167 368.748C236.687 370.327 236.307 371.935 236.029 373.562C235.663 375.64 235.721 377.772 236.201 379.827C236.948 383.283 237.721 386.734 238.492 390.186C239.588 395.096 240.658 400.01 241.799 404.908C243.779 413.404 245.784 421.894 247.814 430.378C248.824 434.621 249.819 438.869 250.919 443.089C251.9 446.853 253.051 450.572 254.062 454.328C255.338 459.071 256.516 463.841 257.794 468.583C259.37 474.426 261.006 480.253 262.616 486.086C262.778 486.672 262.948 487.255 263.12 487.838C263.192 488.023 263.191 488.229 263.117 488.413C263.043 488.598 262.901 488.747 262.721 488.831C262.63 488.87 262.532 488.888 262.433 488.886C262.335 488.883 262.238 488.859 262.149 488.815C262.061 488.772 261.983 488.709 261.921 488.632C261.859 488.555 261.814 488.466 261.79 488.37C261.638 487.967 261.509 487.556 261.401 487.139C260.786 484.924 260.17 482.709 259.567 480.491C257.899 474.348 256.182 468.217 254.586 462.055C252.888 455.493 251.038 448.972 249.257 442.432C248.478 439.574 247.872 436.668 247.18 433.785C245.396 426.353 243.585 418.928 241.831 411.489C240.699 406.69 239.65 401.87 238.56 397.061C237.563 392.673 236.537 388.293 235.576 383.897C235.195 382.153 234.944 380.38 234.661 378.615C234.654 378.479 234.608 378.347 234.527 378.237C234.447 378.127 234.335 378.043 234.207 377.996C233.272 377.642 232.346 377.258 231.393 376.956C229.568 376.381 227.669 376.163 225.782 375.886C222.152 375.352 218.496 375.286 214.837 375.245C213.617 375.286 212.397 375.188 211.199 374.952C210.95 374.898 210.707 374.817 210.475 374.712C209.585 374.283 209.344 373.391 209.95 372.608C210.236 372.26 210.579 371.963 210.963 371.728C211.876 371.181 212.869 370.783 213.907 370.546C217.523 369.569 221.291 369.278 225.015 369.69C226.496 369.854 227.972 370.106 229.431 370.41C231.353 370.743 233.157 371.564 234.671 372.794ZM222.611 298.645C222.478 298.847 222.362 299.06 222.265 299.281C222.186 299.483 222.068 299.667 221.916 299.821C221.764 299.976 221.583 300.098 221.383 300.181C220.878 300.413 220.31 300.469 219.769 300.341C216.076 299.711 212.925 297.975 210.127 295.551C209.728 295.175 209.39 294.739 209.126 294.259C208.99 294.05 208.926 293.802 208.942 293.553C208.957 293.304 209.052 293.067 209.212 292.875C209.31 292.728 209.394 292.572 209.461 292.409C210.429 290.411 211.362 288.396 212.375 286.42C213.158 284.831 214.122 283.338 215.248 281.969C216.016 280.995 216.938 280.151 217.976 279.471C219.548 278.537 221.403 278.195 223.206 278.508C225.036 278.772 226.49 279.668 227.308 281.409C227.789 282.514 227.968 283.728 227.825 284.924C227.679 286.213 227.421 287.487 227.055 288.731C226.714 290.126 226.218 291.478 225.578 292.763C224.985 293.916 224.415 295.08 223.843 296.244C223.741 296.411 223.685 296.602 223.681 296.798C223.703 297.26 223.832 297.711 224.058 298.114C224.284 298.518 224.601 298.864 224.983 299.124C225.144 298.944 225.299 298.767 225.457 298.593C227.67 296.161 229.662 293.538 231.412 290.754C234.421 285.959 237.327 281.099 240.23 276.239C242.68 272.137 244.955 267.938 247.004 263.618C248.768 259.9 250.314 256.103 251.249 252.08C251.689 250.189 251.931 248.293 251.548 246.358C251.309 244.967 250.754 243.649 249.925 242.506C249.097 241.363 248.016 240.425 246.768 239.766C245.615 239.127 244.389 238.628 243.118 238.279C240.644 237.607 238.013 237.837 235.693 238.927C233.629 239.85 231.967 241.321 230.509 243.033C230.224 243.368 229.914 243.66 230.198 244.154C230.259 244.26 230.219 244.424 230.224 244.562C230.268 245.609 229.929 246.578 229.587 247.541C228.445 250.598 227.058 253.558 225.44 256.392C222.776 261.252 220.052 266.078 217.558 271.031C215.667 274.787 213.658 278.484 211.703 282.208C210.47 284.557 209.188 286.882 208.033 289.269C207.444 290.532 206.961 291.843 206.589 293.186C205.92 295.481 206.504 297.471 208.345 299.026C209.09 299.666 209.881 300.252 210.71 300.779C213.073 302.26 215.823 303.007 218.611 302.924C220.862 302.879 222.37 301.564 223.854 300.17L222.611 298.645ZM222.136 318.313C224.116 318.54 226.122 318.302 227.995 317.617C228.851 317.324 229.657 316.899 230.383 316.359C232.489 314.739 234.439 312.926 236.207 310.943C238.139 308.821 240.003 306.637 241.897 304.481C245.453 300.434 249.009 296.387 252.566 292.342C254.009 290.704 255.464 289.077 256.917 287.449C258.143 286.076 259.742 285.09 261.52 284.61C262.025 284.468 262.05 284.485 262.043 283.951C262.025 282.457 262.016 280.961 261.951 279.47C261.798 276.552 260.959 273.711 259.501 271.179C258.541 269.442 257.051 268.057 255.248 267.227C252.696 266.027 250.091 266.23 247.473 266.961C247.267 267.02 247.076 267.123 246.914 267.264C246.751 267.404 246.621 267.578 246.532 267.773C245.397 269.929 244.286 272.102 243.054 274.203C240.201 279.069 237.295 283.904 234.389 288.738C232.101 292.597 229.453 296.23 226.479 299.588C226.398 299.69 226.324 299.796 226.257 299.907C226.315 299.926 226.334 299.94 226.351 299.937C226.467 299.917 226.582 299.889 226.698 299.873C227.888 299.706 228.975 299.91 229.853 300.796C230.426 301.373 230.804 302.116 230.932 302.919C231.216 304.733 231.073 306.588 230.517 308.337C229.429 311.985 227.279 314.896 224.35 317.271C223.731 317.83 222.961 318.193 222.136 318.313ZM215.601 283.851C215.411 284.131 215.263 284.337 215.129 284.55C213.425 287.262 211.92 290.094 210.625 293.024C210.34 293.664 210.352 293.742 210.842 294.262C210.921 294.35 211.005 294.433 211.094 294.511C213.239 296.337 215.586 297.818 218.306 298.63C218.952 298.795 219.606 298.924 220.266 299.016C220.41 299.052 220.562 299.033 220.692 298.963C220.823 298.893 220.922 298.777 220.972 298.637C221.302 297.968 221.671 297.318 222.016 296.657C222.086 296.538 222.132 296.407 222.15 296.271C222.257 294.825 222.024 293.485 220.92 292.426C220.168 291.705 219.434 290.965 218.659 290.269C217.318 289.096 216.386 287.525 215.998 285.785C215.858 285.173 215.745 284.556 215.603 283.851L215.601 283.851ZM213.252 258.023C213.126 257.836 213.024 257.696 212.935 257.549C212.58 256.961 212.188 256.391 211.883 255.777C211.04 254.014 210.607 252.083 210.618 250.129C210.595 248.635 210.658 247.139 210.674 245.645C210.735 244.839 210.629 244.029 210.363 243.266C210.101 242.638 209.682 242.528 209.164 242.951C208.721 243.311 208.294 243.69 207.888 244.09C205.698 246.245 204.14 248.826 202.86 251.595C202.695 251.887 202.633 252.226 202.682 252.558C202.732 252.889 202.89 253.195 203.133 253.427C203.228 253.526 203.318 253.632 203.416 253.728C205.619 255.831 208.36 257.285 211.336 257.931C211.964 258.082 212.614 258.113 213.253 258.023H213.252ZM222.685 316.754C222.553 316.456 222.481 316.297 222.413 316.137C221.984 315.119 221.838 314.005 221.991 312.911C222.238 311.136 222.83 309.427 223.732 307.879C224.566 306.365 225.42 304.862 226.247 303.345C226.423 303.039 226.546 302.706 226.612 302.36C226.649 302.245 226.649 302.121 226.612 302.006C226.575 301.891 226.503 301.79 226.406 301.718C226.309 301.646 226.192 301.606 226.071 301.604C225.95 301.603 225.831 301.639 225.732 301.708C225.185 301.974 224.671 302.304 224.201 302.69C223.193 303.563 222.205 304.465 221.266 305.412C219.37 307.407 217.621 309.536 216.033 311.784C215.935 311.88 215.873 312.007 215.854 312.142C215.836 312.278 215.863 312.416 215.932 312.535C217.227 314.898 219.099 316.455 221.845 316.795C222.126 316.803 222.406 316.79 222.685 316.754ZM234.235 376.451C234.621 374.681 233.801 373.741 232.659 373.103C232.316 372.911 231.963 372.739 231.6 372.588C229.674 371.842 227.653 371.368 225.596 371.178C223.624 370.935 221.633 370.887 219.652 371.036C217.376 371.187 215.129 371.633 212.968 372.365C212.459 372.57 211.965 372.812 211.492 373.089C211.374 373.151 211.298 373.291 211.148 373.455C211.366 373.521 211.588 373.572 211.813 373.609C212.809 373.688 213.81 373.808 214.809 373.814C218.448 373.835 222.086 373.888 225.691 374.442C227.474 374.716 229.248 375.052 231.012 375.451C232.094 375.694 233.139 376.105 234.235 376.451ZM183.277 270.39C183.933 270.512 184.602 270.587 185.241 270.766C187.043 271.274 188.734 272.116 190.225 273.249C192.145 274.727 193.819 276.5 195.182 278.504C197.602 281.969 199.291 285.787 200.604 289.782C202.985 297.022 204.099 304.49 204.475 312.075C204.622 315.058 204.576 318.051 204.616 321.039C204.621 321.431 204.616 321.823 204.616 322.215C204.751 320.769 204.855 319.321 204.892 317.872C205.031 312.996 204.811 308.116 204.235 303.272C203.784 299.426 203.059 295.618 202.066 291.876C201.057 287.951 199.597 284.156 197.717 280.567C196.415 278.024 194.71 275.708 192.667 273.711C190.874 272.022 188.852 270.745 186.379 270.316C185.35 270.128 184.294 270.153 183.276 270.391L183.277 270.39ZM215.371 310.143L220.296 304.204C219.514 304.26 218.683 304.341 217.849 304.367C217.703 304.358 217.558 304.389 217.429 304.459C217.3 304.528 217.193 304.632 217.121 304.759C216.799 305.25 216.509 305.761 216.253 306.289C215.69 307.497 215.39 308.811 215.371 310.143ZM208.541 164.159L216.823 166.311C216.555 165.801 216.142 165.382 215.636 165.107C213.443 163.895 211.116 163.645 208.541 164.159ZM173.488 199.742C174.687 198.346 175.972 197.027 177.336 195.792C177.385 195.747 177.425 195.693 177.453 195.633C177.481 195.573 177.496 195.508 177.499 195.442C177.444 194.674 177.364 193.909 177.277 193C175.662 195.167 174.748 197.549 173.488 199.742ZM207.561 227.975L207.416 227.952C206.352 230.41 205.432 232.929 204.663 235.496C205.421 234.01 206.159 232.516 206.829 230.992C207.121 230.266 207.362 229.52 207.551 228.76C207.589 228.5 207.592 228.236 207.561 227.975ZM174.63 270.075C174.355 270.611 174.28 271.228 174.418 271.814C174.506 272.157 174.643 272.22 174.972 272.107C175.241 272.013 175.499 271.89 175.797 271.766L174.63 270.075Z" fill="white" fill-opacity="0.75"/>
<path d="M89.3405 195.134C89.6103 174.092 95.9319 155.615 108.947 139.551C117.224 129.332 127.765 121.179 139.736 115.735C147.27 112.272 155.257 109.893 163.458 108.669C169.582 107.728 175.792 107.465 181.973 107.886C201.926 109.264 219.579 116.381 234.934 129.236C251.736 143.372 262.86 163.106 266.255 184.8C266.757 188.145 267.088 191.514 267.248 194.893C267.314 195.563 267.17 196.236 266.835 196.82C266.37 197.573 265.547 197.535 265.174 196.729C264.876 196.086 264.692 195.388 264.387 194.748C260.643 186.85 255.764 179.541 249.904 173.054C243.703 166.145 236.354 160.361 228.181 155.959C220.994 152.083 213.203 149.454 205.138 148.183C190.319 145.845 175.143 148.475 161.974 155.662C150.789 161.753 141.866 170.289 134.907 180.91C129.108 189.81 124.997 199.703 122.781 210.092C118.874 228.134 120.229 246.918 126.683 264.213C126.83 264.538 126.95 264.873 127.042 265.217C127.113 265.563 127.122 265.919 127.067 266.269C127.051 266.391 127.006 266.509 126.937 266.612C126.868 266.715 126.776 266.801 126.669 266.862C126.561 266.924 126.441 266.961 126.317 266.969C126.193 266.977 126.07 266.956 125.955 266.909C125.539 266.755 125.151 266.535 124.806 266.258C123.214 264.97 121.599 263.705 120.076 262.339C105.513 249.283 96.013 233.227 91.5761 214.172C90.4547 209.357 89.7781 204.45 89.5549 199.511C89.4855 197.909 89.3984 196.31 89.3405 195.134ZM265.379 192.778C265.379 192.159 265.407 191.813 265.375 191.473C265.065 187.971 264.568 184.488 263.886 181.039C260.491 164.539 253.051 150.132 241.564 137.816C233.629 129.275 224.087 122.381 213.486 117.529C199.715 111.158 184.531 108.455 169.408 109.681C164.792 110.05 160.214 110.793 155.718 111.903C141.197 115.517 128.442 122.404 117.572 132.695C107.011 142.638 99.2152 155.156 94.9507 169.021C92.3803 177.233 91.0694 185.787 91.0626 194.393C91.0574 196.128 91.1593 197.863 91.2295 199.598C91.4414 204.492 92.1213 209.356 93.2599 214.121C97.9113 233.857 108.079 250.193 123.623 263.196C123.889 263.418 124.188 263.602 124.53 263.848C124.73 263.195 124.387 262.729 124.224 262.255C121.277 253.652 119.54 244.682 119.063 235.601C118.683 228.748 119.042 221.875 120.133 215.099C121.299 207.75 123.349 200.569 126.238 193.712C131.313 181.759 138.581 171.377 148.499 162.935C158.845 154.132 170.697 148.549 184.163 146.487C190.421 145.533 196.78 145.444 203.062 146.221C210.01 147.066 216.798 148.919 223.212 151.721C235.804 157.203 246.197 165.533 254.759 176.208C258.561 180.984 261.882 186.124 264.675 191.552C264.851 191.892 265.057 192.22 265.379 192.778Z" fill="white" fill-opacity="0.75"/>
<path d="M121.315 119.36C121.144 119.306 120.982 119.225 120.835 119.12C120.541 118.849 120.265 118.559 120.008 118.252C109.445 106.144 98.8828 94.0341 88.322 81.9235C81.2995 73.8737 74.2744 65.826 67.2467 57.7801C63.0902 53.0184 58.9358 48.2548 54.7837 43.4894C54.6015 43.2951 54.4357 43.086 54.2879 42.8644C54.183 42.6921 54.1463 42.4867 54.1849 42.2887C54.2234 42.0907 54.3346 41.9142 54.4965 41.7938C54.6361 41.6789 54.8129 41.6192 54.9936 41.626C55.1742 41.6328 55.3461 41.7057 55.4766 41.8307C55.6741 42.0094 55.8576 42.2029 56.0256 42.4096C68.6695 56.8968 81.3126 71.3846 93.9551 85.8728C103.086 96.3369 112.215 106.803 121.342 117.27C121.642 117.597 121.902 117.958 122.118 118.346C122.363 118.815 121.957 119.379 121.315 119.36Z" fill="white" fill-opacity="0.75"/>
<path d="M224.109 7.00368C224.035 7.27686 223.931 7.70804 223.804 8.13295C222.092 13.8882 220.378 19.6434 218.663 25.3984C212.594 45.7726 206.525 66.1473 200.456 86.5225C198.881 91.8082 197.307 97.0939 195.734 102.38C195.642 102.723 195.526 103.059 195.387 103.387C195.313 103.55 195.185 103.684 195.025 103.766C194.865 103.848 194.682 103.873 194.506 103.837C194.308 103.793 194.134 103.677 194.017 103.512C193.9 103.347 193.848 103.145 193.871 102.944C193.937 102.594 194.027 102.25 194.141 101.913C197.099 91.9813 200.059 82.0497 203.019 72.1184C209.255 51.1895 215.49 30.2604 221.725 9.33126C221.941 8.60659 222.158 7.88266 222.382 7.1602C222.453 6.90346 222.544 6.65294 222.656 6.41117C222.731 6.22303 222.877 6.07169 223.062 5.98953C223.247 5.90736 223.457 5.90089 223.647 5.97149C223.972 6.09295 224.137 6.39345 224.109 7.00368Z" fill="white" fill-opacity="0.75"/>
<path d="M276.817 28.5711C276.776 28.8079 276.713 29.0404 276.63 29.2659C276.466 29.582 276.286 29.8893 276.09 30.1865C260.964 54.3887 245.837 78.5906 230.71 102.792C228.562 106.228 226.412 109.662 224.26 113.095C224.05 113.433 223.806 113.748 223.532 114.037C223.436 114.132 223.311 114.194 223.177 114.212C223.042 114.23 222.906 114.204 222.788 114.137C222.638 114.084 222.512 113.98 222.433 113.843C222.353 113.705 222.324 113.544 222.351 113.388C222.429 113.045 222.565 112.717 222.753 112.42C223.824 110.674 224.912 108.939 225.998 107.202C242.235 81.2263 258.474 55.2518 274.715 29.2784C274.961 28.8584 275.257 28.4691 275.595 28.1185C275.7 28.048 275.821 28.0029 275.947 27.9865C276.073 27.9702 276.201 27.9831 276.322 28.0243C276.529 28.1037 276.659 28.3854 276.817 28.5711Z" fill="white" fill-opacity="0.75"/>
<path d="M168.387 52.4826C168.315 58.0418 168.224 65.3409 168.125 72.639C168.047 78.424 167.963 84.2093 167.873 89.9949C167.824 93.2878 167.768 96.5808 167.705 99.8737C167.707 100.228 167.67 100.582 167.594 100.928C167.557 101.081 167.47 101.218 167.346 101.317C167.223 101.415 167.07 101.469 166.912 101.47C166.732 101.483 166.554 101.431 166.409 101.324C166.265 101.217 166.164 101.061 166.124 100.885C166.063 100.445 166.04 100 166.055 99.5562C166.119 95.3732 166.199 91.1902 166.26 87.0069C166.311 83.4463 166.333 79.8853 166.383 76.3247C166.474 69.5601 166.57 62.7954 166.67 56.0306C166.749 50.5566 166.829 45.0827 166.909 39.6087C167.008 32.9332 167.105 26.2575 167.202 19.5815C167.287 13.7516 167.373 7.92155 167.46 2.0912C167.465 1.60292 167.509 1.1158 167.591 0.634479C167.615 0.455392 167.705 0.291565 167.842 0.174444C167.98 0.0573222 168.156 -0.00484139 168.337 -0.000115235C168.516 0.0116934 168.686 0.0857342 168.817 0.209287C168.949 0.33284 169.032 0.498191 169.055 0.676933C169.097 0.98541 169.113 1.29682 169.103 1.60797C169.024 7.26037 168.943 12.9124 168.86 18.5641C168.804 22.8368 168.778 27.1102 168.718 31.383C168.626 37.8367 168.516 44.2897 168.387 52.4826Z" fill="white" fill-opacity="0.75"/>
<path d="M142.534 107.493C142.405 107.402 142.128 107.297 142 107.097C141.775 106.714 141.586 106.311 141.434 105.894C138.655 99.0031 135.879 92.112 133.105 85.2209C124.257 63.2709 115.409 41.3209 106.559 19.3711C106.042 18.0924 105.522 16.8154 105.019 15.5318C104.878 15.2065 104.784 14.863 104.738 14.5115C104.731 14.3553 104.774 14.201 104.861 14.0708C104.948 13.9407 105.073 13.8414 105.22 13.7873C105.367 13.7332 105.527 13.7271 105.677 13.7698C105.828 13.8125 105.961 13.9018 106.057 14.0249C106.293 14.3996 106.492 14.7963 106.652 15.2095C108.571 19.9518 110.485 24.6963 112.393 29.4431C120.676 49.99 128.96 70.5373 137.243 91.0847C139.156 95.8295 141.068 100.575 142.979 105.32C143.155 105.728 143.291 106.151 143.385 106.584C143.404 106.703 143.395 106.824 143.36 106.939C143.325 107.054 143.264 107.159 143.182 107.246C143.099 107.334 142.999 107.402 142.886 107.445C142.774 107.487 142.654 107.504 142.534 107.493Z" fill="white" fill-opacity="0.75"/>
<path d="M323.167 68.7417C323.116 68.9166 323.043 69.084 322.948 69.2398C322.804 69.4086 322.639 69.5581 322.456 69.6846C311.402 78.5938 300.347 87.5036 289.292 96.414C275.258 107.727 261.224 119.04 247.191 130.355C246.923 130.588 246.641 130.806 246.347 131.005C246.178 131.116 245.973 131.161 245.773 131.13C245.572 131.099 245.391 130.995 245.263 130.838C245.147 130.673 245.092 130.473 245.11 130.272C245.127 130.071 245.214 129.883 245.357 129.74C245.547 129.552 245.749 129.378 245.963 129.219C253.655 123.017 261.347 116.815 269.039 110.613C283.73 98.7662 298.419 86.9189 313.108 75.0714C315.88 72.836 318.65 70.5998 321.42 68.3626C321.619 68.188 321.843 68.0444 322.085 67.9366C322.21 67.8977 322.343 67.889 322.473 67.9112C322.603 67.9334 322.725 67.9859 322.83 68.0644C322.936 68.1428 323.021 68.2451 323.08 68.3628C323.138 68.4805 323.168 68.6103 323.167 68.7417Z" fill="white" fill-opacity="0.75"/>
<path d="M104.623 136.816C104.196 136.602 103.832 136.444 103.493 136.244C101.726 135.207 99.9664 134.16 98.204 133.116C72.651 117.983 47.098 102.849 21.5451 87.7135C21.0778 87.4563 20.6306 87.164 20.2077 86.8389C20.0256 86.6511 19.9215 86.4013 19.9164 86.1397C19.9212 86.0281 19.9523 85.9193 20.0071 85.8219C20.0619 85.7246 20.1388 85.6415 20.2317 85.5795C20.3246 85.5174 20.4307 85.4781 20.5416 85.4648C20.6525 85.4514 20.765 85.4643 20.8699 85.5025C21.2822 85.6681 21.6789 85.8699 22.0553 86.1058C26.7314 88.8693 31.406 91.6365 36.0792 94.4072C58.6824 107.793 81.2851 121.181 103.887 134.57C104.35 134.831 104.783 135.142 105.179 135.496C105.256 135.597 105.307 135.716 105.327 135.842C105.348 135.968 105.337 136.097 105.296 136.218C105.182 136.457 104.876 136.605 104.623 136.816Z" fill="white" fill-opacity="0.75"/>
<path d="M272.249 183.762C272.11 183.758 271.973 183.744 271.836 183.721C271.681 183.693 271.539 183.617 271.429 183.504C271.319 183.391 271.248 183.247 271.224 183.091C271.186 182.937 271.202 182.775 271.271 182.632C271.34 182.49 271.457 182.376 271.601 182.311C271.886 182.189 272.184 182.105 272.49 182.059C276.041 181.443 279.592 180.832 283.144 180.225C288.627 179.287 294.109 178.351 299.591 177.417C305.643 176.386 311.696 175.355 317.749 174.326C323.188 173.398 328.625 172.468 334.062 171.535C339.588 170.592 345.114 169.652 350.641 168.714C355.071 167.959 359.501 167.202 363.931 166.444C364.414 166.362 364.897 166.283 365.381 166.213C365.555 166.181 365.733 166.174 365.909 166.194C366.077 166.206 366.236 166.275 366.36 166.389C366.485 166.502 366.567 166.654 366.595 166.82C366.623 166.986 366.595 167.157 366.515 167.305C366.434 167.453 366.307 167.569 366.152 167.637C365.777 167.775 365.389 167.877 364.995 167.942C359.118 168.947 353.241 169.948 347.363 170.944C342.406 171.787 337.45 172.632 332.494 173.478C326.442 174.509 320.39 175.541 314.338 176.574C308.374 177.593 302.41 178.614 296.446 179.638C290.482 180.657 284.517 181.673 278.552 182.687C276.71 183 274.868 183.315 273.026 183.63C272.761 183.676 272.498 183.72 272.249 183.762Z" fill="white" fill-opacity="0.75"/>
<path d="M262.296 156.864C262.053 156.679 261.836 156.462 261.652 156.218C261.578 156.076 261.56 155.912 261.602 155.758C261.644 155.604 261.743 155.471 261.879 155.387C262.213 155.168 262.567 154.98 262.936 154.826C268.387 152.404 273.839 149.986 279.293 147.57C291.01 142.369 302.727 137.166 314.443 131.962C325.508 127.048 336.574 122.135 347.641 117.224C348.005 117.057 348.381 116.921 348.768 116.818C348.941 116.767 349.126 116.783 349.288 116.862C349.451 116.94 349.578 117.077 349.644 117.244C349.715 117.41 349.725 117.596 349.673 117.769C349.621 117.941 349.511 118.09 349.36 118.19C349.024 118.406 348.67 118.594 348.302 118.75C342.038 121.534 335.772 124.315 329.505 127.093C316.852 132.711 304.2 138.33 291.549 143.951C282.232 148.085 272.913 152.218 263.593 156.349C263.192 156.523 262.778 156.673 262.296 156.864Z" fill="white" fill-opacity="0.75"/>
<path d="M89.5224 162.139C89.2271 162.059 88.7962 161.95 88.3695 161.827C77.0817 158.575 65.7937 155.323 54.5056 152.07C38.3426 147.416 22.1798 142.762 6.01732 138.11C5.63009 138.009 5.2502 137.882 4.88029 137.73C4.71541 137.658 4.5794 137.533 4.4939 137.374C4.4084 137.216 4.37834 137.034 4.4085 136.856C4.45923 136.66 4.58003 136.489 4.7481 136.376C4.91617 136.263 5.11986 136.215 5.3207 136.242C5.67189 136.299 6.01828 136.383 6.35695 136.492C17.3891 139.667 28.4211 142.844 39.4529 146.022C55.8724 150.749 72.292 155.477 88.7117 160.204C89.1847 160.328 89.6503 160.478 90.1064 160.654C90.3001 160.717 90.4624 160.851 90.5599 161.03C90.6573 161.208 90.6825 161.417 90.6303 161.614C90.5088 161.984 90.1548 162.181 89.5224 162.139Z" fill="white" fill-opacity="0.75"/>
<path d="M326.204 99.2491C326.121 99.4565 326.004 99.6485 325.858 99.8169C325.549 100.071 325.218 100.298 324.871 100.496C308.321 110.808 291.77 121.118 275.218 131.426C268.794 135.428 262.371 139.429 255.947 143.431C255.614 143.651 255.266 143.85 254.906 144.025C254.816 144.07 254.718 144.096 254.618 144.102C254.517 144.109 254.417 144.095 254.321 144.062C254.226 144.03 254.139 143.978 254.064 143.911C253.989 143.844 253.928 143.762 253.885 143.671C253.801 143.513 253.774 143.33 253.809 143.153C253.844 142.977 253.938 142.818 254.076 142.703C254.318 142.507 254.574 142.33 254.844 142.175C262.551 137.371 270.259 132.569 277.968 127.768C293.271 118.234 308.575 108.702 323.88 99.1709C324.323 98.8779 324.797 98.6328 325.292 98.4395C325.757 98.2734 326.216 98.6688 326.204 99.2491Z" fill="white" fill-opacity="0.75"/>
<path d="M41.4129 190.466C39.9451 190.466 37.763 190.451 35.5801 190.468C24.4037 190.561 13.2273 190.658 2.0507 190.759C1.65015 190.763 1.24776 190.777 0.849066 190.747C0.64624 190.757 0.446857 190.692 0.290231 190.562C0.133605 190.433 0.0311047 190.25 0.00294059 190.049C-0.00342179 189.937 0.0126885 189.825 0.0503206 189.719C0.0879526 189.614 0.146344 189.517 0.222047 189.434C0.29775 189.352 0.389231 189.285 0.49109 189.238C0.592949 189.192 0.703121 189.166 0.815103 189.163C1.21295 189.117 1.61342 189.098 2.01378 189.107C7.2681 189.07 12.5228 189.047 17.7771 189.002C29.1314 188.906 40.4859 188.804 51.8407 188.697C60.7006 188.616 69.5617 188.531 78.4239 188.443C79.8928 188.429 81.3617 188.372 82.8306 188.362C83.273 188.348 83.7151 188.4 84.1419 188.518C84.2531 188.58 84.3501 188.665 84.4268 188.767C84.5036 188.869 84.5584 188.986 84.5878 189.11C84.6271 189.264 84.6065 189.428 84.5302 189.568C84.4539 189.707 84.3276 189.813 84.1766 189.864C83.93 189.964 83.6688 190.024 83.4032 190.04C82.9602 190.074 82.5131 190.069 82.0683 190.072C74.1862 190.127 66.3049 190.166 58.4225 190.238C52.991 190.289 47.5595 190.382 41.4129 190.466Z" fill="white" fill-opacity="0.75"/>
<path d="M8.72711 240.968C8.11135 240.987 7.75806 240.741 7.68607 240.348C7.65752 240.17 7.69027 239.988 7.77891 239.832C7.86756 239.676 8.00682 239.554 8.17374 239.488C8.49753 239.341 8.83227 239.22 9.17491 239.126C16.5543 236.937 23.9341 234.75 31.3145 232.565C42.2344 229.327 53.1538 226.087 64.0727 222.845C71.4087 220.668 78.7446 218.49 86.0804 216.311C86.2914 216.241 86.506 216.181 86.7231 216.133C86.937 216.065 87.1691 216.084 87.3686 216.187C87.5681 216.29 87.7188 216.467 87.7878 216.681C87.9048 217.116 87.6903 217.485 87.1602 217.71C86.9116 217.807 86.6575 217.889 86.3994 217.957C76.5035 220.893 66.6076 223.829 56.7115 226.763C41.101 231.394 25.4901 236.026 9.87891 240.658C9.45363 240.784 9.02171 240.889 8.72711 240.968Z" fill="white" fill-opacity="0.75"/>
<path d="M28.4375 291.486C27.8815 291.486 27.581 291.341 27.5035 291.013C27.4736 290.89 27.4696 290.761 27.4917 290.636C27.5137 290.51 27.5613 290.391 27.6316 290.285C27.9393 289.966 28.285 289.686 28.6608 289.451C33.7464 286.002 38.8349 282.557 43.9261 279.117C60.7108 267.769 77.4955 256.421 94.2802 245.075C94.6863 244.8 95.0787 244.507 95.4863 244.236C95.6692 244.11 95.8663 244.006 96.0736 243.927C96.2435 243.868 96.4285 243.869 96.5974 243.931C96.7662 243.993 96.9088 244.11 97.001 244.265C97.0938 244.393 97.1402 244.549 97.1322 244.707C97.1243 244.865 97.0626 245.015 96.9574 245.133C96.7527 245.366 96.5175 245.569 96.2582 245.738C80.6184 256.313 64.977 266.886 49.334 277.456C42.7292 281.919 36.1257 286.383 29.5235 290.848C29.1271 291.116 28.6962 291.336 28.4375 291.486Z" fill="white" fill-opacity="0.75"/>
<path d="M313.012 195.504C306.786 195.71 300.558 195.915 294.329 196.121C289.259 196.294 284.189 196.471 279.117 196.652C277.116 196.723 275.115 196.806 273.114 196.874C272.759 196.891 272.403 196.875 272.051 196.828C271.872 196.805 271.708 196.717 271.59 196.581C271.472 196.445 271.407 196.27 271.409 196.09C271.405 195.932 271.453 195.777 271.547 195.65C271.64 195.523 271.774 195.431 271.926 195.388C272.312 195.291 272.707 195.235 273.105 195.222C275.061 195.14 277.018 195.069 278.975 195.008C283.068 194.874 287.16 194.752 291.253 194.615C296.813 194.429 302.374 194.238 307.934 194.041C312.737 193.874 317.541 193.704 322.344 193.531C328.082 193.321 333.819 193.106 339.555 192.886C340.311 192.858 341.069 192.84 341.825 192.817C345.65 192.696 349.476 192.577 353.302 192.458C353.746 192.441 354.19 192.46 354.631 192.514C354.788 192.535 354.934 192.611 355.04 192.728C355.147 192.846 355.208 192.998 355.213 193.157C355.234 193.314 355.199 193.473 355.115 193.607C355.03 193.742 354.902 193.842 354.752 193.892C354.459 193.998 354.153 194.06 353.843 194.077C353.132 194.121 352.42 194.128 351.708 194.151C345.347 194.362 338.986 194.573 332.624 194.784C327.554 194.956 322.484 195.133 317.412 195.315C315.945 195.368 314.479 195.455 313.012 195.527L313.012 195.504Z" fill="white" fill-opacity="0.75"/>
<path d="M66.8295 329.959C66.7177 329.97 66.605 329.951 66.5024 329.905C66.3998 329.86 66.3106 329.788 66.2434 329.698C66.1762 329.608 66.1333 329.503 66.1186 329.391C66.104 329.28 66.1182 329.167 66.1599 329.062C66.3232 328.698 66.5277 328.353 66.7693 328.035C69.671 323.982 72.5769 319.931 75.4872 315.884C87.8466 298.677 100.205 281.469 112.564 264.261C112.875 263.827 113.184 263.392 113.499 262.96C113.6 262.813 113.713 262.676 113.838 262.55C113.976 262.401 114.165 262.31 114.367 262.295C114.569 262.28 114.77 262.342 114.928 262.468C115.083 262.599 115.184 262.782 115.213 262.982C115.241 263.182 115.195 263.386 115.084 263.555C114.925 263.823 114.75 264.082 114.561 264.33C110.771 269.609 106.98 274.887 103.189 280.164C91.7906 296.035 80.3925 311.905 68.9947 327.776C68.5794 328.354 68.1729 328.94 67.7369 329.502C67.646 329.658 67.5119 329.784 67.3509 329.865C67.1899 329.946 67.0088 329.979 66.8295 329.959Z" fill="white" fill-opacity="0.75"/>
<path d="M345.972 145.525C345.875 145.66 345.753 145.979 345.523 146.115C345.13 146.322 344.714 146.483 344.284 146.595C337.453 148.749 330.621 150.901 323.788 153.049C306.9 158.371 290.012 163.693 273.125 169.015C271.555 169.51 269.983 169.999 268.409 170.482C268.117 170.583 267.811 170.638 267.503 170.646C267.345 170.641 267.193 170.584 267.071 170.484C266.949 170.383 266.864 170.244 266.83 170.09C266.773 169.942 266.769 169.779 266.82 169.628C266.872 169.478 266.974 169.35 267.109 169.268C267.457 169.074 267.826 168.921 268.209 168.811C272.536 167.444 276.864 166.081 281.194 164.723C299.357 159.005 317.52 153.287 335.683 147.568C338.483 146.686 341.285 145.806 344.087 144.93C344.465 144.807 344.857 144.729 345.253 144.698C345.627 144.676 345.931 145.008 345.972 145.525Z" fill="white" fill-opacity="0.75"/>
<path d="M235.691 122.401C235.561 122.418 235.428 122.401 235.306 122.352C235.184 122.303 235.077 122.224 234.994 122.121C234.912 122.019 234.857 121.897 234.835 121.767C234.813 121.638 234.825 121.504 234.869 121.381C235.032 121.066 235.235 120.773 235.471 120.509C238.034 117.43 240.601 114.353 243.171 111.28C251.96 100.756 260.75 90.2322 269.541 79.7085C275.335 72.7726 281.132 65.8394 286.933 58.9087C287.184 58.6002 287.469 58.3203 287.782 58.074C287.909 57.9785 288.067 57.933 288.225 57.946C288.384 57.9591 288.532 58.0298 288.642 58.1448C288.772 58.2367 288.864 58.372 288.902 58.526C288.941 58.6801 288.923 58.8428 288.852 58.9847C288.658 59.3337 288.43 59.6624 288.171 59.9656C284.666 64.1726 281.157 68.3765 277.644 72.5773C269.31 82.5544 260.976 92.5311 252.642 102.507C247.447 108.726 242.252 114.944 237.057 121.161C236.81 121.477 236.545 121.778 236.263 122.062C236.088 122.199 235.895 122.313 235.691 122.401Z" fill="white" fill-opacity="0.75"/>
<path d="M209.086 107.796C208.967 107.813 208.847 107.804 208.733 107.769C208.619 107.734 208.514 107.674 208.425 107.593C208.337 107.513 208.268 107.414 208.222 107.303C208.177 107.193 208.157 107.074 208.163 106.955C208.235 106.608 208.352 106.272 208.51 105.955C209.918 102.88 211.332 99.8074 212.75 96.737C220.907 79.0345 229.064 61.3322 237.221 43.63C238.673 40.4774 240.13 37.3272 241.591 34.1794C241.751 33.8135 241.943 33.4621 242.163 33.1291C242.263 32.9788 242.415 32.8706 242.589 32.8252C242.764 32.7798 242.949 32.8005 243.109 32.8833C243.272 32.9611 243.402 33.0941 243.475 33.2585C243.549 33.4229 243.563 33.6082 243.513 33.7815C243.392 34.1625 243.244 34.5345 243.07 34.8945C240.466 40.555 237.86 46.2138 235.252 51.8709C227.727 68.1991 220.202 84.5269 212.677 100.854C211.802 102.754 210.924 104.652 210.045 106.55C209.933 106.84 209.79 107.118 209.619 107.378C209.463 107.543 209.283 107.683 209.086 107.796Z" fill="white" fill-opacity="0.75"/>
<path d="M179.647 99.3311C179.852 98.1346 180.074 96.8208 180.303 95.5054C181.251 90.0738 182.201 84.6424 183.152 79.2112C184.266 72.8616 185.383 66.512 186.502 60.1623C187.529 54.2931 188.55 48.4228 189.566 42.5513C190.592 36.6821 191.623 30.8139 192.66 24.9466C192.868 23.7653 193.062 22.5792 193.283 21.3993C193.321 21.0928 193.426 20.7984 193.589 20.5362C193.758 20.3417 193.997 20.2217 194.253 20.2021C194.413 20.1943 194.569 20.2478 194.69 20.3515C194.811 20.4552 194.888 20.6013 194.905 20.7599C194.952 21.1112 194.945 21.4676 194.885 21.8168C194.173 25.9352 193.452 30.0524 192.724 34.1683C191.87 39.0295 191.017 43.8902 190.163 48.7504C189.118 54.7062 188.073 60.6621 187.028 66.6179C185.835 73.4509 184.645 80.2847 183.459 87.1191C182.756 91.1489 182.048 95.1779 181.335 99.2059C181.287 99.5119 181.203 99.8112 181.086 100.098C181.016 100.263 180.889 100.398 180.727 100.477C180.566 100.555 180.381 100.572 180.208 100.524C180.057 100.483 179.921 100.396 179.821 100.275C179.721 100.154 179.661 100.005 179.649 99.8487C179.639 99.6763 179.638 99.5035 179.647 99.3311Z" fill="white" fill-opacity="0.75"/>
<path d="M139.328 24.377C139.341 24.2356 139.368 24.0959 139.409 23.9598C139.535 23.6523 139.76 23.3953 140.103 23.443C140.359 23.4805 140.591 23.6131 140.753 23.8143C140.904 24.0843 140.999 24.382 141.033 24.6896C141.458 27.0543 141.877 29.4201 142.288 31.7872C143.135 36.6983 143.977 41.6101 144.815 46.5224C145.767 52.0466 146.724 57.5703 147.686 63.0935C148.811 69.5817 149.937 76.0696 151.063 82.5573C152.141 88.7827 153.216 95.0085 154.288 101.235C154.353 101.63 154.383 102.029 154.378 102.429C154.381 102.587 154.33 102.742 154.234 102.867C154.137 102.993 154.001 103.082 153.848 103.119C153.676 103.174 153.49 103.163 153.325 103.089C153.161 103.015 153.03 102.882 152.957 102.717C152.836 102.432 152.749 102.132 152.698 101.826C151.337 93.9339 149.98 86.0411 148.625 78.1477C147.512 71.7028 146.377 65.2616 145.263 58.8167C144.323 53.3804 143.404 47.94 142.467 42.5033C141.47 36.7151 140.466 30.9282 139.457 25.1426C139.412 24.8816 139.368 24.6173 139.328 24.377Z" fill="white" fill-opacity="0.75"/>
<path d="M131.845 111.891C131.678 111.827 131.524 111.735 131.39 111.618C131.16 111.346 130.953 111.057 130.77 110.752C119.964 93.9915 109.159 77.2314 98.3554 60.4713C95.2441 55.6454 92.1308 50.8205 89.0156 45.9967C88.7631 45.6305 88.5308 45.2506 88.3197 44.859C88.0701 44.3595 88.2001 43.8836 88.5818 43.6906C88.7637 43.6003 88.9727 43.581 89.168 43.6364C89.3634 43.6917 89.5312 43.8177 89.6387 43.99C89.881 44.3089 90.1071 44.6399 90.3161 44.9815C94.926 52.1244 99.5344 59.2681 104.141 66.4127C111.016 77.0744 117.89 87.7366 124.763 98.3993C127.224 102.215 129.684 106.032 132.142 109.849C132.371 110.175 132.56 110.527 132.706 110.898C132.747 111.024 132.755 111.159 132.729 111.288C132.703 111.418 132.643 111.539 132.557 111.639C132.47 111.739 132.359 111.814 132.234 111.859C132.109 111.903 131.975 111.914 131.845 111.891Z" fill="white" fill-opacity="0.75"/>
<path d="M55.1819 77.313C55.1288 76.7076 55.6988 76.2468 56.1658 76.4676C56.5589 76.6704 56.9223 76.9262 57.2459 77.2277C59.6859 79.3731 62.1196 81.5249 64.5473 83.6833C75.9468 93.7679 87.3465 103.852 98.7463 113.936C103.113 117.8 107.477 121.665 111.839 125.531C112.079 125.73 112.302 125.947 112.506 126.181C112.629 126.328 112.694 126.515 112.69 126.707C112.685 126.899 112.611 127.083 112.48 127.224C112.35 127.365 112.173 127.453 111.982 127.473C111.791 127.493 111.6 127.443 111.443 127.332C111.188 127.154 110.947 126.956 110.722 126.742C105.488 122.115 100.254 117.486 95.0207 112.856C86.9198 105.692 78.8188 98.5279 70.7179 91.3641C65.9187 87.1187 61.1196 82.8721 56.3204 78.6243C56.0155 78.365 55.7249 78.0893 55.4499 77.7984C55.3384 77.6499 55.2482 77.4865 55.1819 77.313Z" fill="white" fill-opacity="0.75"/>
<path d="M95.9746 148.063C95.7627 147.989 95.4209 147.892 95.1015 147.75C93.6367 147.101 92.175 146.444 90.7166 145.779C72.1439 137.374 53.5712 128.968 34.9985 120.561C34.5522 120.359 34.1066 120.155 33.664 119.947C33.4593 119.859 33.2618 119.755 33.0733 119.636C32.8966 119.537 32.7636 119.375 32.7008 119.182C32.6381 118.99 32.6501 118.781 32.7345 118.596C32.8139 118.435 32.9483 118.307 33.1135 118.235C33.2787 118.163 33.4641 118.153 33.6363 118.205C33.9789 118.298 34.3125 118.422 34.6331 118.575C37.8382 120.021 41.0414 121.472 44.2428 122.927C56.8549 128.634 69.4672 134.341 82.0796 140.047C86.5 142.047 90.9189 144.05 95.3363 146.057C95.7842 146.248 96.2071 146.493 96.5955 146.786C96.6752 146.886 96.7331 147.001 96.7654 147.124C96.7977 147.247 96.8037 147.376 96.7831 147.502C96.7421 147.838 96.4564 148.008 95.9746 148.063Z" fill="white" fill-opacity="0.75"/>
<path d="M84.9296 176.033C83.6745 175.832 82.268 175.609 80.8626 175.379C75.6362 174.526 70.41 173.672 65.1841 172.816C60.0013 171.97 54.8187 171.124 49.6364 170.28C44.4095 169.428 39.1825 168.577 33.9554 167.728C30.0024 167.086 26.0491 166.444 22.0956 165.802C21.7878 165.754 21.4853 165.677 21.1922 165.571C21.0202 165.517 20.8728 165.405 20.7758 165.253C20.6787 165.101 20.6384 164.92 20.6617 164.741C20.6869 164.539 20.7904 164.355 20.9498 164.229C21.1093 164.103 21.3119 164.044 21.5141 164.066C21.8696 164.084 22.2233 164.127 22.5729 164.193C25.5602 164.677 28.5469 165.163 31.5329 165.652C36.7598 166.504 41.9867 167.355 47.2136 168.207C52.9671 169.146 58.7204 170.086 64.4735 171.027C70.1392 171.952 75.8051 172.875 81.4713 173.796C82.6571 173.989 83.8443 174.174 85.0297 174.371C85.249 174.406 85.4641 174.465 85.6713 174.545C85.8436 174.596 85.9921 174.707 86.0903 174.858C86.1884 175.008 86.2299 175.189 86.2072 175.367C86.1845 175.546 86.0993 175.71 85.9666 175.832C85.8338 175.953 85.6624 176.023 85.4827 176.03C85.3509 176.045 85.2165 176.033 84.9296 176.033Z" fill="white" fill-opacity="0.75"/>
<path d="M20.823 213.547C20.6561 213.518 20.4907 213.537 20.401 213.464C20.1855 213.327 20.0079 213.137 19.8842 212.914C19.8265 212.765 19.8283 212.599 19.8892 212.452C19.9502 212.304 20.0657 212.186 20.2117 212.121C20.5308 211.967 20.8721 211.864 21.2232 211.815C24.752 211.34 28.2834 210.884 31.8134 210.419C35.6084 209.919 39.4032 209.417 43.1977 208.913C46.8155 208.435 50.4341 207.959 54.0534 207.485C57.8479 206.984 61.6424 206.481 65.4369 205.977C69.1881 205.485 72.9396 204.996 76.6913 204.509C78.8538 204.226 81.0153 203.935 83.1775 203.652C83.4385 203.605 83.7036 203.585 83.9686 203.592C84.1479 203.607 84.3166 203.683 84.4466 203.808C84.5766 203.932 84.66 204.097 84.683 204.275C84.7138 204.453 84.6803 204.635 84.5883 204.79C84.4964 204.945 84.3522 205.062 84.1816 205.12C83.8876 205.222 83.5837 205.292 83.275 205.33C79.5674 205.816 75.8584 206.286 72.1517 206.775C67.7833 207.352 63.4176 207.948 59.0496 208.525C55.3429 209.015 51.6339 209.485 47.9271 209.973C43.5591 210.55 39.1926 211.142 34.825 211.72C31.1627 212.205 27.4997 212.685 23.8361 213.16C22.8224 213.293 21.8064 213.421 20.823 213.547Z" fill="white" fill-opacity="0.75"/>
<path d="M33.7106 258.573C33.1956 258.584 32.9291 258.448 32.7822 258.134C32.7027 257.996 32.6759 257.834 32.7067 257.678C32.7375 257.522 32.8238 257.382 32.9498 257.285C33.3089 257.026 33.6929 256.803 34.096 256.62C38.762 254.416 43.4301 252.218 48.1003 250.025C61.264 243.838 74.4279 237.652 87.592 231.466C88.2761 231.144 88.945 230.788 89.6387 230.489C90.2423 230.231 90.7336 230.345 90.9481 230.728C91.1918 231.162 90.9714 231.678 90.3368 232.012C89.7871 232.302 89.2038 232.526 88.6405 232.791C75.8401 238.811 63.0401 244.831 50.2407 250.852C45.0884 253.275 39.9344 255.694 34.7786 258.109C34.3792 258.296 33.9694 258.461 33.7106 258.573Z" fill="white" fill-opacity="0.75"/>
<path d="M61.7885 299.064C61.5946 299.088 61.3993 299.033 61.2454 298.913C61.0916 298.792 60.9918 298.616 60.9679 298.422C60.9752 298.161 61.0509 297.906 61.1875 297.683C61.4011 297.399 61.6403 297.134 61.9023 296.893C69.6562 288.908 77.4106 280.924 85.1655 272.94C91.0271 266.903 96.8881 260.866 102.748 254.827C103.055 254.506 103.382 254.205 103.728 253.925C103.85 253.824 104.004 253.769 104.162 253.77C104.321 253.77 104.474 253.827 104.595 253.928C104.744 254.031 104.849 254.185 104.892 254.36C104.935 254.535 104.912 254.72 104.828 254.879C104.611 255.213 104.359 255.524 104.076 255.806C101.571 258.399 99.0613 260.989 96.5473 263.574C86.5931 273.829 76.6387 284.083 66.684 294.337C65.4441 295.615 64.2058 296.895 62.9691 298.177C62.7591 298.407 62.5327 298.621 62.2917 298.818C62.1343 298.92 61.9654 299.003 61.7885 299.064Z" fill="white" fill-opacity="0.75"/>
</g>
<defs>
<clipPath id="clip0_34_1626">
<rect width="366.604" height="489.543" fill="white"/>
</clipPath>
</defs>
</svg>
