<svg width="569" height="574" viewBox="0 0 569 574" fill="none" xmlns="http://www.w3.org/2000/svg">
<path d="M-65.4436 573.067C81.6344 529.674 153.266 493.248 250.419 394.077M250.419 394.077C243.801 380.288 232.225 368.956 230.023 372.016C226.537 376.288 237.153 384.302 250.419 394.077ZM250.419 394.077C283.006 396.838 342.118 362.357 455.113 294.18C457.697 292.914 458.793 294.751 460.747 298.013C462.539 300.667 463.356 302.108 464.745 304.661C464.017 311.39 464.97 314.898 468.311 320.806C473.813 330.978 479.038 335.449 493.143 340.574C503.596 343.193 507.519 342.447 513.798 340.297C517.527 337.162 516.539 333.971 514.192 328.008C508.127 309.964 505.081 299.773 500.724 281.287C499.757 273.169 497.905 269.275 491.561 264.101C476.192 249.574 466.752 242.381 448.135 231.74M448.135 231.74C433.995 238.284 427.381 241.12 426.453 238.73C425.714 233.233 432.412 231.384 448.135 231.74ZM448.135 231.74C469.525 221.38 486.263 212.312 491.99 212.723C497.094 211.987 498.676 213.019 499.307 217.089L501.607 222.084L506.155 228.165C510.583 233.547 513.4 235.826 519.13 238.041C526.152 240.584 530.299 241.01 538.147 240.578C548.169 237.84 551.933 235.72 553.598 230.469M553.644 230.321C553.629 230.37 553.613 230.42 553.598 230.469M553.598 230.469C555.308 226.83 554.58 224.724 550.726 220.868C545.269 211.515 543.215 206.301 540.914 196.99C537.238 189.061 533.23 184.439 523.883 176.001C514.744 166.567 509.094 161.352 498.44 152.332C494.073 148.991 491.622 147.27 487.171 144.666C483.115 142.479 480.789 142.264 476.556 144.25M476.556 144.25L454.934 155.706M476.556 144.25C477.818 139.766 481.555 137.6 490.936 134.007C495.502 132.096 497.91 132.924 502.124 135.533L517.361 147.612C523.782 154.589 528.335 156.699 537.607 158.508C546.791 159.676 551.612 159.3 559.349 155.984C562.859 152.946 563.405 150.378 561.983 144.223C558.542 135.787 556.287 131.053 549.969 122.609C545.599 113.476 542.905 108.273 537.366 98.7684C534.635 93.7577 532.447 91.6874 526.64 89.9784L498.556 77.5122L480.029 69.9433C471.838 67.0441 467.366 66.3921 459.924 69.654C453.864 72.3082 450.469 73.8001 443.855 78.8027C436.072 83.4345 431.813 86.3659 424.495 92.4621C418.183 97.5666 415.23 100.213 406.811 106.099C402.974 109.475 400.797 111.181 396.867 114.049C393.632 115.405 391.711 115.637 387.942 114.727C385.802 114.514 384.879 114.088 384.005 112.546M454.934 155.706L448.816 157.463C433.854 159.478 423.694 166.147 424.998 171.741C426.965 176.289 437.321 169.764 454.934 155.706ZM384.005 112.546C379.936 115.356 377.43 116.811 371.805 118.851C365.609 118.769 363.065 117.964 364.451 111.691C366.567 108.793 373.442 110.5 384.005 112.546ZM384.005 112.546L402.218 96.6687L417.654 81.9451C429.821 69.9213 437.406 64.4089 453.068 58.0205L473.627 50.4868C489.271 45.0569 496.686 40.7766 504.597 28.2967C506.467 21.9784 507.325 18.3439 504.909 9.86707C501.14 5.58833 498.14 4.31896 490.863 3.35488C477.22 1.17584 469.805 0.920887 456.78 1.57765C441.13 2.33986 432.544 3.964 417.815 10.4744C407.425 14.2764 401.152 17.4772 389.523 24.2534C368.734 36.7628 357.34 44.2548 338.069 59.5596C317.979 74.8275 308.7 85.0528 294.573 105.368L262.688 142.646C250.874 155.162 244.54 162.117 234.635 174.289M234.635 174.289L264.178 170.543C279.486 169.284 288.431 169.203 304.93 169.998C309.03 170.335 312.1 170.697 314.999 171.394M234.635 174.289C219.925 176.558 211.778 178.279 197.918 184.273C184.909 192.159 179.958 198.292 172.582 210.296C162.369 228.312 156.879 238.726 148.104 258.641C146.879 262.389 145.665 263.504 143.162 264.849C137.251 268.247 133.307 271.873 126.043 279.037C110.964 295.385 103.279 301.595 91.2319 306.304C71.3191 316.732 60.1241 322.146 40.1944 330.996C6.28097 346.598 -12.9521 354.964 -48.0814 368.47M239.724 262.44L251.848 250.552C256.919 245.891 260.262 245.392 266.288 244.775L294.759 244.394C305.997 241.505 310.847 239.092 318.071 234.032C330.127 225.891 333.117 220.766 337.31 211.44C342.097 200.892 343.03 196.325 340.942 190.733C338.346 181.952 334.248 178.32 322.854 174.225C319.975 172.88 317.553 172.007 314.999 171.394M239.724 262.44L231.953 265.894C219.029 271.779 213.489 274.973 212.601 280.111C216.099 282.698 226.43 275.025 239.724 262.44ZM314.999 171.394C305.129 174.002 300.413 176.04 295.038 181.856C289.923 185.576 287.432 188.603 285.519 192.87M283.532 198.202C281.019 204.669 281.438 208.033 284.299 213.826C292.512 223.553 297.408 224.258 306.213 224.141C307.713 223.804 308.781 223.391 309.543 222.668M283.532 198.202C284.184 196.191 284.812 194.446 285.519 192.87M283.532 198.202C289.236 206.692 298.181 208.057 309.543 222.668M285.519 192.87C288.131 189.941 289.773 188.437 293.423 186.345C300.718 181.802 305.024 180.865 312.887 180.501C316.727 179.639 316.522 181.799 316.304 185.48C315.576 198.98 314.034 206.01 311.162 218.491C310.906 220.556 310.433 221.824 309.543 222.668" stroke="white" stroke-width="1.1166" stroke-linejoin="round"/>
<path d="M286.494 208.986C287.136 209.908 287.977 210.866 288.396 211.924C288.414 211.97 288.517 212.194 288.346 212.104C288.104 211.976 287.951 211.735 287.84 211.494C287.543 210.846 287.384 210.107 287.15 209.434C286.87 208.634 286.559 207.849 286.32 207.035C286.031 206.056 285.756 205.074 285.468 204.094C285.307 203.544 285.112 202.98 284.822 202.482C284.624 202.142 284.354 201.877 284.19 201.514C284.084 201.279 283.972 200.9 283.808 200.702C283.758 200.641 283.757 200.581 283.756 200.504C283.755 200.473 283.748 200.385 283.766 200.411C283.838 200.517 283.881 200.719 283.922 200.83C284.425 202.163 284.731 203.542 284.927 204.954C285 205.481 285.081 206.106 284.817 206.599C284.54 207.116 283.867 206.612 283.652 206.312C283.022 205.434 283.064 204.297 283.05 203.271C283.04 202.527 283.065 201.8 283.122 201.063C283.139 200.841 283.25 200.517 283.482 200.437C283.675 200.37 284.158 201.935 284.189 202.018C284.852 203.824 285.69 205.57 286.538 207.296C287.734 209.734 288.816 212.176 290.549 214.292C290.844 214.652 291.419 215.161 291.426 215.675C291.427 215.742 291.401 215.754 291.323 215.759C290.859 215.789 290.287 215.445 289.924 215.23C288.951 214.656 288.06 213.944 287.176 213.245C286.614 212.801 286.043 212.357 285.526 211.861C284.838 211.201 284.281 210.382 283.781 209.573C283.516 209.144 283.329 208.808 283.315 208.286C283.311 208.136 283.311 207.985 283.309 207.835C283.306 207.612 283.248 207.374 283.434 207.712C283.819 208.411 284.257 209.078 284.634 209.782C284.852 210.189 285.038 210.641 285.335 211C285.432 211.116 285.646 211.364 285.822 211.362C286.113 211.358 285.999 210.092 285.99 209.956C285.951 209.4 285.816 208.903 285.68 208.37C285.631 208.18 285.624 208.014 285.519 207.844C285.308 207.503 284.599 207.583 284.245 207.432C283.898 207.283 283.671 207.051 283.373 206.838C283.289 206.778 283.208 206.711 283.12 206.657C282.865 206.501 282.998 207.676 283.011 207.748C283.225 208.92 284.016 209.95 284.551 210.993C284.861 211.598 285.119 212.262 285.358 212.898C285.504 213.287 285.582 213.727 285.773 214.097C285.956 214.452 286.293 214.738 286.586 215C286.786 215.179 286.987 215.358 287.193 215.531C287.276 215.601 287.411 215.65 287.476 215.736C287.723 216.067 288.168 216.34 288.484 216.614C289.405 217.415 290.58 217.83 291.596 218.488C291.854 218.655 292.17 218.762 292.444 218.908C292.669 219.029 292.942 219.171 293.18 219.259C293.321 219.311 292.833 219.356 292.758 219.342C292.326 219.261 291.858 218.959 291.527 218.676C291.431 218.594 290.949 218.356 291.122 218.442C291.47 218.615 291.815 218.781 292.137 218.998C292.587 219.302 292.961 219.598 293.336 220.003C293.752 220.451 294.145 220.865 294.664 221.195C294.807 221.286 295.18 221.383 295.277 221.515C295.457 221.761 294.717 221.265 294.46 221.102C294.02 220.824 293.605 220.519 293.204 220.189C292.764 219.826 292.332 219.563 291.854 219.26C291.578 219.086 291.219 218.963 290.983 218.733C290.612 218.371 291.699 217.745 291.948 217.66C292.656 217.42 293.542 217.999 294.017 218.494C294.182 218.665 294.301 218.878 294.471 219.044C294.644 219.212 295.033 218.839 295.124 218.749C295.565 218.311 295.946 217.625 296.483 217.3C296.643 217.203 296.645 217.648 296.65 217.834C296.665 218.408 296.594 218.96 296.414 219.507C296.299 219.857 296.135 220.267 295.919 220.573C295.868 220.646 295.859 220.402 295.858 220.313C295.848 219.818 295.849 219.322 295.838 218.827C295.836 218.729 295.788 218.392 295.793 218.734C295.806 219.767 296.165 220.756 296.725 221.616C297.076 222.156 297.999 223.1 298.513 222.165C298.667 221.885 297.868 222.188 298.189 222.422C298.543 222.681 299.326 222.534 299.717 222.528C300.121 222.523 300.524 222.515 300.928 222.512C301.006 222.512 301.192 222.488 301.275 222.535C301.347 222.576 301.412 222.656 301.486 222.703C301.752 222.868 302.071 222.873 302.375 222.9C303.214 222.973 304.11 222.858 304.938 223.003C305.697 223.136 306.562 223.046 307.34 223.021C307.685 223.009 307.627 222.669 307.624 222.423C307.62 222.14 307.519 221.988 307.326 221.772C306.915 221.309 306.365 220.919 305.828 220.614C305.126 220.216 304.373 219.675 304.044 218.905C303.897 218.56 303.663 218.295 303.484 217.974C303.425 217.868 303.378 217.744 303.35 217.626C303.29 217.375 303.377 217.557 303.546 217.717C303.962 218.11 304.436 218.441 304.716 218.945C304.828 219.147 305.021 219.461 305.209 219.604C305.425 219.769 305.626 219.967 305.313 219.581C304.73 218.864 304.209 218.066 303.553 217.412C302.862 216.722 302.274 215.836 301.467 215.28C301.264 215.14 301.054 215.007 300.848 214.875C300.534 214.674 300.346 214.23 300.071 213.966C299.952 213.853 299.819 213.756 299.706 213.636C299.567 213.489 299.509 213.27 299.355 213.142C299.105 212.935 298.825 212.776 298.588 212.55C298.357 212.33 298.145 212.108 297.897 211.904C297.168 211.308 296.44 210.742 295.759 210.09C295.176 209.531 294.429 209.228 293.761 208.79C293.014 208.3 292.386 207.7 291.697 207.134C291.365 206.86 291.066 206.548 290.717 206.294C290.371 206.041 289.993 205.812 289.694 205.501C289.167 204.952 288.563 204.472 287.974 203.986C287.528 203.619 287 203.35 286.552 202.993C286.428 202.894 285.358 202.093 285.251 202.24C285.208 202.299 285.284 202.456 285.29 202.471C285.477 202.949 285.747 203.403 286.002 203.848C286.57 204.838 287.232 205.766 287.916 206.678C288.457 207.4 289.05 208.066 289.633 208.752C290.199 209.416 290.677 210.168 291.284 210.796C292.024 211.562 292.894 212.189 293.641 212.946C293.673 212.98 293.9 213.169 293.777 213.245C293.532 213.394 293.101 213.027 292.969 212.917C291.807 211.946 291.058 210.65 290.414 209.305C290.371 209.216 289.804 208.259 289.888 208.05C289.904 208.011 289.975 208.048 290.012 208.067C290.275 208.203 290.666 208.564 290.841 208.725C292.222 210 293.336 211.53 294.303 213.136C294.53 213.512 294.718 213.889 294.899 214.286C294.916 214.322 294.984 214.418 294.953 214.393C294.735 214.215 294.629 213.933 294.471 213.7C293.149 211.761 291.834 209.776 290.775 207.677C290.736 207.601 290.604 207.396 290.678 207.439C290.807 207.515 290.873 207.668 290.963 207.788C291.183 208.08 291.4 208.375 291.608 208.676C292.655 210.195 293.641 211.759 294.461 213.414C294.945 214.391 295.559 215.655 295.552 216.795C295.55 217.111 295.192 216.893 295.063 216.821C294.213 216.351 293.49 215.645 292.809 214.966C292.041 214.201 291.311 213.39 290.62 212.555C290.514 212.427 290.239 212.021 290.295 212.177C290.741 213.415 291.547 214.568 292.186 215.712C292.221 215.774 292.406 216.107 292.463 216.22C292.502 216.298 292.545 216.444 292.396 216.196C291.913 215.39 291.549 214.487 291.162 213.634C290.474 212.116 289.799 210.591 289.117 209.07C288.795 208.349 287.796 206.2 288.15 206.906C289.125 208.851 290.196 210.735 291.281 212.62C292.019 213.903 292.857 215.185 293.471 216.537C294.029 217.764 292.081 214.227 291.419 213.053C290.378 211.209 289.323 209.347 288.405 207.437C288.274 207.163 288.855 207.844 289.065 208.063C290.059 209.099 291.1 210.086 292.124 211.09C293.742 212.677 295.33 214.284 296.848 215.966C296.966 216.097 297.198 216.417 297.154 216.042C297.104 215.609 296.988 215.172 296.889 214.749C296.792 214.335 296.731 214.098 296.625 213.691C296.591 213.562 296.554 213.434 296.523 213.304C296.485 213.142 296.48 213.102 296.567 213.265C297.408 214.832 298.306 216.37 299.128 217.947C299.377 218.425 299.631 218.945 299.841 219.445C299.907 219.603 299.967 219.763 300.024 219.924C300.071 220.058 300.23 220.388 300.095 220.344C299.696 220.213 299.005 218.759 298.905 218.577C297.991 216.914 297.193 215.188 296.388 213.471C295.918 212.469 295.488 211.426 294.955 210.453C294.864 210.285 294.559 209.828 294.584 210.017C294.635 210.417 294.91 210.864 295.07 211.221C295.384 211.922 295.689 212.624 295.982 213.333C296.252 213.988 297.154 215.902 296.765 215.309C296.21 214.465 295.897 213.353 295.68 212.38C295.656 212.271 295.637 212.161 295.621 212.05C295.613 212.001 295.565 211.928 295.608 211.902C295.651 211.875 295.702 211.945 295.743 211.975C295.947 212.122 296.765 212.801 296.82 212.846C298.331 214.087 299.765 215.324 300.848 216.972C301.049 217.277 301.177 217.491 301.327 217.804C301.367 217.888 301.472 218.122 301.391 218.076C301.22 217.978 301.053 217.463 301.005 217.347C300.765 216.77 300.56 216.179 300.362 215.586C300.259 215.276 300.161 214.964 300.058 214.655C300.051 214.633 299.874 214.113 300.055 214.649C300.619 216.323 301.212 217.977 301.858 219.622C302.039 220.084 302.551 221.483 302.377 221.018C302.244 220.662 302.132 220.3 302.035 219.933C301.984 219.739 301.791 219.196 301.931 219.34C302.211 219.628 302.401 220.094 302.639 220.423C302.764 220.596 302.968 221.039 303.171 221.145C303.504 221.318 303.925 221.122 304.241 221.312C304.378 221.395 304.926 221.926 304.786 222.152C304.766 222.185 304.741 222.114 304.752 222.092C304.787 222.029 305.042 222.008 305.109 221.988C305.394 221.905 304.551 221.782 304.263 221.708C303.191 221.433 302.096 221.225 301.038 220.898C299.908 220.549 298.833 220.011 297.873 219.337C297.775 219.268 297.224 219.023 297.292 219.325C297.427 219.933 298.041 220.745 298.656 220.927C299.454 221.163 300.235 221.184 301.07 221.173" stroke="white" stroke-width="2.23319" stroke-linecap="round"/>
</svg>
