<svg width="426" height="378" viewBox="0 0 426 378" fill="none" xmlns="http://www.w3.org/2000/svg">
<path d="M121.865 2.66797C122.091 2.74075 122.323 2.79427 122.558 2.82795C127.005 3.14072 131.355 4.28009 135.384 6.18762C140.278 8.42859 144.769 11.4615 148.676 15.1643C151.659 18.0079 153.56 21.4767 154.627 25.4302C154.669 25.5851 154.706 25.7409 154.748 25.8954C155.009 26.8608 155.011 26.8704 156.046 26.7014C161.074 25.881 165.767 26.9453 170.212 29.2759C174.46 31.5035 177.911 34.6127 180.281 38.819C181.005 40.104 181.536 41.4974 182.21 42.9597C182.475 42.9891 182.742 42.999 183.01 42.9891C187.457 42.609 191.812 43.1712 196.089 44.3541C204.884 46.8332 212.57 52.2385 217.878 59.6771C223.186 67.1157 225.797 76.1424 225.281 85.2659C225.194 87.067 224.988 88.8603 224.663 90.634C224.094 93.547 223.187 96.3836 221.96 99.0863C216.982 110.089 208.767 117.521 197.314 121.381C194.493 122.3 191.576 122.891 188.62 123.141C188.345 123.146 188.078 123.233 187.852 123.39C187.626 123.547 187.452 123.768 187.351 124.024C185.088 128.567 181.513 131.684 176.85 133.613C175.205 134.351 173.496 134.936 171.743 135.361C171.414 135.422 171.106 135.566 170.847 135.779C170.589 135.992 170.389 136.267 170.266 136.579C168.953 139.242 167.99 142.063 167.4 144.973C166.577 149.148 166.381 153.422 166.817 157.655C167.602 165.804 170.187 173.372 174.21 180.464C178.263 187.692 183.764 194.007 190.368 199.013C190.976 199.472 191.6 199.909 192.221 200.349C194.308 201.84 196.615 202.998 199.058 203.78C205.733 205.913 212.377 208.145 218.917 210.675C223.737 212.541 228.516 214.498 233.159 216.78C235.439 217.867 237.627 219.137 239.701 220.579C242.335 222.422 244.622 224.717 246.456 227.358C247.475 228.8 248.243 230.405 248.728 232.103C248.862 232.596 248.984 233.092 249.112 233.587V238.157C249.039 238.249 248.983 238.353 248.946 238.464C248.693 240.537 247.709 242.257 246.326 243.761C245.569 244.584 244.734 245.336 243.926 246.111C243.816 246.231 243.665 246.306 243.502 246.321C243.34 246.336 243.177 246.29 243.046 246.193C242.867 246.099 242.728 245.942 242.656 245.753C242.585 245.563 242.586 245.354 242.659 245.165C242.788 244.917 242.953 244.69 243.149 244.49C244.727 242.808 245.087 240.766 244.877 238.57C244.724 237.212 244.314 235.895 243.667 234.691C242.121 231.678 239.918 229.212 237.302 227.1C235.098 225.36 232.727 223.844 230.224 222.573C224.99 219.84 219.499 217.723 213.924 215.816C205.852 213.057 197.654 210.697 189.522 208.126C177.229 204.242 164.948 200.316 152.681 196.349C147.111 194.561 141.65 192.453 136.323 190.036C128.664 186.54 121.465 182.299 115.068 176.792C109.868 172.374 105.259 167.304 101.355 161.706C100.651 160.684 100.027 159.607 99.363 158.558C99.0043 157.99 98.9471 157.977 98.2915 158.198C96.9639 158.646 95.652 159.149 94.303 159.517C91.3228 160.323 88.2529 160.752 85.1657 160.792C73.6376 160.976 63.4373 157.329 54.4951 150.126C49.8277 146.418 46.1019 141.66 43.621 136.239C43.5221 136.023 43.4079 135.815 43.2786 135.559C43.0848 135.533 42.8893 135.521 42.6937 135.523C41.7361 135.6 40.7813 135.715 39.823 135.775C25.6596 136.666 11.7528 129.479 4.86642 116.675C3.04747 113.278 1.77965 109.613 1.11031 105.818C0.8329 104.282 0.531806 102.746 0.331825 101.2C-0.372562 95.5783 0.047041 89.8727 1.56626 84.4145C4.41398 74.5953 10.1357 66.9442 18.9265 61.6625C23.1053 59.1794 27.7147 57.5062 32.5133 56.7305C34.8853 56.3341 37.2865 56.1382 39.6915 56.1449C42.2974 56.1496 44.8974 56.3955 47.4581 56.8793C47.5745 56.901 47.6942 56.9071 47.8683 56.9266C47.9839 56.7268 48.085 56.5189 48.171 56.3046C50.4235 49.4042 54.5322 43.7679 59.9816 39.0682C65.8581 33.976 72.9475 30.4837 80.5662 28.9281C83.6693 28.2817 86.8404 28.0205 90.0075 28.1503C90.3674 28.1643 90.7284 28.1666 91.089 28.1634C91.178 28.1459 91.2642 28.116 91.3449 28.0744C91.5795 27.6447 91.4572 27.1555 91.4755 26.6864C91.6591 21.9685 92.9499 17.6092 95.7084 13.7398C97.6195 11.0993 100.063 8.88891 102.881 7.2512C106.518 5.02794 110.587 3.60492 114.816 3.07689C115.571 2.98762 116.33 2.93162 117.085 2.84395C117.398 2.80748 117.706 2.7278 118.017 2.66797H121.865ZM155.597 28.4213C155.786 29.7584 155.998 30.9785 156.124 32.2071C156.591 36.7699 156.245 41.2622 154.721 45.6093C152.398 52.2356 148.573 57.8049 142.987 62.1367C137.828 66.1059 131.955 69.0472 125.687 70.8008C121.131 72.0568 116.495 73.0016 111.811 73.6287C107.254 74.2918 102.694 74.9304 98.1308 75.5443C93.5631 76.131 89.0288 76.9534 84.5459 78.0081C78.8415 79.3884 73.3249 81.2839 68.1175 84.0235C60.2254 88.1776 53.7454 93.8955 48.8762 101.395C46.3391 105.207 44.4975 109.438 43.4367 113.893C42.8147 116.545 42.393 119.241 42.1751 121.956C41.9358 124.758 42.2028 127.58 42.9631 130.286C44.0403 133.9 45.6388 137.338 47.7083 140.49C49.7395 143.634 52.4613 146.274 55.6665 148.207C61.6695 151.908 68.248 153.734 75.2387 154.146C78.2814 154.336 81.3357 154.199 84.3495 153.74C88.2399 153.172 92.0191 152.006 95.5535 150.284C95.7988 150.148 96.0525 150.028 96.3131 149.924C96.4142 149.878 96.5245 149.855 96.6357 149.857C96.747 149.858 96.8565 149.885 96.9562 149.934C97.0559 149.983 97.1434 150.054 97.2122 150.142C97.281 150.229 97.3294 150.331 97.354 150.44C97.4906 150.816 97.585 151.208 97.7177 151.584C98.8152 154.708 100.451 157.553 102.245 160.315C104.182 163.217 106.356 165.954 108.745 168.498C111.242 171.267 113.927 173.862 116.781 176.263C122.714 181.18 129.273 185.083 136.243 188.327C142.108 191.013 148.131 193.34 154.279 195.293C165.324 198.88 176.385 202.415 187.463 205.899C195.442 208.425 203.451 210.853 211.429 213.384C216.745 215.043 221.954 217.027 227.028 219.323C230.145 220.7 233.139 222.341 235.975 224.23C238.456 225.868 240.668 227.879 242.535 230.192C243.102 230.917 243.641 231.669 244.135 232.445C245.788 235.046 246.79 237.827 246.305 241.106C246.701 240.653 246.988 240.116 247.146 239.535C247.813 237.589 247.936 235.499 247.503 233.488C247.028 231.116 245.906 229.056 244.44 227.163C242.4 224.574 239.912 222.372 237.094 220.662C234.484 219.093 231.772 217.698 228.977 216.488C221.924 213.305 214.683 210.604 207.356 208.129C203.602 206.861 199.82 205.673 196.061 204.417C194.315 203.834 192.594 203.177 190.86 202.556C186.166 200.927 181.558 199.06 177.055 196.962C169.473 193.292 162.305 188.822 155.674 183.628C150.234 179.42 145.222 174.76 140.9 169.389C132.765 159.281 127.642 147.898 126.321 134.903C125.861 130.637 125.869 126.332 126.345 122.067C127.017 116.198 128.844 110.519 131.72 105.359C137.587 94.8032 148.021 88.7561 157.68 87.7226C161.269 87.2971 164.906 87.5279 168.412 88.4038C173.712 89.7746 178.185 92.5634 181.972 96.4818C186.982 101.665 189.715 107.802 189.701 115.078C189.724 115.372 189.767 115.664 189.829 115.952C190.613 115.907 191.333 115.912 192.04 115.819C194.739 115.415 197.361 114.599 199.812 113.399C206.223 110.405 211.997 106.204 216.818 101.025C218.619 99.1387 220.195 97.049 221.513 94.7981C222.203 93.666 222.68 92.4176 222.921 91.1143C223.127 89.8514 223.392 88.5965 223.547 87.3278C224.023 83.5012 223.882 79.6231 223.131 75.8409C220.909 64.6692 214.989 56.0141 205.316 50.0003C199.947 46.6585 193.805 44.7613 187.486 44.4926C186.047 44.395 184.603 44.3993 183.164 44.5054C182.805 44.5374 182.443 44.5262 182.084 44.5598C181.802 44.5969 181.517 44.5384 181.273 44.3938C181.028 44.2493 180.84 44.0269 180.737 43.7625C180.606 43.4705 180.497 43.1692 180.411 42.8611C179.85 41.0577 178.994 39.3601 177.876 37.8376C174.442 33.0699 169.377 29.7286 163.642 28.4475C161.806 28.0172 159.916 27.8601 158.033 27.9813C157.204 28.0105 156.384 28.1586 155.597 28.4213ZM40.9016 129.023L41.043 128.97C40.9899 128.58 40.9429 128.189 40.883 127.8C40.5707 125.9 40.4848 123.969 40.6271 122.048C40.7269 120.851 40.8395 119.652 41.0081 118.464C41.4593 114.964 42.3294 111.53 43.5999 108.237C45.9529 102.349 49.4947 97.2299 53.8869 92.6937C58.0458 88.4442 62.8862 84.9203 68.2077 82.2678C74.361 79.1411 80.8957 77.155 87.6298 75.7596C91.6313 74.9303 95.6706 74.3329 99.7191 73.7848C104.044 73.1993 108.361 72.5516 112.682 71.9424C116.133 71.4637 119.557 70.806 122.94 69.9721C128.329 68.6888 133.479 66.5566 138.197 63.6552C144.513 59.702 149.381 54.5016 152.34 47.5775C154.365 42.8381 155.153 37.6622 154.631 32.5348C154.424 30.8264 154.105 29.1335 153.674 27.4671C152.58 22.4478 149.836 17.94 145.878 14.6639C142.689 11.9722 139.173 9.69157 135.415 7.87546C130.542 5.4788 125.187 4.22619 119.756 4.2131C118.155 4.24875 116.557 4.37813 114.97 4.60058C110.575 5.13186 106.368 6.69953 102.697 9.17453C98.621 11.8658 95.6639 15.4568 94.1677 20.16C93.122 23.4483 92.6014 26.7994 93.29 30.2291C93.6589 32.066 94.1331 33.8467 95.5154 35.308C97.2465 37.1802 99.6223 38.3278 102.165 38.5198C105.26 38.7929 108.367 38.1615 111.11 36.7024C114.156 35.2113 116.703 32.8681 118.443 29.9571C119.804 27.6498 120.473 25.1749 120.12 22.4763C120.084 22.2795 120.071 22.0792 120.082 21.8795C120.087 21.7182 120.138 21.5617 120.227 21.4276C120.317 21.2935 120.443 21.1873 120.59 21.1209C120.737 21.0546 120.9 21.0308 121.06 21.0522C121.22 21.0736 121.37 21.1394 121.495 21.2421C121.655 21.3626 121.798 21.5046 121.919 21.6642C122.962 22.9376 123.822 24.35 124.474 25.8609C125.141 27.4559 125.44 29.1804 125.35 30.9068C125.187 33.3272 124.275 35.637 122.74 37.5154C119.263 41.9156 114.66 44.2028 109.083 44.5704C108.769 44.5909 108.456 44.6094 108.123 44.6299C107.412 46.2128 106.25 47.3727 104.929 48.3649C103.662 49.3465 102.343 50.2577 100.976 51.0946C98.5973 52.5005 96.1973 53.8853 93.7242 55.1146C89.5646 57.1829 85.3593 59.1642 81.138 61.1054C75.8962 63.516 70.665 65.9437 65.5494 68.616C61.0319 70.9659 56.7187 73.6892 52.6547 76.7573C48.7199 79.7464 45.3076 83.3668 42.5565 87.4714C38.5492 93.3979 36.344 99.908 36.2918 107.103C36.2491 110.511 36.4738 113.916 36.9637 117.288C37.556 121.218 38.7791 125.026 40.5858 128.565C40.6805 128.725 40.786 128.878 40.9016 129.023ZM168.811 135.97C168.357 136.033 168.125 136.052 167.898 136.098C165.927 136.492 163.898 136.497 161.925 136.115C157.987 135.38 154.418 133.321 151.809 130.281C149.146 127.278 147.487 123.754 146.473 119.902C146.411 119.67 146.377 119.432 146.372 119.192C146.366 119.03 146.411 118.871 146.502 118.736C146.592 118.601 146.722 118.498 146.874 118.441C147.02 118.369 147.186 118.348 147.346 118.38C147.505 118.411 147.65 118.495 147.758 118.617C147.973 118.853 148.171 119.105 148.349 119.371C149.336 120.787 150.485 122.082 151.775 123.229C158.31 128.904 165.852 130.992 174.347 129.366C178.639 128.564 182.577 126.454 185.621 123.325C186.217 122.729 186.671 122.006 186.947 121.21C187.966 118.414 188.342 115.425 188.049 112.465C187.646 108.458 186.24 104.617 183.962 101.298C182.422 99.0428 180.571 97.0175 178.463 95.2822C174.075 91.6477 169.056 89.525 163.363 89.1033C159.111 88.7803 154.84 89.3907 150.848 90.8919C142.249 94.1021 136.024 99.9214 131.985 108.129C128.937 114.32 127.58 120.902 127.494 127.765C127.473 130.852 127.678 133.937 128.105 136.994C128.945 143.077 130.709 148.997 133.336 154.547C136.604 161.56 141.048 167.751 146.393 173.313C150.91 178.012 155.939 182.105 161.248 185.871C169.655 191.845 178.844 196.633 188.556 200.102C188.788 200.185 189.034 200.227 189.55 200.36C188.423 199.436 187.509 198.722 186.634 197.964C177.943 190.503 171.454 180.812 167.866 169.934C165.505 162.893 164.549 155.67 165.351 148.253C165.734 144.499 166.702 140.828 168.22 137.374C168.397 136.976 168.558 136.572 168.811 135.97ZM106.431 44.6974C106.332 44.612 106.281 44.5326 106.215 44.516C105.905 44.4392 105.593 44.3736 105.28 44.3147C101.315 43.5692 97.9651 41.7825 95.4684 38.5393C93.6235 36.2013 92.3621 33.4575 91.7887 30.535C91.6662 29.8909 91.4368 29.7805 90.9427 29.7229C90.5853 29.6813 90.2231 29.6775 89.8628 29.6637C86.8565 29.5447 83.847 29.8003 80.9037 30.4246C70.6554 32.6026 62.1459 37.6933 55.5552 45.8579C51.7594 50.5615 49.2582 55.8774 48.4944 61.937C48.4275 62.2905 48.3172 62.6344 48.1662 62.9609C48.0921 63.1723 47.9416 63.3482 47.7443 63.4541C47.5469 63.56 47.3171 63.5882 47.1 63.533C46.9023 63.5055 46.709 63.4434 46.5113 63.4178C45.082 63.2335 43.6568 62.9718 42.2218 62.8908C39.019 62.692 35.8039 62.9035 32.6547 63.5202C23.7161 65.312 16.2487 69.6425 10.4905 76.7013C3.61502 85.1296 0.788747 94.808 2.66216 105.576C4.54998 116.423 10.5398 124.526 20.1353 129.899C26.6969 133.573 33.8012 134.788 41.2532 134.173C41.4244 134.13 41.5878 134.061 41.737 133.967C41.7193 133.862 41.6909 133.759 41.6522 133.66C41.4532 133.312 41.2478 132.968 41.0408 132.625C37.6466 127.106 35.5948 120.867 35.0503 114.41C34.7604 110.894 34.6097 107.373 34.9623 103.845C35.1903 101.209 35.7273 98.6089 36.5622 96.0981C38.8797 89.4108 42.7488 83.7221 47.8443 78.8646C51.3105 75.5606 55.2429 72.8556 59.3247 70.3714C62.934 68.2098 66.6504 66.2323 70.4596 64.4465C75.2662 62.1517 80.1108 59.935 84.9478 57.7051C90.2033 55.3244 95.3305 52.6701 100.308 49.7529C102.05 48.7592 103.684 47.5874 105.184 46.2563C105.713 45.8382 106.139 45.3051 106.431 44.6974ZM47.4997 58.5521C47.3121 58.4615 47.1167 58.3878 46.916 58.3319C45.6474 58.1537 44.3819 57.9124 43.1084 57.8334C40.2302 57.617 37.3382 57.667 34.4693 57.9828C30.6818 58.4102 26.9846 59.4283 23.5123 61.0001C12.1534 66.2591 5.24623 75.1274 2.41803 87.2555C2.37729 87.4869 2.34994 87.7204 2.33611 87.9549C2.52603 87.7663 2.66544 87.5329 2.74151 87.2763C5.59919 79.1901 11.0845 72.2949 18.3211 67.6923C24.6944 63.5071 32.1572 61.2876 39.7817 61.3095C41.7449 61.2865 43.7063 61.4345 45.6438 61.7517C46.0304 61.8183 46.4271 61.8228 46.8936 61.8621C47.1019 60.7278 47.2942 59.6803 47.4997 58.5521ZM121.751 24.3724C121.685 24.924 121.646 25.4804 121.548 26.0266C121.147 28.1597 120.27 30.1748 118.982 31.922C116.479 35.4453 112.878 38.0391 108.743 39.2973C105.461 40.3385 102.15 40.5033 98.845 39.3328C98.6394 39.3074 98.4315 39.3056 98.2255 39.3277C98.7314 39.7373 99.0575 40.0256 99.4062 40.2796C101.665 41.9002 104.337 42.8486 107.112 43.0154C111.498 43.3456 115.408 42.0199 118.855 39.3312C120.756 37.9038 122.235 35.9885 123.135 33.7884C124.477 30.414 123.815 27.3004 121.751 24.3724ZM96.1592 151.908C96.0849 151.884 96.008 151.869 95.9301 151.864C95.8129 151.886 95.6983 151.92 95.588 151.965C91.3609 153.916 86.8281 155.119 82.1903 155.523C78.7575 155.853 75.2988 155.804 71.8768 155.376C68.2969 154.928 64.7839 154.051 61.4138 152.763C61.2218 152.69 61.018 152.65 60.8196 152.595C60.9346 152.775 61.095 152.922 61.2849 153.021C67.1781 156.484 73.7714 158.584 80.5815 159.168C83.3393 159.404 86.1139 159.355 88.8617 159.022C91.8073 158.678 94.6969 157.96 97.4605 156.884C97.7089 156.769 97.9501 156.639 98.1827 156.494C97.7958 155.669 97.4263 154.914 97.0877 154.146C96.7524 153.385 96.4494 152.611 96.1592 151.908ZM219.639 100.203C219.443 100.395 219.328 100.491 219.232 100.605C216.561 103.705 213.546 106.491 210.245 108.91C206.402 111.769 202.31 114.192 197.804 115.866C195.276 116.805 192.694 117.502 189.965 117.459C189.826 117.473 189.689 117.5 189.556 117.54C189.228 118.795 188.897 120.063 188.569 121.332C188.562 121.372 188.57 121.413 188.591 121.448C188.616 121.478 188.646 121.504 188.68 121.524C201.65 120.69 214.375 111.801 219.639 100.203ZM149.134 122.779C149.162 122.952 149.2 123.123 149.249 123.291C150.159 125.519 151.444 127.575 153.047 129.37C155.119 131.733 157.83 133.446 160.854 134.304C163.182 134.953 165.544 134.863 167.886 134.586C171.106 134.162 174.236 133.225 177.16 131.812C179.025 130.972 180.739 129.829 182.23 128.429C182.378 128.271 182.516 128.104 182.644 127.929C177.342 130.946 171.171 132.072 165.145 131.122C158.94 130.197 153.622 127.454 149.134 122.779Z" fill="white" fill-opacity="0.75"/>
<path d="M36.7167 48.5547C36.4944 48.5464 36.2825 48.4583 36.1199 48.3066C35.9572 48.1549 35.8545 47.9497 35.8307 47.7285C35.7277 47.1369 35.6688 46.5376 35.5859 45.9422C34.9899 41.3673 33.7585 36.8979 31.9271 32.6635C31.2918 31.1903 30.5187 29.7804 29.6182 28.4527C28.9555 27.4469 28.1515 26.5417 27.2309 25.7649C26.431 25.1183 25.5671 24.6607 24.4897 24.7298C24.2108 24.7414 23.9327 24.6911 23.6754 24.5827C23.566 24.5327 23.4718 24.4546 23.4025 24.3563C23.3331 24.258 23.2911 24.1431 23.2808 24.0232C23.2705 23.9034 23.2922 23.7829 23.3437 23.6742C23.3952 23.5655 23.4747 23.4724 23.574 23.4045C23.845 23.2368 24.1549 23.1425 24.4734 23.131C27.3851 23.1508 29.4649 21.6306 31.2033 19.5006C32.3465 18.0495 33.2622 16.4328 33.9189 14.7062C34.9683 12.0586 35.6832 9.29039 36.047 6.46573C36.2755 4.75998 36.3903 3.03918 36.5551 1.32479C36.5666 1.20513 36.5615 1.08386 36.5769 0.964829C36.6565 0.356889 36.9119 0.0199624 37.3026 0.000124388C37.5834 -0.0038769 37.8572 0.0887633 38.0779 0.262526C38.2986 0.436289 38.4529 0.68062 38.5149 0.95459C38.5421 1.19354 38.5509 1.43422 38.5415 1.67452C38.5362 4.24107 38.7795 6.80209 39.2678 9.32177C39.7999 12.3246 40.7732 15.2323 42.1562 17.9504C42.7215 19.0581 43.4074 20.1001 44.2014 21.0572C45.3642 22.4309 46.7045 23.5389 48.5251 23.9238C48.6818 23.9584 48.834 24.0107 48.9788 24.0797C49.1099 24.1325 49.2221 24.2237 49.3007 24.3412C49.3793 24.4587 49.4206 24.5971 49.4194 24.7385C49.4268 24.8801 49.3941 25.0209 49.3251 25.1447C49.256 25.2686 49.1534 25.3704 49.0291 25.4386C48.851 25.5286 48.6603 25.5909 48.4634 25.6232C47.1292 25.9412 45.9141 26.6348 44.962 27.622C44.0098 28.5429 43.1724 29.5754 42.4681 30.6973C39.9968 34.607 38.4074 39.0083 37.8103 43.5949C37.6465 44.7813 37.635 45.9889 37.547 47.1865C37.5377 47.465 37.5013 47.7419 37.4382 48.0133C37.3885 48.167 37.2925 48.3015 37.1633 48.3984C37.0341 48.4953 36.8781 48.5499 36.7167 48.5547ZM37.4206 8.03389C37.0571 9.50575 36.7506 10.9136 36.3574 12.2994C35.6415 15.0192 34.4429 17.5883 32.8185 19.8842C31.6438 21.5704 30.0636 22.9338 28.2235 23.8487C28.0749 23.9351 27.9348 24.0353 27.8049 24.1478C28.4977 24.8614 29.1658 25.4962 29.7718 26.1854C30.8592 27.473 31.7835 28.89 32.5235 30.4042C34.1366 33.6337 35.3513 37.0473 36.1407 40.5699C36.2223 40.9126 36.3327 41.2482 36.4962 41.8178C36.6332 41.2607 36.7132 40.9538 36.7842 40.6438C37.7153 36.5837 39.208 32.7601 41.5744 29.3086C42.6708 27.6226 44.0956 26.1747 45.7638 25.0514C45.8975 24.9653 46.0425 24.8962 46.2626 24.7746C43.6069 23.1428 41.961 20.903 40.6571 18.3724C39.718 16.5551 38.9872 14.6375 38.4784 12.6562C38.0926 11.1433 37.7803 9.61294 37.4206 8.03389Z" fill="white" fill-opacity="0.75"/>
<path d="M212.397 183.483C212.175 183.475 211.963 183.387 211.8 183.235C211.638 183.084 211.535 182.878 211.511 182.657C211.408 182.066 211.349 181.466 211.266 180.871C210.67 176.296 209.439 171.827 207.607 167.592C206.972 166.119 206.199 164.709 205.299 163.381C204.636 162.376 203.832 161.47 202.911 160.694C202.111 160.047 201.247 159.589 200.17 159.659C199.891 159.67 199.613 159.62 199.356 159.511C199.246 159.461 199.152 159.383 199.083 159.285C199.014 159.187 198.972 159.072 198.961 158.952C198.951 158.832 198.973 158.712 199.024 158.603C199.076 158.494 199.155 158.401 199.254 158.333C199.525 158.165 199.836 158.071 200.154 158.06C203.067 158.08 205.146 156.559 206.884 154.429C208.027 152.978 208.943 151.362 209.599 149.635C210.649 146.987 211.364 144.219 211.727 141.394C211.956 139.689 212.071 137.968 212.235 136.254C212.247 136.134 212.242 136.013 212.257 135.894C212.337 135.286 212.592 134.949 212.983 134.929C213.264 134.925 213.538 135.018 213.758 135.191C213.979 135.365 214.133 135.609 214.195 135.883C214.222 136.122 214.231 136.363 214.222 136.603C214.217 139.17 214.46 141.731 214.948 144.25C215.48 147.254 216.453 150.162 217.837 152.88C218.402 153.988 219.088 155.03 219.882 155.987C221.045 157.361 222.385 158.469 224.205 158.854C224.362 158.888 224.514 158.941 224.659 159.01C224.79 159.063 224.902 159.154 224.981 159.271C225.06 159.389 225.101 159.527 225.1 159.668C225.107 159.81 225.074 159.951 225.005 160.075C224.936 160.199 224.834 160.3 224.709 160.369C224.531 160.459 224.341 160.521 224.144 160.553C222.81 160.871 221.594 161.565 220.642 162.552C219.69 163.473 218.853 164.505 218.149 165.627C215.677 169.537 214.088 173.938 213.491 178.525C213.327 179.711 213.315 180.919 213.227 182.117C213.218 182.395 213.182 182.672 213.119 182.943C213.069 183.097 212.973 183.231 212.843 183.328C212.714 183.424 212.559 183.479 212.397 183.483ZM213.101 142.963C212.737 144.434 212.429 145.842 212.038 147.228C211.322 149.948 210.123 152.517 208.499 154.813C207.324 156.499 205.744 157.863 203.904 158.777C203.755 158.864 203.615 158.964 203.486 159.077C204.178 159.79 204.846 160.425 205.452 161.114C206.54 162.402 207.464 163.819 208.204 165.333C209.816 168.562 211.031 171.976 211.819 175.498C211.901 175.841 212.011 176.176 212.175 176.746C212.312 176.189 212.392 175.882 212.463 175.572C213.394 171.512 214.886 167.688 217.253 164.237C218.349 162.551 219.774 161.103 221.442 159.979C221.576 159.893 221.721 159.824 221.941 159.703C219.286 158.071 217.639 155.831 216.336 153.3C215.396 151.483 214.666 149.566 214.157 147.584C213.772 146.072 213.46 144.542 213.101 142.963Z" fill="white" fill-opacity="0.75"/>
<path d="M90.3199 111.129C90.3533 111.31 90.3194 111.497 90.2248 111.654C90.1302 111.811 89.9812 111.929 89.806 111.984C89.4956 112.06 89.1768 112.095 88.8574 112.09C86.5405 112.038 84.7957 113.13 83.3625 114.832C82.1519 116.336 81.2712 118.078 80.7775 119.944C80.1287 122.179 79.8008 124.495 79.8035 126.822C79.8131 127.222 79.7869 127.621 79.7251 128.016C79.6972 128.156 79.6222 128.282 79.5126 128.373C79.403 128.465 79.2654 128.516 79.1226 128.519C78.9822 128.546 78.8366 128.524 78.7109 128.455C78.5853 128.387 78.4874 128.277 78.4341 128.144C78.2111 127.545 78.0294 126.932 77.8901 126.309C77.4662 124.226 76.7881 122.203 75.8711 120.286C74.632 117.351 72.6288 114.802 70.0701 112.904C69.6455 112.564 69.1537 112.318 68.6272 112.182C68.1006 112.047 67.5512 112.024 67.0153 112.117C66.7394 112.165 66.4605 112.196 66.1805 112.208C66.0189 112.21 65.86 112.166 65.7215 112.083C65.5831 111.999 65.4705 111.879 65.3963 111.736C65.323 111.639 65.276 111.525 65.26 111.405C65.244 111.285 65.2595 111.162 65.305 111.05C65.3505 110.938 65.4244 110.839 65.5195 110.764C65.6146 110.689 65.7276 110.639 65.8475 110.621C66.3578 110.517 66.8764 110.459 67.3971 110.447C69.6048 110.443 71.4287 109.504 73.04 108.106C75.1409 106.285 76.3773 103.931 77.0576 101.269C77.466 99.757 77.6057 98.1846 77.4703 96.6239C77.4063 95.9865 77.3887 95.344 77.3503 94.704C77.3455 94.624 77.3375 94.5441 77.3401 94.4641C77.3561 93.9774 77.6079 93.6357 77.9874 93.5829C78.2082 93.5562 78.4313 93.6099 78.6157 93.7342C78.8002 93.8586 78.9337 94.0452 78.9918 94.2599C79.037 94.4953 79.0567 94.7348 79.0506 94.9744C79.067 95.7743 79.0765 96.5775 79.0845 97.3787C79.1074 100.277 79.8455 103.124 81.2331 105.669C81.9141 106.993 82.8749 108.154 84.0489 109.07C85.3012 110.019 86.6857 110.579 88.2888 110.464C88.8072 110.386 89.3371 110.455 89.8185 110.662C90.0089 110.791 90.178 110.949 90.3199 111.129ZM84.8894 111.487C82.3937 109.635 81.1692 109.638 78.2216 102.793C77.5971 104.637 76.6446 106.353 75.41 107.858C74.1079 109.378 72.4794 110.584 70.646 111.386C74.6101 114.22 76.7894 118.171 78.5422 122.715C78.6606 122.25 78.7281 122.038 78.7681 121.819C79.0855 120.001 79.6519 118.235 80.4515 116.571C81.4037 114.631 82.6858 112.965 84.5298 111.78C84.6552 111.689 84.7753 111.591 84.8894 111.487Z" fill="white" fill-opacity="0.75"/>
<path d="M202.616 63.2639C202.484 63.4843 202.32 63.6843 202.129 63.8575C201.917 63.9671 201.683 64.0289 201.445 64.0386C200.527 64.1851 199.682 64.6268 199.038 65.2967C198.22 66.1292 197.6 67.1354 197.224 68.2404C196.833 69.4209 196.6 70.6483 196.534 71.8903C196.523 72.1297 196.496 72.3681 196.453 72.6038C196.424 72.7431 196.351 72.8692 196.244 72.9628C196.136 73.0563 196.001 73.1122 195.859 73.1218C195.718 73.1476 195.573 73.1223 195.449 73.0507C195.324 72.979 195.23 72.8655 195.181 72.7305C195.021 72.2377 194.899 71.7333 194.816 71.2218C194.739 70.7489 194.78 70.2549 194.685 69.7871C194.511 68.776 194.135 67.8103 193.58 66.9473C193.026 66.0843 192.303 65.3417 191.455 64.7636C190.903 64.4445 190.323 64.1767 189.722 63.9637C189.431 63.8357 189.112 63.7675 188.832 63.622C188.705 63.5569 188.601 63.4548 188.534 63.3294C188.467 63.2039 188.44 63.061 188.456 62.9196C188.459 62.7776 188.507 62.6401 188.593 62.5273C188.679 62.4144 188.799 62.3319 188.936 62.2918C189.239 62.1939 189.554 62.1296 189.866 62.058C190.969 61.8203 191.992 61.3032 192.838 60.5563C193.517 59.9858 194.048 59.26 194.387 58.4405C194.726 57.6209 194.863 56.7318 194.785 55.8483C194.753 55.409 194.67 54.9729 194.652 54.5333C194.643 54.4326 194.654 54.3309 194.684 54.2345C194.715 54.1381 194.765 54.049 194.831 53.9724C194.897 53.8959 194.978 53.8335 195.069 53.7891C195.16 53.7447 195.259 53.7192 195.36 53.7141C195.576 53.6596 195.805 53.6894 196.001 53.7976C196.196 53.9057 196.343 54.0841 196.412 54.2965C196.46 54.5719 196.487 54.8507 196.492 55.1303C196.564 56.6167 196.959 58.0696 197.65 59.3881C197.961 59.9473 198.325 60.4752 198.737 60.9646C199.042 61.3664 199.435 61.6923 199.886 61.9168C200.337 62.1413 200.834 62.2583 201.338 62.2586C201.539 62.2444 201.74 62.2826 201.921 62.3694C202.103 62.4563 202.259 62.5887 202.374 62.7539C202.468 62.9173 202.549 63.0878 202.616 63.2639ZM199.092 63.3052C198.631 62.9148 198.285 62.6473 197.97 62.3475C197.678 62.0745 197.408 61.7792 197.162 61.4644C196.895 61.1166 196.674 60.7346 196.433 60.3669C196.209 60.023 196.116 59.5878 195.777 59.2685C195.677 59.3777 195.584 59.4938 195.5 59.616C194.757 60.953 193.643 62.0465 192.292 62.7644C192.139 62.8731 191.998 62.9977 191.871 63.1362C192.319 63.4882 192.71 63.7643 193.067 64.0814C193.428 64.3962 193.766 64.7372 194.078 65.1015C194.41 65.4986 194.686 65.942 194.993 66.3602C195.264 66.7292 195.352 67.2277 195.814 67.5889C196.53 65.8617 197.477 64.402 199.092 63.3052Z" fill="white" fill-opacity="0.75"/>
<path d="M95.934 147.586C95.9343 147.744 95.8748 147.896 95.7675 148.012C95.6602 148.127 95.5131 148.198 95.3558 148.209C95.2581 148.215 95.1603 148.199 95.0692 148.163C94.9781 148.128 94.8959 148.073 94.8282 148.002C94.7605 147.931 94.709 147.847 94.6772 147.754C94.6454 147.661 94.6342 147.563 94.6442 147.466C94.6574 147.308 94.7308 147.161 94.849 147.056C94.9672 146.951 95.1214 146.895 95.2796 146.9C95.3678 146.901 95.4548 146.92 95.5356 146.956C95.6164 146.991 95.6893 147.043 95.7502 147.106C95.811 147.17 95.8586 147.246 95.8902 147.328C95.9217 147.41 95.9366 147.498 95.934 147.586Z" fill="white" fill-opacity="0.75"/>
<path d="M119.478 18.9897C119.578 18.9866 119.676 19.0037 119.768 19.0401C119.861 19.0765 119.944 19.1313 120.015 19.2013C120.085 19.2712 120.14 19.3548 120.177 19.4468C120.213 19.5389 120.231 19.6374 120.228 19.7365C120.218 19.9145 120.146 20.0832 120.024 20.2136C119.902 20.344 119.739 20.4279 119.562 20.4507C119.343 20.4476 119.135 20.3582 118.981 20.2018C118.828 20.0454 118.743 19.8348 118.744 19.6159C118.766 19.4386 118.854 19.276 118.99 19.1601C119.126 19.0442 119.3 18.9834 119.478 18.9897Z" fill="white" fill-opacity="0.75"/>
<path d="M146.228 116.065C146.227 116.163 146.206 116.261 146.166 116.351C146.125 116.441 146.066 116.521 145.993 116.587C145.919 116.653 145.832 116.702 145.739 116.733C145.645 116.763 145.545 116.773 145.447 116.763C145.329 116.763 145.212 116.739 145.103 116.693C144.995 116.646 144.897 116.578 144.816 116.492C144.735 116.406 144.672 116.304 144.632 116.193C144.591 116.082 144.574 115.964 144.582 115.846C144.585 115.747 144.608 115.651 144.649 115.561C144.69 115.472 144.748 115.391 144.821 115.324C144.893 115.258 144.978 115.206 145.07 115.172C145.163 115.138 145.261 115.123 145.36 115.128C145.598 115.14 145.822 115.245 145.984 115.42C146.146 115.595 146.233 115.826 146.228 116.065Z" fill="white" fill-opacity="0.75"/>
<path d="M426 347.578L378 300.578C365.408 274.894 354.975 262.245 326 245.078C300.372 233.029 286.39 226.154 262.5 213.578C255.887 209.278 253.049 208.546 251 213.078C249.038 223.328 252.054 228.123 260 236.078C270.376 243.835 277.455 248.067 290.499 255.578C292.811 257.215 294.777 258.744 296.5 260.283M308 277.078C304.542 269.423 301.577 264.816 296.5 260.283M296.5 260.283L290.499 271.078L247.5 269.578M247.5 269.578C245.741 262.914 244.706 259.484 242.5 255.578C240.047 252.631 238.397 250.825 236.295 250.034M247.5 269.578C248.739 278.054 249.364 282.553 249.5 287.078M230 270.578L231 293.078C230.929 297.116 231.314 298.794 232.5 301.078C238.417 309.745 242.04 314.489 249.5 322.578L254.055 328.5M230 270.578L220 253C215.795 246.982 212.541 245.098 207 245.078C204.662 245.508 204.478 246.97 205 250.5L208.707 263M230 270.578V265.5M366 349.578C358.937 353.953 353.493 356.172 346.5 356.674M249.5 287.078L271.5 286.078M249.5 287.078L259.3 301.078M284.5 324.078C277.209 319.767 273.091 317.374 267 312.078C263.517 307.906 261.757 305.515 259.3 301.078M259.3 301.078L275 303.578M254.055 328.5L264.5 342.078C267.807 346.985 270.05 348.451 274.5 349.578C282.263 351.644 287.687 352.385 299 353.078C313.102 353.095 320.678 353.7 333.5 356.078C338.595 356.721 342.768 356.942 346.5 356.674M254.055 328.5C230.138 313.77 222.413 307.664 220 301.078L219.383 299M208.707 263C191.431 258.673 180.689 255.313 177 263C176.235 265.024 176.321 265.982 177 267.5M208.707 263L209.203 264.672M177 267.5C172.355 268.039 169.912 268.564 167 271.5C165.463 274.046 166.148 275.188 168 277C183.947 286.022 195.925 290.963 219.383 299M177 267.5C180.792 267.14 181.867 267.403 183.5 268C193.355 271.065 200.388 273.79 213.452 279M219.383 299L213.452 279M213.452 279L209.203 264.672M346.5 356.674C358.489 372.554 365.743 381.209 379 396.5M282.5 315.5C278.421 301.113 276.263 292.988 273.5 278M230 265.5V254.578C230.4 251.024 231.342 250.018 234 249.578C234.846 249.621 235.595 249.771 236.295 250.034M230 265.5C231.853 265.648 232.977 265.689 235.5 265.5C236.445 265.273 236.866 265.038 237 264C237.137 258.801 237.012 255.762 236.295 250.034M209.203 264.672C210.989 263.851 212.02 263.311 214 262C215.383 261.053 215.677 260.365 215.5 259C213.811 253.731 212.768 250.776 210.5 245.5" stroke="white"/>
<path d="M336 321.5C325.164 311.342 320.544 304.12 313 290.5" stroke="white"/>
</svg>
