<svg width="548" height="498" viewBox="0 0 548 498" fill="none" xmlns="http://www.w3.org/2000/svg">
<path d="M548.771 406.532C481.273 380.995 444.523 365.353 380.771 331.532C363.271 320.032 358.771 313.032 348.771 301.032C343.145 296.473 339.271 294.532 332.771 292.032C325.271 287.032 323.605 283.122 322.271 276.532C317.271 265.032 315.694 257.811 313.271 245.532C311.473 225.611 309.296 214.617 305.271 195.032C302.98 187.95 298.412 183.781 290.771 182.032C282.771 177.532 274.799 168.369 269.771 154.032C267.277 149.289 264.271 145.532 260.271 142.532C250.923 139.051 246.241 133.004 235.771 118.032C225.271 112.032 216.985 104.996 204.271 89.0321C190.798 72.1196 181.478 61.5414 171.271 54.5321C163.808 52.1879 156.45 52.3832 143.771 52.5321L154.271 73.0321M154.271 73.0321L170.771 97.0321M154.271 73.0321L132.771 45.0321C118.771 29.0321 96.2707 19.5321 65.2707 9.53207M65.2707 9.53207L50.7705 4.32687M65.2707 9.53207C65.2707 9.53207 61.5821 10.0729 61.7705 10.0322C61.9589 9.99157 61.0005 9.97752 60.2705 10.5322C59.5405 11.0869 58.2705 12.0322 58.2705 12.0322L54.7705 13.0322C42.2931 13.6811 32.621 14.4969 29.7707 13.5321M29.7707 13.5321C31.8459 23.733 35.9273 28.5209 44.7707 36.5321C59.8944 46.8347 68.1604 52.9448 82.2707 65.0321C91.7872 78.5958 95.7676 86.4215 100.271 101.032C107.885 119.431 110.711 129.717 115.271 148.032C118.99 172.518 117.831 183.946 109.771 200.032C101.128 210.281 95.3529 212.002 83.7707 209.532C65.9295 205.767 56.372 202.228 40.2707 194.032C28.1009 188.135 19.8398 186.415 12.3765 189.532M29.7707 13.5321C29.5955 12.8058 29.4568 12.1494 29.3506 11.5322M11.2707 190.032C8.50047 188.623 6.97881 187.64 5.32284 187.858M11.2707 190.032C11.6376 189.854 12.006 189.687 12.3765 189.532M11.2707 190.032L12.3765 189.532M372.271 497.532C357.287 484.979 348.851 477.947 334.771 465.032C299.337 433.951 279.058 416.732 235.771 389.532C205.178 371.246 188.273 360.832 159.771 341.032C131.048 321.304 115.194 309.983 88.7707 288.032C72.513 274.726 63.0049 267.337 43.7707 254.532C22.5642 240.575 12.4564 233.357 9.27051 227.141M29.3506 11.5322C28.9725 9.3351 29.006 7.63323 29.2707 5.03207C29.6556 0.288862 33.8629 0.111096 45.7707 2.53207L50.7705 4.32687M29.3506 11.5322L31.7705 10.5322L34.7705 8.53223L40.2705 6.53223L42.7705 5.53223L45.7707 5.03207L47.7705 4.53223H49.7705L50.7705 4.32687M5.32284 220.032C3.29216 215.045 2.38363 209.693 2.27085 209.532C2.10736 209.299 -0.800599 194.671 2.7707 189.032C3.745 188.325 4.5486 187.961 5.32284 187.858M5.32284 220.032C6.23564 222.274 7.37518 224.442 8.7711 226.032C8.91327 226.399 9.07944 226.768 9.27051 227.141M5.32284 220.032L9.77051 206.032C12.2504 199.105 11.8351 195.149 5.32284 187.858M12.3765 189.532C16.8332 194.169 17.587 197.867 17.2705 205.532C14.8042 218.668 13.3607 225.614 9.27051 227.141" stroke="white"/>
<path d="M52.815 7.04883C50.5554 7.53675 48.3146 8.08669 46.0866 8.70294C45.6377 8.82711 45.1824 8.94865 44.7559 9.13824" stroke="white" stroke-width="3" stroke-linecap="round"/>
<path d="M53.9719 8.69043C51.5835 9.34641 49.1758 10.0509 46.6963 10.2575" stroke="white" stroke-width="3" stroke-linecap="round"/>
<path d="M54.457 8.24316C53.4137 8.32117 52.3656 8.25194 51.3208 8.29291C50.0272 8.34364 48.6826 8.36608 47.4053 8.57896" stroke="black" stroke-width="3" stroke-linecap="round"/>
<path d="M49.793 8.1686C50.6668 7.98196 51.5123 7.87012 52.4047 7.87012" stroke="white" stroke-width="3" stroke-linecap="round"/>
<path d="M52.405 7.87012C49.5365 8.29483 46.669 8.73023 43.7861 9.04748C43.3913 9.09094 44.1964 8.99909 44.2712 8.98944" stroke="white" stroke-width="3" stroke-linecap="round"/>
<path d="M48.1517 7.79492C46.8819 7.94168 45.6035 8.06184 44.3419 8.27167C44.0691 8.31705 43.8193 8.37589 43.5625 8.46652" stroke="white" stroke-width="3" stroke-linecap="round"/>
<path d="M47.1063 7.08594C45.7898 7.42619 44.477 7.79506 43.1514 8.09333" stroke="white" stroke-width="3" stroke-linecap="round"/>
<path d="M45.0921 6.9375C43.6215 7.12823 42.1566 7.35624 40.6895 7.57178" stroke="white" stroke-width="3" stroke-linecap="round"/>
<path d="M45.3535 6.07873C45.7684 6.06741 46.1726 6.01176 46.5848 5.9668" stroke="white" stroke-width="3" stroke-linecap="round"/>
<path d="M48.8232 5.66895H48.9725" stroke="white" stroke-width="3" stroke-linecap="round"/>
<path d="M50.3154 6.56408C50.6902 6.5191 51.0582 6.4797 51.4348 6.45215" stroke="white" stroke-width="3" stroke-linecap="round"/>
<path d="M50.3525 5.44434C50.9722 5.48189 51.3725 5.93442 51.9196 6.15324" stroke="white" stroke-width="3" stroke-linecap="round"/>
<path d="M51.957 6.22852C52.6414 6.99843 53.3981 7.71481 54.1584 8.40913C54.3393 8.57436 54.5101 8.74764 54.718 8.87759" stroke="white" stroke-width="3" stroke-linecap="round"/>
<path d="M55.3523 8.5791C53.6698 9.05887 51.9899 9.55533 50.2946 9.98862C49.6455 10.1545 49.0037 10.3034 48.3379 10.37" stroke="white" stroke-width="3" stroke-linecap="round"/>
<path d="M45.7637 9.84766H49.7932" stroke="white" stroke-width="3" stroke-linecap="round"/>
<path d="M47.7037 9.21289C46.2178 9.37068 44.7416 9.62513 43.2637 9.80986" stroke="white" stroke-width="3" stroke-linecap="round"/>
<path d="M44.943 9.06348C43.5447 9.25635 42.1454 9.44342 40.7496 9.65423C40.5989 9.677 40.4611 9.6989 40.3164 9.73507" stroke="white" stroke-width="3" stroke-linecap="round"/>
<path d="M42.0696 8.72754C40.3105 8.99506 38.5421 9.2967 36.7715 9.47376" stroke="white" stroke-width="3" stroke-linecap="round"/>
<path d="M39.7942 8.16797C39.3595 8.27254 38.9248 8.37207 38.4883 8.46646" stroke="white" stroke-width="3" stroke-linecap="round"/>
<path d="M39.0105 8.13086C38.1496 8.585 37.3454 9.19262 36.6973 9.92178" stroke="white" stroke-width="3" stroke-linecap="round"/>
<path d="M36.5107 10.2578V10.3324" stroke="white" stroke-width="3" stroke-linecap="round"/>
<path d="M35.6895 10.5566C35.555 10.5987 35.437 10.6456 35.3164 10.7059" stroke="white" stroke-width="3" stroke-linecap="round"/>
<path d="M35.2795 10.7051L35.2422 10.5186" stroke="white" stroke-width="3" stroke-linecap="round"/>
<path d="M35.167 9.99707V10.1463" stroke="white" stroke-width="3" stroke-linecap="round"/>
<path d="M33.4514 11.7871H33.4141" stroke="white" stroke-width="3" stroke-linecap="round"/>
<path d="M34.4212 11.0039C33.6156 11.1216 32.9746 11.7318 32.2199 12.0113C31.8934 12.1322 31.6414 12.2725 31.2871 12.2725" stroke="white" stroke-width="3" stroke-linecap="round"/>
<path d="M46.2484 10.332C45.5139 10.6662 44.7801 10.9523 44.0118 11.2026C43.098 11.5003 42.2079 11.641 41.2611 11.7809C40.4928 11.8945 39.7198 12.001 38.9479 12.0856C38.1796 12.1699 37.4027 12.0614 36.6346 12.1312C35.6567 12.2201 34.695 12.2722 33.7119 12.2722" stroke="white" stroke-width="3" stroke-linecap="round"/>
<path d="M56.7328 7.94466C56.252 7.94466 55.7711 7.94466 55.2902 7.94466C55.172 7.94466 55.043 7.95756 54.9253 7.93637C54.7518 7.90514 54.4771 7.7202 54.3843 7.56948C54.3443 7.5045 54.3254 7.43192 54.289 7.36635C54.206 7.21692 54.8181 7.42006 54.8258 7.42231C55.4336 7.60026 56.0786 7.71363 56.6665 7.94881C56.9089 8.04574 57.1325 8.1883 57.3713 8.29497C57.4732 8.3405 57.5585 8.40448 57.6304 8.48982C57.7891 8.67828 57.9741 8.78265 58.2087 8.86085C58.3965 8.92346 58.6291 8.86324 58.8243 8.87951C59.0893 8.90159 59.3138 8.99839 59.5685 9.02668" stroke="white" stroke-width="3" stroke-linecap="round"/>
<path d="M54.3451 10.1081C52.4026 10.2557 50.4694 10.4817 48.5412 10.7548C47.4053 10.9156 46.2638 10.9402 45.1293 11.0864C44.2653 11.1978 43.4097 11.4077 42.5383 11.4512C42.3496 11.4607 42.1776 11.5283 41.9931 11.559C41.7454 11.6003 41.4954 11.6133 41.249 11.6668C41.1294 11.6928 40.9276 11.7086 41.1246 11.8244C41.6362 12.1248 42.1356 12.0855 42.7041 12.0855C44.1579 12.0855 45.6116 12.0855 47.0653 12.0855C47.6144 12.0855 48.1524 12.0726 48.6904 11.9736C49.2738 11.8663 49.9048 11.7497 50.4938 11.7497C51.1054 11.7497 51.7444 11.7683 52.3303 11.5632C52.7606 11.4126 53.2398 11.2198 53.6922 11.1528C53.9391 11.1162 54.1669 10.98 54.399 10.8937C54.632 10.807 54.873 10.7295 55.1121 10.6636C55.2559 10.6239 55.512 10.5593 55.6303 10.4625C55.6911 10.4127 56.0067 10.3324 55.8293 10.4356C55.467 10.6462 55.018 10.7923 54.6208 10.9248C54.5062 10.963 54.4031 11.0268 54.6063 11.0388C54.9961 11.0617 55.3456 10.8925 55.7235 10.846C56.3709 10.7663 56.9637 10.4445 57.558 10.2013C57.8398 10.086 58.1504 9.96651 58.412 9.80957" stroke="white" stroke-width="3" stroke-linecap="round"/>
<path d="M58.8975 9.43707C59.1891 9.43707 59.4961 9.46408 59.7846 9.4122C59.9829 9.37655 60.1778 9.32427 60.3775 9.29612C60.4248 9.28944 60.488 9.2976 60.5308 9.27124C60.6794 9.17982 60.9172 9.17589 61.1009 9.17589C61.2771 9.17589 61.4704 9.15455 61.646 9.17797C61.8904 9.21055 62.0804 9.28783 62.3301 9.28783" stroke="white" stroke-width="2" stroke-linecap="round"/>
<path d="M60.2777 9.54883C60.1659 9.64821 59.8299 9.72459 59.8299 9.92194C59.8299 9.99478 59.9003 9.99781 59.9336 10.0422C59.9661 10.0855 59.9419 10.2028 59.9419 10.2577C59.9419 10.2924 59.8668 10.3615 59.9004 10.3531C60.0461 10.3167 60.1434 10.1487 60.2694 10.0712C60.3935 9.99477 60.141 10.2896 60.1118 10.3241C60.0406 10.4085 59.9668 10.4711 59.9046 10.5645C59.6684 10.9188 59.1854 10.8503 58.8599 11.0703C58.6182 11.2336 58.2784 11.1943 58.0059 11.2444C57.7145 11.298 57.4379 11.3024 57.1436 11.3024" stroke="white" stroke-width="2" stroke-linecap="round"/>
<path d="M12.7656 197.219C12.4948 198.396 12.4198 199.458 12.4622 200.646C12.4858 201.305 12.4551 199.328 12.4651 198.669C12.4764 197.919 12.5684 197.202 12.7347 196.472C12.7894 196.232 12.7775 196.021 13.0494 196.062C13.5311 196.133 13.5011 197.408 13.5634 197.775C13.6781 198.452 13.7264 199.102 13.7264 199.787C13.7264 200.582 13.5747 201.373 13.5747 202.174" stroke="white" stroke-width="2" stroke-linecap="round"/>
<path d="M14.4343 198.534C14.4648 199.976 14.4998 201.392 14.3585 202.827C14.3018 203.402 14.1017 204.156 14.2405 204.734C14.2793 204.896 14.4025 204.442 14.4624 204.287C14.7135 203.637 14.9921 203.004 15.2714 202.366C15.5575 201.712 15.6669 201.088 15.7883 200.394C15.8625 199.97 15.8777 199.535 15.9232 199.107C15.9298 199.045 15.9293 198.611 16.0299 198.568C16.1689 198.508 16.254 199.688 16.2546 199.765C16.2595 200.315 16.2469 200.847 16.0524 201.366" stroke="white" stroke-width="2" stroke-linecap="round"/>
<path d="M15.8506 203.742C15.5127 204.525 15.1356 205.308 14.887 206.127C14.7599 206.545 14.7264 206.971 14.6539 207.399C14.5398 208.074 14.4079 208.769 14.255 209.436C14.2405 209.499 14.1835 209.659 14.1539 209.602C14.0074 209.317 14.0682 208.661 14.0359 208.371C13.9488 207.589 13.8381 206.81 13.7409 206.029C13.6936 205.648 13.6991 205.192 13.5976 204.815C13.4447 204.247 12.7765 205.884 12.7549 205.939C12.6103 206.306 12.3223 207.434 12.3223 207.04C12.3223 205.89 12.8149 204.758 13.0808 203.658C13.1677 203.298 13.4483 202.459 13.2184 202.076C13.1294 201.928 13.0129 201.883 12.8504 201.983C12.2285 202.369 11.9875 203.341 11.929 204.012C11.8438 204.987 12.2189 205.859 12.2099 206.821C12.2047 207.379 12.0806 207.88 11.8504 208.391C11.563 209.028 11.3284 209.683 11.0469 210.321C10.7287 211.042 10.1912 211.673 9.89519 212.4C9.7923 212.652 9.65936 212.922 9.5918 213.186C9.51736 213.478 9.53067 212.547 9.53281 212.459C9.5486 211.812 9.71621 211.182 9.81092 210.546C9.858 210.23 9.87656 209.85 10.0076 209.557C10.1167 209.313 10.2301 209.081 10.3109 208.824C10.4189 208.48 10.4727 208.113 10.5301 207.759C10.6157 207.23 10.7528 206.716 10.8194 206.183C10.9205 205.375 11.0317 206.559 11.0357 206.734C11.0709 208.256 10.5584 209.752 9.97385 211.141C9.62236 211.976 9.2253 212.794 8.86704 213.627C8.60731 214.231 8.46152 214.812 8.27712 215.439C8.17359 215.792 8.11676 216.192 7.98216 216.532C7.8808 216.788 7.75377 217.037 7.68158 217.304C7.60499 217.588 7.56449 218 7.55798 218.293C7.54703 218.786 7.35572 219.249 7.35572 219.743C7.35572 219.892 7.32093 220.085 7.36134 220.226C7.42114 220.435 7.5915 220.609 7.64787 220.838C7.68598 220.994 7.78902 221.131 7.8389 221.288C7.93288 221.583 7.95973 221.855 8.0243 222.159C8.08322 222.436 8.20857 222.693 8.27712 222.968C8.37682 223.366 8.66774 223.747 8.83333 224.119C8.9055 224.282 9.08303 225.079 9.32774 225.032C10.0212 224.901 10.3247 224.088 10.693 223.589C10.8436 223.384 10.8817 223.11 10.9346 222.867C10.9998 222.567 11.1275 222.26 11.2267 221.968C11.4191 221.401 11.57 220.819 11.7548 220.254C11.8479 219.969 11.8532 219.694 12.0273 219.442C12.128 219.297 12.1953 218.88 12.2127 218.706C12.2398 218.436 12.4106 218.122 12.5105 217.872C12.7362 217.308 13.0702 216.804 13.269 216.217C13.5376 215.425 13.6909 214.647 13.8168 213.821C13.9596 212.884 14.1355 211.962 14.3449 211.034C14.4484 210.576 14.5262 210.114 14.6539 209.661C14.7879 209.186 13.7776 210.131 13.401 210.45C12.4095 211.29 11.3155 212.207 10.9121 213.492C10.7606 213.975 10.7193 214.497 10.5919 214.99C10.4694 215.463 10.3174 215.926 10.1761 216.394C10.0051 216.961 9.90829 217.555 9.62832 218.08C9.22406 218.838 8.70653 219.666 8.67321 220.549C8.66533 220.758 8.53758 221.782 8.80524 221.838C9.23155 221.928 9.87732 221.914 10.2491 221.687C10.9814 221.239 11.9793 220.873 12.474 220.114C12.7972 219.617 13.3968 217.935 13.2212 218.501C13.052 219.046 12.5272 219.56 12.2099 220.024C11.8133 220.604 11.5347 221.153 11.3222 221.816C11.2644 221.996 11.1986 222.159 11.1986 222.35C11.1986 222.488 11.4871 221.825 11.5076 221.782C11.7213 221.336 12.0275 220.902 12.1987 220.439C12.3645 219.992 12.4714 219.52 12.6566 219.08C12.8459 218.63 13.0246 218.155 13.2493 217.72C13.3832 217.461 13.5246 217.311 13.5246 217.018C13.5246 216.19 13.5339 215.393 13.6482 214.574C13.8118 213.401 13.9948 212.24 14.182 211.074C14.2697 210.527 14.4125 209.998 14.4938 209.456C14.5708 208.942 14.8561 208.474 14.887 207.947C14.9304 207.21 15.3955 206.609 15.3955 205.843C15.3955 205.036 15.3955 204.229 15.3955 203.422C15.3955 202.891 15.4511 202.388 15.5472 201.865C15.5877 201.645 15.6989 201.382 15.6989 201.163" stroke="white" stroke-width="3" stroke-linecap="round"/>
<path d="M10.3889 191.808C9.79518 191.405 9.29509 190.826 8.66968 190.482C8.35033 190.307 8.17373 190.069 7.98706 189.758C7.84905 189.528 7.75547 189.316 7.55726 189.128C7.43891 189.016 7.16165 188.879 7.48984 189.089C7.91142 189.359 8.35617 189.602 8.768 189.884C9.12678 190.129 9.56181 190.262 9.94222 190.471C10.4842 190.769 10.98 191.172 11.5125 191.494C11.9565 191.762 11.5519 192.577 11.5519 193.016C11.5519 193.119 11.6247 193.504 11.4676 193.525C11.1651 193.565 10.8636 193.302 10.7934 193.022" stroke="white" stroke-width="2" stroke-linecap="round"/>
<path d="M11.2492 193.174C11.3905 193.424 11.5522 193.672 11.5975 193.961C11.6197 194.102 11.7186 194.472 11.6453 194.607C11.5772 194.732 11.2186 194.531 11.1705 194.5C10.5788 194.121 10.2115 193.497 9.839 192.921C9.80955 192.876 9.62011 192.649 9.81653 192.806C10.3406 193.226 10.7542 193.831 11.075 194.413C11.4958 195.177 11.7009 196.1 11.8251 196.955C11.8719 197.278 11.912 197.619 11.9234 197.944C11.9374 198.342 11.5624 197.407 11.547 197.321C11.4659 196.868 11.502 196.392 11.502 195.933C11.502 195.822 11.6001 195.88 11.6593 195.933C12.0838 196.313 12.2265 196.998 12.4515 197.5C12.5553 197.732 12.6529 197.971 12.7689 198.197C12.8609 198.376 12.7097 197.799 12.6706 197.601C12.4659 196.568 12.3225 195.523 12.12 194.489C12.1154 194.465 11.986 194.008 12.0948 194.09C12.3553 194.285 12.565 194.687 12.7156 194.955C13.0107 195.481 13.2444 196.034 13.4431 196.601C13.585 197.007 13.5341 196.883 13.6285 197.189C13.6874 197.379 13.5568 196.797 13.519 196.601C13.3495 195.724 13.2429 194.828 13.0583 193.955C13.0525 193.928 12.981 193.775 13.0751 193.879C13.6078 194.471 13.9145 195.301 14.1539 196.045C14.3106 196.533 14.4459 197.027 14.5921 197.517C14.6274 197.636 14.7047 198.095 14.8309 198.197C14.9604 198.302 14.8729 197.863 14.8561 197.697C14.8057 197.198 14.7205 196.701 14.6426 196.205C14.606 195.972 14.553 195.741 14.5331 195.506C14.52 195.352 14.6254 195.452 14.6651 195.517C14.9539 195.989 14.8855 196.787 14.8899 197.315C14.8901 197.35 14.8939 198.28 14.9151 198.276C14.9975 198.259 14.9404 197.24 14.9404 197.13C14.9404 197.115 14.9052 196.819 14.9854 196.849C15.2665 196.952 15.4766 197.364 15.6258 197.601C15.9441 198.107 15.7931 197.53 15.8618 197.281C15.9563 196.939 15.65 196.667 15.5275 196.365C15.4145 196.087 15.1881 195.896 15.0303 195.641C14.7629 195.207 14.4838 194.831 14.314 194.34C14.2644 194.197 14.2057 194.117 14.1201 193.989C13.9402 193.719 13.8383 193.411 13.6482 193.146C13.4946 192.932 13.3479 192.713 13.1735 192.517C12.9424 192.257 12.7116 191.972 12.5133 191.697C12.3521 191.473 12.1491 191.392 11.9065 191.264C11.6977 191.154 11.9372 190.798 11.6003 190.983C11.2376 191.183 11.0585 191.696 10.7688 191.986C10.5438 192.211 10.2868 192.329 10.0356 192.517" stroke="white" stroke-width="2" stroke-linecap="round"/>
</svg>
