<svg width="127" height="128" viewBox="0 0 127 128" fill="none" xmlns="http://www.w3.org/2000/svg">
<path d="M14.234 49.4735C13.4628 52.325 10.9287 53.5976 8.00958 52.8081C5.09045 52.0186 3.54318 49.6423 4.31437 46.7907C5.08556 43.9392 7.62332 42.6531 10.5425 43.4426C13.4616 44.232 15.0052 46.6219 14.234 49.4735ZM12.6528 49.0458C13.1316 47.2754 12.0002 45.8817 10.0271 45.3481C8.05399 44.8145 6.37436 45.448 5.89557 47.2184C5.42043 48.9753 6.55181 50.369 8.52493 50.9026C10.498 51.4362 12.1777 50.8027 12.6528 49.0458Z" fill="black"/>
<path d="M9.60146 34.305C10.5118 32.5534 12.1622 31.928 13.8019 32.7802C15.4541 33.6389 15.8783 35.3425 14.9679 37.0941L13.8446 39.2556L17.298 41.0504L16.4135 42.7523L7.59356 38.1683L9.60146 34.305ZM13.4023 36.7064C13.9059 35.7374 13.7865 34.9654 12.9045 34.507C12.0474 34.0615 11.322 34.3945 10.8185 35.3635L9.86938 37.1896L12.4532 38.5325L13.4023 36.7064Z" fill="black"/>
<path d="M21.8774 30.728L25.3538 26.5542L26.6125 27.6025L21.8996 33.2609L14.2618 26.8994L18.9299 21.2948L20.1885 22.3431L16.7569 26.4632L18.6287 28.0222L21.7198 24.3109L22.8709 25.2696L19.7797 28.9809L21.8774 30.728Z" fill="black"/>
<path d="M28.3763 13.3592L29.8471 12.2403L35.8656 20.1511L33.9826 21.5837L25.9274 18.0018L30.6066 24.1521L29.1358 25.2711L23.1173 17.3603L25.0003 15.9277L33.0555 19.5096L28.3763 13.3592Z" fill="black"/>
<path d="M48.4564 3.55301L49.1993 5.0285L46.3984 6.4389L50.1259 13.8414L48.4128 14.704L44.6853 7.30151L41.8844 8.71191L41.1414 7.23641L48.4564 3.55301Z" fill="black"/>
<path d="M58.2936 11.9788C55.3883 12.5127 53.1473 10.7751 52.6008 7.80085C52.0543 4.82664 53.5312 2.40588 56.4365 1.87203C59.3419 1.33818 61.5966 3.07328 62.1431 6.04749C62.6896 9.0217 61.199 11.445 58.2936 11.9788ZM57.9976 10.3678C59.8014 10.0364 60.571 8.41458 60.2016 6.40423C59.8322 4.39389 58.5363 3.15162 56.7325 3.48306C54.9425 3.81198 54.1729 5.43376 54.5423 7.4441C54.9117 9.45445 56.2076 10.6967 57.9976 10.3678Z" fill="black"/>
<path d="M84.5084 4.89117L86.36 5.39143L81.4023 14.3484L79.3885 13.8043L79.5207 5.90745L75.6582 12.7965L73.6309 12.2488L73.8718 2.01744L75.7234 2.5177L75.3249 10.4876L79.1563 3.44518L81.062 3.96004L80.8465 11.9504L84.5084 4.89117Z" fill="black"/>
<path d="M86.8637 16.9961C84.5715 15.1328 84.4385 12.3002 86.346 9.95372C88.2535 7.60725 91.0536 7.15909 93.3457 9.02246C95.6379 10.8858 95.7818 13.7272 93.8743 16.0737C91.9667 18.4202 89.1558 18.8595 86.8637 16.9961ZM87.8969 15.7251C89.32 16.882 91.0532 16.4145 92.3425 14.8285C93.6319 13.2425 93.7356 11.4503 92.3125 10.2935C90.9003 9.14542 89.1671 9.61287 87.8777 11.1989C86.5884 12.785 86.4847 14.5771 87.8969 15.7251Z" fill="black"/>
<path d="M102.233 16.039C103.827 17.3626 104.23 19.0253 103.139 20.3394C102.271 21.3842 101.09 21.5136 99.8861 20.8597C100.773 21.8512 100.565 22.7155 99.7893 23.891C99.1171 24.8978 98.9014 25.574 98.8128 26.1191L97.2187 24.7955C97.3522 24.3059 97.5395 23.7516 98.2742 22.6694C99.0198 21.5962 98.9058 21.0102 97.8933 20.1696L96.5469 19.0516L93.9981 22.1214L92.5225 20.8962L98.8722 13.2487L102.233 16.039ZM99.0836 19.1744C100.042 19.9703 100.863 20.0334 101.471 19.3009C102.08 18.5685 101.867 17.773 100.908 16.9771L99.3462 15.6803L97.5218 17.8776L99.0836 19.1744Z" fill="black"/>
<path d="M104.411 31.8013L105.833 26.2012L104.154 26.085L101.458 28.4885L100.181 27.0567L107.601 20.4424L108.878 21.8742L105.826 24.5944L111.644 24.978L113.2 26.7232L107.62 26.3335L105.873 33.442L104.411 31.8013Z" fill="black"/>
<path d="M112.319 78.1093C113.042 75.2453 115.555 73.9307 118.487 74.6715C121.419 75.4123 123.005 77.7626 122.281 80.6266C121.558 83.4906 119.042 84.8187 116.11 84.0779C113.178 83.3371 111.595 80.9732 112.319 78.1093ZM113.907 78.5105C113.457 80.2886 114.612 81.6633 116.594 82.164C118.575 82.6648 120.244 82.0034 120.693 80.2253C121.139 78.4608 119.985 77.0861 118.003 76.5854C116.021 76.0846 114.353 76.746 113.907 78.5105Z" fill="black"/>
<path d="M117.204 93.199C116.323 94.9654 114.683 95.6182 113.029 94.7933C111.363 93.9623 110.911 92.266 111.792 90.4995L112.879 88.3196L109.396 86.5825L110.252 84.8661L119.147 89.3027L117.204 93.199ZM113.364 90.8611C112.876 91.8383 113.008 92.6083 113.898 93.0519C114.762 93.4831 115.482 93.138 115.969 92.1608L116.888 90.3192L114.282 89.0195L113.364 90.8611Z" fill="black"/>
<path d="M104.989 96.9797L101.583 101.211L100.307 100.184L104.925 94.4476L112.667 100.681L108.093 106.363L106.817 105.335L110.18 101.159L108.282 99.6311L105.253 103.393L104.087 102.454L107.116 98.6917L104.989 96.9797Z" fill="black"/>
<path d="M98.7796 114.454L97.3277 115.597L91.1784 107.788L93.0373 106.324L101.151 109.771L96.3701 103.7L97.822 102.556L103.971 110.366L102.112 111.83L93.9987 108.382L98.7796 114.454Z" fill="black"/>
<path d="M78.696 124.566L77.9623 123.086L80.7721 121.694L77.0913 114.268L78.8098 113.416L82.4906 120.842L85.3004 119.449L86.034 120.929L78.696 124.566Z" fill="black"/>
<path d="M68.8729 116.332C71.769 115.75 74.0385 117.45 74.6344 120.415C75.2303 123.38 73.794 125.825 70.8979 126.407C68.0018 126.989 65.7186 125.291 65.1227 122.327C64.5267 119.362 65.9768 116.914 68.8729 116.332ZM69.1957 117.938C67.3976 118.299 66.6552 119.934 67.0579 121.938C67.4607 123.942 68.7771 125.162 70.5751 124.801C72.3594 124.442 73.1019 122.808 72.6991 120.804C72.2963 118.8 70.98 117.579 69.1957 117.938Z" fill="black"/>
<path d="M42.7953 123.855L40.9357 123.386L45.7437 114.347L47.7663 114.858L47.7654 122.756L51.5128 115.803L53.5489 116.317L53.4783 126.551L51.6186 126.082L51.8845 118.106L48.1708 125.212L46.2568 124.729L46.3393 116.736L42.7953 123.855Z" fill="black"/>
<path d="M40.2393 111.791C42.5621 113.616 42.7423 116.446 40.8741 118.823C39.0059 121.201 36.2137 121.696 33.8908 119.871C31.568 118.046 31.3768 115.207 33.245 112.83C35.1133 110.452 37.9165 109.966 40.2393 111.791ZM39.2274 113.079C37.7852 111.946 36.06 112.442 34.7973 114.049C33.5345 115.656 33.4606 117.45 34.9028 118.583C36.3339 119.707 38.0591 119.211 39.3218 117.604C40.5846 115.997 40.6585 114.203 39.2274 113.079Z" fill="black"/>
<path d="M24.8883 113.003C23.2724 111.706 22.8421 110.05 23.9111 108.718C24.7611 107.659 25.9399 107.51 27.1545 108.144C26.2509 107.168 26.4446 106.3 27.2008 105.112C27.8562 104.094 28.0606 103.414 28.1401 102.868L29.7561 104.165C29.6307 104.656 29.4527 105.214 28.736 106.308C28.0084 107.393 28.1321 107.977 29.1585 108.801L30.5233 109.896L33.0207 106.785L34.5165 107.985L28.2949 115.737L24.8883 113.003ZM27.9849 109.816C27.0132 109.036 26.1912 108.987 25.5953 109.729C24.9994 110.471 25.2256 111.263 26.1973 112.043L27.7805 113.314L29.5681 111.086L27.9849 109.816Z" fill="black"/>
<path d="M22.4477 97.2795L21.1189 102.902L22.7996 102.991L25.4555 100.543L26.7554 101.953L19.4466 108.69L18.1467 107.28L21.1526 104.509L15.3286 104.222L13.744 102.503L19.3298 102.8L20.958 95.6633L22.4477 97.2795Z" fill="black"/>
<path d="M116.846 54.694C117.165 54.7448 117.464 54.8118 117.742 54.8949C118.032 54.9756 118.308 55.077 118.572 55.199L116.634 46.0761L118.03 45.7797L119.967 54.9026C120.16 54.6956 120.367 54.4975 120.588 54.3083C120.82 54.1167 121.072 53.9328 121.343 53.7567L121.617 55.0503C120.938 55.9297 120.473 56.835 120.22 57.7663L119.488 57.9217C118.901 57.1688 118.113 56.5297 117.124 56.0045L116.846 54.694Z" fill="black"/>
<path d="M8.12532 74.1127C7.8062 74.0619 7.50737 73.9949 7.22882 73.9118C6.93892 73.831 6.66243 73.7297 6.39934 73.6077L8.3368 82.7306L6.94113 83.027L5.00367 73.9041C4.81047 74.1111 4.60351 74.3092 4.38279 74.4984C4.15073 74.69 3.89924 74.8739 3.62832 75.05L3.3536 73.7564C4.03252 72.877 4.49841 71.9717 4.75127 71.0404L5.48315 70.885C6.06996 71.6379 6.85791 72.277 7.84699 72.8022L8.12532 74.1127Z" fill="black"/>
<path d="M78.5332 62.8145L78.3892 65.4787L51.7467 64.039L51.8907 61.3748L78.5332 62.8145Z" fill="black"/>
<path d="M71.3047 51.522L73.54 52.9788L58.9719 75.332L56.7366 73.8752L71.3047 51.522Z" fill="black"/>
<path d="M57.9121 52.1343L60.2914 50.9268L72.3659 74.7198L69.9866 75.9272L57.9121 52.1343Z" fill="black"/>
</svg>
